<svg width="34" height="34" viewBox="0 0 34 34" fill="none" xmlns="http://www.w3.org/2000/svg">
<circle cx="17" cy="17" r="17" fill="#2B303B"/>
<path d="M14.3535 18.2227H15.8184C15.7715 18.7812 15.6152 19.2793 15.3496 19.7168C15.084 20.1504 14.7109 20.4922 14.2305 20.7422C13.75 20.9922 13.166 21.1172 12.4785 21.1172C11.9512 21.1172 11.4766 21.0234 11.0547 20.8359C10.6328 20.6445 10.2715 20.375 9.9707 20.0273C9.66992 19.6758 9.43945 19.252 9.2793 18.7559C9.12305 18.2598 9.04492 17.7051 9.04492 17.0918V16.3828C9.04492 15.7695 9.125 15.2148 9.28516 14.7188C9.44922 14.2227 9.68359 13.7988 9.98828 13.4473C10.293 13.0918 10.6582 12.8203 11.084 12.6328C11.5137 12.4453 11.9961 12.3516 12.5312 12.3516C13.2109 12.3516 13.7852 12.4766 14.2539 12.7266C14.7227 12.9766 15.0859 13.3223 15.3438 13.7637C15.6055 14.2051 15.7656 14.7109 15.8242 15.2812H14.3594C14.3203 14.9141 14.2344 14.5996 14.1016 14.3379C13.9727 14.0762 13.7812 13.877 13.5273 13.7402C13.2734 13.5996 12.9414 13.5293 12.5312 13.5293C12.1953 13.5293 11.9023 13.5918 11.6523 13.7168C11.4023 13.8418 11.1934 14.0254 11.0254 14.2676C10.8574 14.5098 10.7305 14.8086 10.6445 15.1641C10.5625 15.5156 10.5215 15.918 10.5215 16.3711V17.0918C10.5215 17.5215 10.5586 17.9121 10.6328 18.2637C10.7109 18.6113 10.8281 18.9102 10.9844 19.1602C11.1445 19.4102 11.3477 19.6035 11.5938 19.7402C11.8398 19.877 12.1348 19.9453 12.4785 19.9453C12.8965 19.9453 13.2344 19.8789 13.4922 19.7461C13.7539 19.6133 13.9512 19.4199 14.084 19.166C14.2207 18.9082 14.3105 18.5938 14.3535 18.2227ZM21.6426 18.8027C21.6426 18.627 21.6152 18.4707 21.5605 18.334C21.5098 18.1973 21.418 18.0723 21.2852 17.959C21.1523 17.8457 20.9648 17.7363 20.7227 17.6309C20.4844 17.5215 20.1797 17.4102 19.8086 17.2969C19.4023 17.1719 19.0273 17.0332 18.6836 16.8809C18.3438 16.7246 18.0469 16.5449 17.793 16.3418C17.5391 16.1348 17.3418 15.8984 17.2012 15.6328C17.0605 15.3633 16.9902 15.0527 16.9902 14.7012C16.9902 14.3535 17.0625 14.0371 17.207 13.752C17.3555 13.4668 17.5645 13.2207 17.834 13.0137C18.1074 12.8027 18.4297 12.6406 18.8008 12.5273C19.1719 12.4102 19.582 12.3516 20.0312 12.3516C20.6641 12.3516 21.209 12.4688 21.666 12.7031C22.127 12.9375 22.4805 13.252 22.7266 13.6465C22.9766 14.041 23.1016 14.4766 23.1016 14.9531H21.6426C21.6426 14.6719 21.582 14.4238 21.4609 14.209C21.3438 13.9902 21.1641 13.8184 20.9219 13.6934C20.6836 13.5684 20.3809 13.5059 20.0137 13.5059C19.666 13.5059 19.377 13.5586 19.1465 13.6641C18.916 13.7695 18.7441 13.9121 18.6309 14.0918C18.5176 14.2715 18.4609 14.4746 18.4609 14.7012C18.4609 14.8613 18.498 15.0078 18.5723 15.1406C18.6465 15.2695 18.7598 15.3906 18.9121 15.5039C19.0645 15.6133 19.2559 15.7168 19.4863 15.8145C19.7168 15.9121 19.9883 16.0059 20.3008 16.0957C20.7734 16.2363 21.1855 16.3926 21.5371 16.5645C21.8887 16.7324 22.1816 16.9238 22.416 17.1387C22.6504 17.3535 22.8262 17.5977 22.9434 17.8711C23.0605 18.1406 23.1191 18.4473 23.1191 18.791C23.1191 19.1504 23.0469 19.4746 22.9023 19.7637C22.7578 20.0488 22.5508 20.293 22.2812 20.4961C22.0156 20.6953 21.6953 20.8496 21.3203 20.959C20.9492 21.0645 20.5352 21.1172 20.0781 21.1172C19.668 21.1172 19.2637 21.0625 18.8652 20.9531C18.4707 20.8438 18.1113 20.6777 17.7871 20.4551C17.4629 20.2285 17.2051 19.9473 17.0137 19.6113C16.8223 19.2715 16.7266 18.875 16.7266 18.4219H18.1973C18.1973 18.6992 18.2441 18.9355 18.3379 19.1309C18.4355 19.3262 18.5703 19.4863 18.7422 19.6113C18.9141 19.7324 19.1133 19.8223 19.3398 19.8809C19.5703 19.9395 19.8164 19.9688 20.0781 19.9688C20.4219 19.9688 20.709 19.9199 20.9395 19.8223C21.1738 19.7246 21.3496 19.5879 21.4668 19.4121C21.584 19.2363 21.6426 19.0332 21.6426 18.8027Z" fill="white"/>
</svg>
