<svg width="16" height="16" viewBox="0 0 16 16" fill="none" xmlns="http://www.w3.org/2000/svg">
<mask id="mask0_969_6762" style="mask-type:luminance" maskUnits="userSpaceOnUse" x="1" y="0" width="14" height="16">
<path fill-rule="evenodd" clip-rule="evenodd" d="M1.33325 0.666992H14.9998V15.0037H1.33325V0.666992Z" fill="white"/>
</mask>
<g mask="url(#mask0_969_6762)">
<path fill-rule="evenodd" clip-rule="evenodd" d="M9.14434 10.1945C9.94701 10.1945 10.6003 10.8432 10.6003 11.6405V13.6912C10.6003 13.8625 10.7377 13.9998 10.9137 14.0038H12.1843C13.1857 14.0038 13.9997 13.1998 13.9997 12.2118V6.39583C13.995 6.05583 13.833 5.73583 13.555 5.52316L9.15967 2.01783C8.56967 1.55049 7.74434 1.55049 7.15234 2.01916L2.78701 5.52183C2.49834 5.74116 2.33634 6.06116 2.33301 6.40716V12.2118C2.33301 13.1998 3.14701 14.0038 4.14834 14.0038H5.43101C5.61167 14.0038 5.75834 13.8605 5.75834 13.6845C5.75834 13.6458 5.76301 13.6072 5.77101 13.5705V11.6405C5.77101 10.8478 6.42034 10.1998 7.21701 10.1945H9.14434ZM12.1843 15.0038H10.9017C10.167 14.9865 9.60034 14.4098 9.60034 13.6912V11.6405C9.60034 11.3945 9.39567 11.1945 9.14434 11.1945H7.22034C6.97434 11.1958 6.77101 11.3965 6.77101 11.6405V13.6845C6.77101 13.7345 6.76434 13.7825 6.75034 13.8278C6.67834 14.4878 6.11434 15.0038 5.43101 15.0038H4.14834C2.59567 15.0038 1.33301 13.7512 1.33301 12.2118V6.40249C1.33967 5.73983 1.64501 5.13316 2.17234 4.73383L6.52901 1.23716C7.48834 0.477159 8.82501 0.477159 9.78234 1.23583L14.1703 4.73583C14.6857 5.12849 14.991 5.73383 14.9997 6.38849V12.2118C14.9997 13.7512 13.737 15.0038 12.1843 15.0038Z" fill="white"/>
</g>
</svg>
