<svg width="16" height="8" viewBox="0 0 16 8" fill="none" xmlns="http://www.w3.org/2000/svg">
<path d="M4.37061 5.58949C4.37061 5.85518 4.39312 6.0706 4.43253 6.22858C4.47756 6.38656 4.53385 6.5589 4.61266 6.7456C4.6408 6.80305 4.65206 6.8605 4.65206 6.91076C4.65206 6.98257 4.61829 7.05438 4.54511 7.12619L4.19047 7.42778C4.13981 7.47087 4.08915 7.49241 4.04412 7.49241C3.98783 7.49241 3.93154 7.45651 3.87525 7.39188C3.79644 7.28417 3.72889 7.16927 3.6726 7.05438C3.61631 6.93231 3.56002 6.79587 3.4981 6.63071C3.05903 7.29135 2.50738 7.62167 1.84315 7.62167C1.37031 7.62167 0.993158 7.44933 0.717333 7.10465C0.441508 6.75996 0.300781 6.30039 0.300781 5.72592C0.300781 5.11555 0.469654 4.62007 0.813028 4.24667C1.1564 3.87326 1.61236 3.68656 2.19215 3.68656C2.38354 3.68656 2.58056 3.7081 2.78883 3.74401C2.99711 3.77991 3.21102 3.83736 3.43618 3.90199V3.37778C3.43618 2.83204 3.34611 2.45145 3.17161 2.22885C2.99148 2.00624 2.68751 1.89853 2.25407 1.89853C2.05705 1.89853 1.85441 1.92725 1.64613 1.99188C1.43786 2.05651 1.23521 2.1355 1.03819 2.23603C0.948125 2.28629 0.880576 2.31502 0.841173 2.32938C0.801769 2.34374 0.773624 2.35092 0.751108 2.35092C0.6723 2.35092 0.632897 2.27911 0.632897 2.12832V1.77645C0.632897 1.66156 0.644155 1.57539 0.672301 1.52512C0.700446 1.47486 0.751108 1.42459 0.829915 1.37433C1.02693 1.24507 1.26335 1.13736 1.53918 1.05119C1.815 0.957837 2.10772 0.914752 2.41732 0.914752C3.08718 0.914752 3.57691 1.10864 3.89213 1.4964C4.20173 1.88417 4.35935 2.473 4.35935 3.26289V5.58949H4.37061ZM2.0852 6.68098C2.27096 6.68098 2.46235 6.63789 2.66499 6.55172C2.86764 6.46555 3.04777 6.30757 3.19976 6.09215C3.28982 5.95571 3.35737 5.80491 3.39115 5.63257C3.42492 5.46023 3.44744 5.25199 3.44744 5.00784V4.70624C3.28419 4.65598 3.10969 4.61289 2.92956 4.58417C2.74943 4.55544 2.57493 4.54108 2.40043 4.54108C2.02328 4.54108 1.74745 4.63443 1.56169 4.82832C1.37594 5.0222 1.28587 5.29507 1.28587 5.65411C1.28587 5.99161 1.35342 6.24294 1.49415 6.41528C1.62924 6.59481 1.82626 6.68098 2.0852 6.68098ZM6.60535 7.45651C6.50403 7.45651 6.43648 7.43497 6.39145 7.3847C6.34641 7.34161 6.30701 7.24108 6.27323 7.10465L4.9504 1.55385C4.91663 1.41023 4.89974 1.31688 4.89974 1.26661C4.89974 1.15172 4.94477 1.08709 5.03484 1.08709H5.58649C5.69344 1.08709 5.76662 1.10864 5.80602 1.1589C5.85105 1.20199 5.88483 1.30252 5.9186 1.43895L6.86429 6.19268L7.74242 1.43895C7.77057 1.29534 7.80434 1.20199 7.84938 1.1589C7.89441 1.11582 7.97322 1.08709 8.07454 1.08709H8.52487C8.63182 1.08709 8.705 1.10864 8.75003 1.1589C8.79506 1.20199 8.83447 1.30252 8.85698 1.43895L9.74638 6.25012L10.7202 1.43895C10.754 1.29534 10.7934 1.20199 10.8328 1.1589C10.8778 1.11582 10.951 1.08709 11.0523 1.08709H11.5758C11.6659 1.08709 11.7166 1.14454 11.7166 1.26661C11.7166 1.30252 11.7109 1.33842 11.7053 1.38151C11.6997 1.42459 11.6884 1.48204 11.6659 1.56103L10.3093 7.11183C10.2755 7.25544 10.2361 7.34879 10.1911 7.39188C10.146 7.43497 10.0729 7.46369 9.97717 7.46369H9.49307C9.38612 7.46369 9.31294 7.44215 9.2679 7.39188C9.22287 7.34161 9.18347 7.24826 9.16095 7.10465L8.28844 2.473L7.42157 7.09747C7.39342 7.24108 7.35965 7.33443 7.31461 7.3847C7.26958 7.43497 7.19077 7.45651 7.08945 7.45651H6.60535ZM13.8387 7.65039C13.546 7.65039 13.2533 7.60731 12.9718 7.52114C12.6904 7.43497 12.4708 7.34161 12.3245 7.2339C12.2344 7.16927 12.1725 7.09747 12.15 7.03284C12.1275 6.96821 12.1162 6.8964 12.1162 6.83177V6.46555C12.1162 6.31475 12.1613 6.24294 12.2457 6.24294C12.2795 6.24294 12.3132 6.25012 12.347 6.26449C12.3808 6.27885 12.4314 6.30757 12.4877 6.3363C12.6791 6.44401 12.8874 6.53018 13.1069 6.58763C13.3321 6.64507 13.5516 6.67379 13.7768 6.67379C14.1314 6.67379 14.4073 6.59481 14.5986 6.43683C14.79 6.27885 14.8914 6.04906 14.8914 5.75465C14.8914 5.55358 14.8407 5.38842 14.7394 5.25199C14.638 5.11555 14.4467 4.99348 14.1708 4.87858L13.3546 4.55544C12.9437 4.39028 12.6397 4.14614 12.454 3.823C12.2682 3.50704 12.1725 3.15518 12.1725 2.78177C12.1725 2.48018 12.2232 2.21449 12.3245 1.9847C12.4258 1.75491 12.5609 1.55385 12.7298 1.39587C12.8987 1.23071 13.09 1.10864 13.3152 1.02247C13.5404 0.936295 13.7768 0.900391 14.0245 0.900391C14.1483 0.900391 14.2778 0.907571 14.4016 0.929114C14.5311 0.950657 14.6493 0.97938 14.7675 1.0081C14.8801 1.04401 14.987 1.07991 15.0884 1.123C15.1897 1.16608 15.2685 1.20917 15.3248 1.25225C15.4036 1.3097 15.4599 1.36715 15.4937 1.43177C15.5274 1.48922 15.5443 1.56821 15.5443 1.66874V2.00624C15.5443 2.15704 15.4993 2.23603 15.4149 2.23603C15.3698 2.23603 15.2966 2.20731 15.201 2.14986C14.8801 1.96316 14.5198 1.86981 14.1202 1.86981C13.7993 1.86981 13.546 1.93443 13.3715 2.07087C13.197 2.20731 13.1069 2.41555 13.1069 2.70996C13.1069 2.91103 13.1632 3.08337 13.2758 3.21981C13.3884 3.35624 13.5967 3.49268 13.895 3.61475L14.6943 3.93789C15.0996 4.10305 15.3923 4.33284 15.5668 4.62725C15.7413 4.92167 15.8258 5.25917 15.8258 5.63257C15.8258 5.94135 15.7751 6.2214 15.6794 6.46555C15.5781 6.7097 15.443 6.92512 15.2685 7.09747C15.094 7.27699 14.8857 7.40624 14.6437 7.49959C14.3904 7.60012 14.1258 7.65039 13.8387 7.65039Z" fill="white"/>
</svg>
