<svg width="133" height="194" viewBox="0 0 133 194" fill="none" xmlns="http://www.w3.org/2000/svg">
<g filter="url(#filter0_d_1416_41)">
<path d="M4 4.19775C4.80423 3.70974 5.61227 3.7898 6.54609 3.86224C8.75677 4.02999 11.0284 4.14818 13.0676 4.88782C18.579 6.87797 24.3916 6.08877 29.9984 7.07241V8.46781C27.8601 8.20855 25.6647 8.4983 23.5874 7.66335C22.5659 7.24778 21.5177 7.80824 20.4467 7.77774C18.1788 7.71292 15.9491 6.97329 13.586 7.77774C11.3372 8.54025 8.88636 7.95311 6.52322 7.77774C6.43556 7.77774 6.34028 7.64811 6.26786 7.66717C4.99481 7.9493 4.26681 7.41935 4.00763 6.17264L4 4.19775Z" fill="#26282B"/>
<path d="M80.8439 61.1304C82.1208 60.3679 83.3977 61.1304 84.6555 61.2028C85.6884 61.26 86.7251 61.3782 87.7657 61.3858C88.0668 63.4599 87.1291 65.4157 87.1673 67.463C87.1673 68.1607 87.3197 68.8623 87.3693 69.5371C87.4569 70.7342 87.9829 72.1067 86.7632 73.1552C86.5803 73.3115 86.6222 73.7728 86.6184 74.0931C86.5803 88.8985 86.5472 103.703 86.5193 118.505C86.5193 118.688 86.5612 118.887 86.6146 119.291C87.2054 118.071 87.152 116.938 87.3769 115.882C87.8686 113.366 88.9472 111.143 90.2813 108.978C91.6153 106.812 95.564 106.057 97.5231 108.051C99.6004 110.167 100.694 112.748 101.495 115.494C103.198 121.334 103.625 127.347 103.782 133.39C103.827 135.166 104.544 135.933 106.309 136.013L107.734 136.089C107.879 136.531 108.054 136.97 108.165 137.423C108.489 138.75 109.198 139.143 110.524 138.636C111.594 138.282 112.682 137.987 113.783 137.751C113.684 138.132 113.589 138.483 113.49 138.849C106.949 140.684 100.407 142.513 93.8641 144.335C91.2723 145.052 88.7338 146.04 85.9819 145.99C85.4407 145.99 84.766 145.99 84.9299 146.707C84.9705 146.845 85.0403 146.973 85.1344 147.081C85.2286 147.19 85.345 147.278 85.4757 147.338C85.6065 147.397 85.7486 147.429 85.8925 147.429C86.0363 147.43 86.1786 147.399 86.3097 147.34C87.9905 146.638 89.8163 146.631 91.5391 146.146C96.9819 144.621 102.43 143.118 107.883 141.636C108.58 141.446 109.282 141.064 110.036 141.453C110.072 141.535 110.081 141.625 110.063 141.712C105.039 143.131 100.016 144.56 94.9885 145.96C92.1121 146.765 89.2267 147.543 86.3325 148.293C85.7151 148.453 84.7012 148.754 84.5335 148.114C84.2209 146.92 83.7445 147.664 83.4396 147.9C82.7688 148.423 82.6087 149.158 82.6125 150.031C82.6328 162.023 82.6328 174.015 82.6125 186.007L81.469 185.797C81.558 182.315 81.6444 178.834 81.7282 175.354C82.2999 175.004 82.1094 174.428 82.1094 173.928C82.1094 168.648 82.1094 163.364 82.1704 158.084C82.1704 157.252 81.3433 156.558 81.4538 156.2C82.1399 153.947 81.5796 151.682 81.7587 149.44C81.8273 148.556 81.3509 147.633 82.4448 146.936C82.8526 146.68 82.8259 145.853 82.0065 145.643C81.5905 145.542 81.1693 145.463 80.7448 145.407C73.8574 144.446 66.9433 143.638 60.0902 142.483C54.9828 141.621 49.822 141.186 44.726 140.241C41.0098 139.551 37.1907 139.375 33.4897 138.716C28.8434 137.881 24.1286 137.572 19.509 136.581C19.1279 136.501 18.5905 136.283 18.3656 136.787C18.2834 136.989 18.2642 137.212 18.3104 137.425C18.3567 137.639 18.4662 137.833 18.6248 137.984C19.2841 138.563 19.2842 139.303 19.2803 140.077C19.2803 143.279 19.1126 146.47 18.9525 149.669C18.7162 154.458 18.9754 159.273 19.0707 164.077C19.0707 164.428 18.5295 164.897 19.1927 165.186L19.5548 165.69C19.227 169.048 19.5052 172.411 19.4442 175.774C18.3465 175.739 18.64 174.893 18.6362 174.302C18.5905 167.3 18.5612 160.297 18.5485 153.295C18.5333 148.832 18.5333 144.366 18.5485 139.898C18.5485 138.998 18.3846 138.274 17.569 137.686C16.6199 137.004 16.7266 135.986 17.0887 134.991C18.7925 136.135 20.8126 135.67 22.6573 136.089C22.928 136.15 23.2557 136.066 23.1719 135.65C22.9928 134.785 23.4844 134.003 23.4578 133.161L23.9761 133.069C24.3819 133.195 24.7942 133.3 25.2111 133.382C31.3705 134.282 37.5299 135.189 43.6931 136.051C53.6742 137.461 63.6591 138.852 73.6478 140.222C76.1405 140.565 78.6028 141.125 81.1451 141.156C81.5529 141.156 82.3876 141.339 82.2008 140.63C81.4385 137.766 82.4524 134.911 82.1208 132.071C82.1666 125.65 82.239 119.23 82.258 112.806C82.2961 100.097 82.3177 87.3887 82.3228 74.6802C82.3654 73.9945 82.1567 73.3168 81.7358 72.7739C81.0079 71.7865 81.3776 70.4101 81.53 69.2016C81.7092 67.7719 82.0217 66.3955 81.3166 64.962C81.0117 64.3444 81.2327 63.4675 81.206 62.7088C81.1832 62.175 81.3394 61.5803 80.8439 61.1304ZM99.1392 134.552C99.5204 134.267 99.3794 133.855 99.3679 133.496C99.2269 128.879 98.9868 124.27 98.0225 119.733C97.4812 117.167 96.8485 114.62 95.3773 112.398C94.3329 110.823 93.7955 110.85 92.9836 112.524C91.7373 115.097 91.3866 117.884 91.2075 120.698C91.2075 120.881 91.1884 121.151 91.2951 121.243C92.5872 122.36 91.9431 123.847 91.8592 125.105C91.8097 125.833 91.6382 126.63 91.5467 127.415C91.3599 129.04 92.4805 130.465 92.1908 132.109C92.0231 133.05 92.4043 133.538 93.5058 133.535C94.2148 133.535 94.9199 133.969 95.6288 134.213C95.7025 135.255 95.7724 136.299 95.8385 137.343C95.8613 137.702 95.9109 137.969 96.3949 137.98C98.1368 138.022 99.143 137.027 99.1011 135.258C99.0973 135.021 99.1392 134.789 99.1507 134.552H99.1392Z" fill="#26282B"/>
<path d="M82.5668 186.007C82.5668 174.015 82.5668 162.023 82.5668 150.031C82.5668 149.158 82.723 148.423 83.3939 147.9C83.6988 147.664 84.1562 146.92 84.4878 148.114C84.6555 148.754 85.6693 148.453 86.2868 148.293C89.181 147.53 92.0663 146.753 94.9428 145.96C99.9701 144.56 104.994 143.131 110.017 141.712C110.035 145.556 110.055 149.399 110.078 153.242C110.078 153.623 110.109 154.038 109.552 154.073C109.495 153.478 109.285 153.123 108.573 153.154C107.526 153.149 106.485 152.996 105.482 152.7C104.878 152.567 104.258 152.517 103.641 152.552C102.646 152.59 101.956 153.162 102.032 154.153C102.108 155.144 102.932 154.965 103.679 154.87C104.643 154.74 105.535 155.114 106.503 155.419C106.122 155.819 105.787 155.689 105.482 155.693C102.955 155.693 103.038 155.716 102.814 158.145C102.669 159.67 102.101 161.195 100.527 161.805C98.5408 162.567 96.536 163.356 94.371 163.513C94.2167 162.534 94.2167 161.537 94.371 160.558C95.5145 160.272 94.8208 159.353 94.9466 158.751C94.9796 158.614 94.985 158.473 94.9622 158.334C94.9394 158.196 94.8889 158.064 94.8138 157.945C94.7388 157.827 94.6407 157.725 94.5253 157.645C94.4099 157.565 94.2797 157.509 94.1423 157.481C92.3319 157.371 90.6014 156.867 88.8062 156.616C87.8648 156.482 87.1291 157.069 86.7328 157.859C86.5525 158.175 86.4882 158.544 86.5508 158.902C86.6134 159.261 86.7991 159.586 87.0758 159.822C87.6437 160.31 87.7428 160.924 87.7199 161.618C87.6895 162.521 87.6666 163.425 87.7199 164.329C87.8381 166.681 89.5456 167.889 91.8211 167.249C92.6558 167.016 93.3991 166.974 94.1347 167.63C94.7636 168.194 95.4916 168.126 96.0824 167.44C96.2158 167.352 96.3454 167.318 96.4636 167.474C99.8711 166.833 103.099 165.568 106.412 164.603C106.667 164.527 106.938 164.37 106.915 164.008C107.132 164.008 107.483 164.145 107.201 163.696C107.41 163.169 108.1 162.933 108.062 162.262L108.035 162.296C108.455 162.014 108.798 161.709 108.378 161.153C108.798 159.193 108.584 157.207 108.577 155.232C108.577 154.973 108.153 154.572 108.801 154.519C109.354 154.469 109.225 154.9 109.244 155.19C109.282 155.705 109.023 156.429 110.006 156.231C110.216 158.408 110.071 160.592 110.048 162.773C109.998 167.523 109.933 172.274 109.93 177.028C109.93 177.878 109.67 178.286 108.84 178.553C101.133 180.963 93.4448 183.414 85.7456 185.843C84.7012 186.193 83.6073 185.606 82.5668 186.007Z" fill="#D9D9D9"/>
<path d="M81.6978 175.354L81.4348 185.797C78.7324 185.389 76.0262 185 73.3315 184.566C68.3003 183.757 63.2767 182.915 58.2455 182.099C53.3972 181.313 48.5452 180.547 43.6931 179.769C36.1158 178.56 28.5385 177.334 20.9612 176.094C20.4467 176.01 19.9398 175.877 19.4366 175.766C19.4976 172.404 19.2194 169.041 19.5472 165.682C20.1113 165.739 20.6906 165.77 21.2357 165.857C29.2119 167.128 37.1881 168.411 45.1644 169.704C54.5331 171.203 63.8942 172.72 73.2667 174.169C75.9767 174.588 78.6523 175.354 81.4348 175.164L81.6978 175.354Z" fill="#D9D9D9"/>
<path d="M93.4753 57.7068C93.2428 53.8141 93.4144 49.9177 93.4144 46.0251C93.4144 39.742 93.4449 33.4628 93.4144 27.1797C93.4144 26.6574 93.6583 26.0092 93.0104 25.6318V25.0561C93.0751 24.9379 93.1895 24.8273 93.2047 24.7015C93.5859 21.2245 93.441 17.736 93.4258 14.2513C93.4523 14.0632 93.4187 13.8716 93.3297 13.7038C93.2407 13.536 93.1009 13.4007 92.9303 13.3172V12.5204C93.544 11.7198 93.7307 8.55919 93.2047 7.65561C93.1742 7.59842 93.037 7.60604 92.9455 7.57936C92.8731 7.30104 92.7969 7.01891 92.7245 6.73679C93.8519 6.76352 94.975 6.5879 96.0405 6.21827C98.1597 5.90946 98.175 5.90183 99.0097 7.89961C99.0543 8.08091 99.1621 8.24036 99.3137 8.34936C99.4653 8.45835 99.6507 8.50976 99.8368 8.49437C100.265 8.49305 100.693 8.51852 101.117 8.57062C103.26 8.79937 103.976 9.50851 103.843 11.6931C103.759 13.0656 104.262 13.3287 105.504 13.3897C108.592 13.5422 111.668 13.8663 114.751 14.1255C115.534 14.1544 116.318 14.0762 117.08 13.8929C119.39 13.4659 121.73 12.8216 124.12 13.5651C124.631 13.6605 125.152 13.6937 125.671 13.6642C125.629 13.7824 125.625 13.8967 125.568 13.9387C125.126 14.2589 124.169 13.5574 124.143 14.3199C124.116 15.2273 125.111 14.7012 125.625 14.8461C126.275 14.99 126.939 15.0591 127.604 15.052C128.061 15.0748 128.324 15.2464 128.332 15.723C128.339 16.1995 128.126 16.5541 127.569 16.5503C126.952 16.5503 126.334 16.4931 125.717 16.5045C124.997 16.5045 124.444 16.3139 123.811 17.267C123.178 18.2202 121.562 17.7856 120.476 17.3166C118.57 16.5007 116.638 15.7573 114.61 15.5095C111.412 15.1282 108.184 15.0176 104.967 14.7813C104.311 14.7317 103.713 14.6554 103.846 15.6429C103.896 16.0241 103.717 16.2682 103.271 16.2605C102.825 16.2529 102.585 16.089 102.577 15.5895C102.57 15.0901 102.844 14.4191 101.937 14.4991C100.931 14.5906 101.502 15.3722 101.434 15.8335C101.258 17.0116 101.64 17.8199 103.019 17.7055C103.816 17.6407 103.82 18.1211 103.812 18.6967C103.785 20.3628 103.812 22.0289 103.759 23.695C103.736 24.4308 104.018 24.6863 104.731 24.7663C106.789 25.0065 108.923 25.4145 110.894 25.4335C113.333 25.4564 115.777 26.0817 118.307 25.4335C121.1 24.7359 124.022 24.7359 126.815 25.4335C127.516 25.6013 128.549 24.7244 128.892 25.8987C129.098 26.6002 128.949 27.4237 128.934 28.1862C128.907 29.6845 128.553 30.0086 127.181 29.654C126.079 29.3719 124.962 29.5396 123.857 29.4443C121.44 29.2386 119.081 28.5926 116.897 27.5381C116.733 27.4546 116.554 27.4016 116.371 27.3817C112.373 27.0195 108.367 26.6459 104.376 26.3218C103.5 26.2494 103.778 27.0157 103.778 27.4656C103.747 31.2782 103.751 35.0907 103.744 38.9033C103.744 43.4783 103.736 48.0534 103.721 52.6284C103.721 54.9884 102.958 55.6785 100.691 55.2972C99.6995 55.1333 98.8648 54.916 98.5294 56.2427C98.4075 56.7155 97.8472 56.8909 97.386 56.9862C96.0862 57.2378 94.7789 57.478 93.4753 57.7068ZM98.8115 35.3881H98.7162V54.4699H98.8077L98.8115 35.3881ZM101.777 48.732C101.422 48.732 101.289 48.9608 101.262 49.2467C101.23 49.4069 101.255 49.5732 101.333 49.7168C101.411 49.8603 101.537 49.9719 101.689 50.0321C102.021 50.1503 102.2 49.9025 102.261 49.6165C102.314 49.4335 102.295 49.237 102.207 49.0679C102.119 48.8988 101.969 48.7703 101.788 48.7091L101.777 48.732Z" fill="#26282B"/>
<path d="M82.1017 132.071C82.4333 134.919 81.4233 137.766 82.1818 140.63C82.3686 141.339 81.5338 141.16 81.126 141.156C78.5952 141.125 76.1215 140.565 73.6288 140.222C63.64 138.865 53.6552 137.474 43.6741 136.051C37.5108 135.182 31.3514 134.274 25.192 133.382C24.7751 133.3 24.3629 133.196 23.9571 133.069C23.9741 132.949 24.0291 132.837 24.1141 132.75C24.1991 132.663 24.3097 132.605 24.4297 132.585C30.3566 131.079 36.2759 129.535 42.2104 128.06C45.9686 127.126 49.6924 127.827 53.4239 128.395C57.2964 128.982 61.1842 129.467 65.0643 129.993C68.811 130.5 72.5539 131.014 76.3006 131.518C78.2254 131.777 80.1464 132.101 82.1017 132.071Z" fill="#D9D9D9"/>
<path d="M30.0136 33.947C30.0136 34.9497 30.3947 35.3653 31.5382 35.472C37.2974 35.9715 43.0451 36.6158 48.7891 37.2563C45.4464 37.3859 42.1647 36.6425 38.8448 36.5434C35.9976 36.4595 33.2076 35.7275 30.349 35.8952C29.095 35.106 27.6428 35.3576 26.2897 35.1708C23.3282 34.7705 20.3438 34.5761 17.3708 34.2711C15.385 34.069 13.4868 34.6714 11.5506 34.8811C10.2166 35.026 8.92063 34.7591 7.61328 34.6485C6.9234 34.5913 6.26782 34.3206 5.53982 34.4655C4.97571 34.5761 4.49928 34.3778 4.5412 33.6268C4.52246 33.3444 4.48168 33.064 4.41923 32.788C4.17911 30.5233 4.52216 30.4052 6.79001 30.5996C9.05786 30.794 11.4172 31.019 13.4678 31.7853C16.2121 32.8109 18.9945 32.9062 21.7845 33.2302C24.5745 33.5543 27.2693 33.7106 30.0136 33.947Z" fill="#26282B"/>
<path d="M94.3902 163.513C96.5551 163.356 98.5599 162.571 100.546 161.805C102.108 161.202 102.676 159.677 102.833 158.145C103.065 155.716 102.981 155.712 105.501 155.693C105.806 155.693 106.156 155.819 106.522 155.419C105.554 155.114 104.662 154.74 103.698 154.87C102.936 154.965 102.128 155.175 102.051 154.153C101.975 153.131 102.665 152.59 103.66 152.552C104.277 152.517 104.897 152.567 105.501 152.7C106.502 153.002 107.542 153.162 108.588 153.173C109.301 153.142 109.51 153.497 109.568 154.092L109.991 156.284C108.996 156.482 109.255 155.758 109.228 155.243C109.228 154.942 109.339 154.523 108.786 154.572C108.138 154.626 108.561 155.026 108.561 155.285C108.561 157.26 108.782 159.246 108.363 161.206C108.298 161.587 107.826 161.866 108.02 162.35L108.047 162.315C107.001 162.923 105.872 163.375 104.696 163.657C102.326 164.363 99.9588 165.095 97.5918 165.815C95.1448 166.517 94.5502 166.101 94.3902 163.513ZM103.538 162.567C104.998 162.518 105.825 162.03 106.252 160.844C106.633 159.738 106.583 158.606 106.598 157.47C106.598 156.917 106.553 156.326 105.798 156.452C105.245 156.551 104.62 156.661 104.696 157.596C104.853 159.273 104.769 160.966 103.549 162.567H103.538ZM108.028 159.696C108.07 158.739 108.256 157.84 107.963 156.928C107.855 156.892 107.739 156.892 107.631 156.928C107.317 157.798 107.317 158.75 107.631 159.62C107.647 159.631 107.719 159.628 108.039 159.696H108.028Z" fill="#26282B"/>
<path d="M30.0136 45.3084C30.1659 45.7153 30.1659 46.1635 30.0136 46.5704C25.4398 46.1129 20.866 45.6528 16.2922 45.1902C15.9223 45.1291 15.5432 45.1578 15.1868 45.2741C13.2796 45.909 11.2558 46.1147 9.25991 45.8765C9.03885 45.8574 7.87633 46.029 8.49761 44.9615C8.6272 44.7365 8.20413 44.5345 7.90683 44.4963C7.10641 44.4048 6.30981 44.2866 5.50558 44.2371C4.93004 44.2028 4.78901 43.9054 4.80807 43.4021C4.82712 42.8989 5.13586 42.7693 5.57037 42.8112C6.23357 42.8798 6.89297 42.9484 7.55618 43.0323C7.90684 43.0742 8.27654 43.059 8.42519 42.7197C8.65769 42.1783 7.88015 42.3651 7.81154 41.9572C8.955 41.9572 10.0985 41.7475 11.1314 42.0106C12.4385 42.3012 13.7028 42.7586 14.8933 43.3716C16.1054 44.0579 17.3365 43.974 18.541 44.1341C22.3525 44.6298 26.1869 44.9348 30.0136 45.3084Z" fill="#26282B"/>
<path d="M30.2461 18.468C30.1446 18.8335 30.1606 19.2216 30.2918 19.5775C29.3504 18.9751 28.3861 19.6423 27.3494 19.486C23.8943 18.9646 20.4102 18.6577 16.9172 18.5672C14.7904 18.5138 12.6483 18.9865 10.5215 19.2839C9.88499 19.3754 9.11507 19.5165 8.8597 18.9446C8.24985 17.5797 7.11402 17.7055 5.99724 17.6407C5.7121 17.6422 5.4271 17.6281 5.14347 17.5988C4.67846 17.5225 4.54507 17.2175 4.57937 16.7676C4.57498 16.6842 4.58997 16.6008 4.62318 16.5241C4.65639 16.4473 4.70691 16.3794 4.77078 16.3254C4.83466 16.2715 4.91016 16.2331 4.99135 16.2133C5.07254 16.1934 5.15722 16.1926 5.23876 16.211C5.75785 16.2805 6.28199 16.3047 6.80528 16.2835C7.32365 16.2148 8.35276 16.8973 8.19268 15.5209C8.4754 15.4005 8.77755 15.332 9.08459 15.3189C11.2358 15.3297 13.3513 15.8705 15.244 16.8935C16.0673 17.3319 17.1802 17.248 18.1712 17.3433C22.2038 17.7284 26.225 18.0944 30.2461 18.468Z" fill="#26282B"/>
<path d="M110.006 141.453C109.244 141.072 108.55 141.453 107.852 141.636C102.402 143.123 96.954 144.627 91.5086 146.146C89.7858 146.631 87.9601 146.638 86.2792 147.34C86.1481 147.399 86.0058 147.43 85.862 147.429C85.7181 147.429 85.576 147.398 85.4453 147.338C85.3145 147.278 85.1981 147.19 85.104 147.081C85.0098 146.973 84.94 146.845 84.8994 146.707C84.7355 145.975 85.4102 145.979 85.9514 145.99C88.7033 146.04 91.2418 145.052 93.8336 144.336C100.377 142.526 106.919 140.697 113.459 138.849C113.73 139.841 113.223 140.329 112.358 140.645C111.576 140.931 110.677 140.858 110.006 141.453Z" fill="#D9D9D9"/>
<path d="M23.4387 133.153C23.4654 133.996 22.9737 134.777 23.1529 135.643C23.2367 136.058 22.9089 136.142 22.6383 136.081C20.7935 135.662 18.7734 136.119 17.0697 134.983C17.1916 134.789 17.2755 134.461 17.4508 134.419C19.3947 133.901 21.35 133.424 23.3015 132.951C23.3168 132.944 23.3854 133.081 23.4387 133.153Z" fill="#D9D9D9"/>
<path d="M113.753 137.751C112.651 137.987 111.563 138.282 110.494 138.636C109.167 139.143 108.458 138.75 108.134 137.423C108.024 136.97 107.849 136.531 107.704 136.089C109.426 136.15 111.136 136.393 112.807 136.813C113.269 136.928 113.89 136.985 113.753 137.751Z" fill="#D9D9D9"/>
<path d="M19.1889 165.179C18.5257 164.889 19.0746 164.416 19.0669 164.069C18.9717 159.266 18.7125 154.45 18.9488 149.662C19.1088 146.463 19.2766 143.272 19.2766 140.069C19.2766 139.307 19.2766 138.544 18.621 137.976C18.4624 137.826 18.3529 137.631 18.3067 137.418C18.2605 137.204 18.2797 136.982 18.3618 136.779C18.5714 136.276 19.1241 136.493 19.5053 136.573C24.1248 137.549 28.8397 137.873 33.4859 138.708C37.1869 139.375 41.006 139.551 44.7223 140.233C49.8183 141.179 54.979 141.613 60.0865 142.475C66.9472 143.619 73.8537 144.439 80.7411 145.399C81.1656 145.455 81.5867 145.534 82.0027 145.636C82.8069 145.845 82.8488 146.673 82.441 146.928C81.3471 147.626 81.8235 148.548 81.7549 149.433C81.5758 151.675 82.1361 153.939 81.45 156.193C81.3395 156.555 82.178 157.245 82.1666 158.076C82.1018 163.356 82.1246 168.641 82.1056 173.921C82.1056 174.42 82.2809 174.996 81.7244 175.347C81.6406 175.282 81.5567 175.217 81.4691 175.156C81.3967 174.523 80.8821 174.657 80.4819 174.596C76.6399 174.02 72.7636 173.589 68.9559 172.831C63.4177 171.725 57.8072 171.103 52.2462 170.143C43.9333 168.705 35.586 167.474 27.2426 166.223C24.5479 165.835 21.9141 165.137 19.1889 165.179Z" fill="#D9D9D9"/>
<path d="M19.1889 165.179C21.9142 165.137 24.5479 165.835 27.1931 166.231C35.5365 167.47 43.8837 168.713 52.1967 170.15C57.7577 171.111 63.3682 171.733 68.9063 172.838C72.7178 173.601 76.5904 174.028 80.4324 174.603C80.8135 174.664 81.3471 174.531 81.4195 175.164C78.6371 175.354 75.9614 174.588 73.2515 174.169C63.8789 172.72 54.5179 171.203 45.1492 169.704C37.1729 168.433 29.1967 167.151 21.2205 165.857C20.664 165.77 20.077 165.739 19.532 165.682L19.1889 165.179Z" fill="#FEFEFE"/>
<path d="M95.6403 134.213C96.8333 134.095 97.9729 134.526 99.1507 134.552C99.1507 134.789 99.1087 135.021 99.1126 135.258C99.1545 137.027 98.1483 138.022 96.4064 137.98C95.9223 137.98 95.8728 137.702 95.8499 137.343C95.7813 136.299 95.7114 135.255 95.6403 134.213Z" fill="#D9D9D9"/>
<path d="M96.0824 167.443C95.4916 168.13 94.7636 168.206 94.1347 167.634C93.3991 166.974 92.6558 167.016 91.8211 167.253C89.5342 167.893 87.8381 166.685 87.7199 164.332C87.6704 163.429 87.6932 162.525 87.7199 161.622C87.7428 160.928 87.6437 160.314 87.0758 159.826C86.7991 159.59 86.6134 159.264 86.5508 158.906C86.4882 158.547 86.5525 158.178 86.7327 157.862C87.1139 157.073 87.8762 156.486 88.8062 156.619C90.5862 156.871 92.3166 157.382 94.1423 157.485C94.2831 157.509 94.4175 157.561 94.5372 157.639C94.6569 157.717 94.7593 157.818 94.8383 157.937C94.9172 158.056 94.971 158.19 94.9961 158.331C95.0213 158.471 95.0174 158.616 94.9847 158.755C94.8589 159.357 95.5373 160.28 94.4091 160.562C94.2948 160.039 94.5349 159.46 94.028 158.633C93.9556 161.229 93.845 163.49 94.2224 165.709C94.3481 166.559 94.9046 167.474 96.0824 167.443ZM93.4486 158.861L93.563 158.796L93.4677 158.88L93.4448 158.987L93.4486 158.861ZM93.38 166.429C93.723 164.744 93.037 163.379 93.1894 161.946C93.2809 161.034 94.0356 159.387 91.8173 159.906C91.7525 159.906 91.6648 159.799 91.581 159.757C91.332 159.623 91.0588 159.54 90.7773 159.513C90.4958 159.487 90.2118 159.516 89.942 159.601C89.9073 159.652 89.8849 159.711 89.8763 159.772C89.8677 159.834 89.8732 159.896 89.8925 159.955C90.303 160.346 90.8509 160.558 91.4171 160.546C91.4666 160.546 91.5124 160.546 91.5581 160.546C92.2404 160.516 92.3204 160.695 92.4081 161.48C92.5872 163.047 92.1756 164.775 93.38 166.429ZM91.8211 162.918C91.5657 162.304 92.3318 161.29 90.9521 161.206C90.083 161.156 90.0221 161.587 90.064 162.235C90.125 163.162 89.9725 164.393 91.2074 164.47C92.2365 164.531 91.5009 163.41 91.8211 162.918Z" fill="#26282B"/>
<path d="M96.0824 167.443C94.8971 167.474 94.3482 166.559 94.1996 165.705C93.8184 163.486 93.9327 161.225 94.0052 158.629C94.5235 159.456 94.2834 160.035 94.3863 160.558C94.232 161.537 94.232 162.534 94.3863 163.513C94.5464 166.101 95.1486 166.524 97.5765 165.8C99.9435 165.079 102.31 164.347 104.681 163.642C105.857 163.36 106.986 162.908 108.032 162.3C108.07 162.975 107.38 163.208 107.17 163.734L106.884 164.046C103.591 165.015 100.302 165.987 97.0086 166.94C96.6847 167.035 96.6275 167.321 96.4331 167.512C96.3454 167.321 96.2158 167.356 96.0824 167.443Z" fill="#FEFEFE"/>
<path d="M96.4559 167.478C96.6503 167.291 96.7075 167.001 97.0314 166.906C100.325 165.953 103.614 165 106.907 164.012C106.93 164.393 106.659 164.531 106.404 164.607C103.092 165.587 99.8596 166.837 96.4559 167.478Z" fill="#26282B"/>
<path d="M108.009 162.323C107.814 161.854 108.287 161.587 108.352 161.179C108.782 161.728 108.428 162.033 108.009 162.323Z" fill="#FEFEFE"/>
<path d="M106.888 164.027L107.174 163.715C107.456 164.165 107.102 164.039 106.888 164.027Z" fill="#26282B"/>
<path d="M103.549 162.567C104.769 160.966 104.853 159.277 104.693 157.58C104.616 156.661 105.242 156.551 105.794 156.437C106.556 156.299 106.602 156.902 106.595 157.454C106.595 158.598 106.644 159.742 106.248 160.829C105.836 162.03 105.009 162.518 103.549 162.567Z" fill="#D9D9D9"/>
<path d="M108.039 159.696C107.719 159.628 107.658 159.631 107.639 159.609C107.325 158.739 107.325 157.787 107.639 156.917C107.747 156.881 107.863 156.881 107.971 156.917C108.268 157.84 108.081 158.739 108.039 159.696Z" fill="#D9D9D9"/>
<path d="M93.3801 166.429C92.1756 164.775 92.5872 163.048 92.4157 161.473C92.3319 160.688 92.248 160.508 91.5658 160.539C91.52 160.539 91.4743 160.539 91.4247 160.539C90.8586 160.55 90.3107 160.338 89.9001 159.948C89.8809 159.889 89.8754 159.826 89.8839 159.765C89.8925 159.703 89.915 159.645 89.9497 159.593C90.2195 159.509 90.5035 159.479 90.785 159.506C91.0664 159.533 91.3397 159.616 91.5886 159.75C91.6725 159.792 91.7602 159.914 91.8249 159.898C94.0433 159.38 93.2886 161.042 93.1971 161.938C93.037 163.383 93.7231 164.744 93.3801 166.429Z" fill="#D9D9D9"/>
<path d="M91.8211 162.918C91.501 163.41 92.229 164.531 91.2151 164.47C89.9726 164.393 90.125 163.162 90.0717 162.235C90.0297 161.599 90.0907 161.156 90.9598 161.206C92.3319 161.29 91.5658 162.323 91.8211 162.918Z" fill="#D9D9D9"/>
<path d="M93.4639 158.892L93.5632 158.812L93.4487 158.877L93.4639 158.892Z" fill="#D9D9D9"/>
<path d="M93.4487 158.861V158.988L93.4717 158.877L93.4487 158.861Z" fill="#D9D9D9"/>
<path d="M29.724 1.04862C29.724 0.47771 30.2011 0.0226611 30.7714 0.0497434L92.9954 3.0048C93.5287 3.03013 93.948 3.46983 93.948 4.00368V62.1592C93.948 62.7594 93.423 63.2244 92.8272 63.1519L30.6032 55.5796C30.1013 55.5185 29.724 55.0925 29.724 54.5869V1.04862Z" fill="#D9D9D9"/>
</g>
<defs>
<filter id="filter0_d_1416_41" x="0" y="0.048584" width="133" height="193.958" filterUnits="userSpaceOnUse" color-interpolation-filters="sRGB">
<feFlood flood-opacity="0" result="BackgroundImageFix"/>
<feColorMatrix in="SourceAlpha" type="matrix" values="0 0 0 0 0 0 0 0 0 0 0 0 0 0 0 0 0 0 127 0" result="hardAlpha"/>
<feOffset dy="4"/>
<feGaussianBlur stdDeviation="2"/>
<feComposite in2="hardAlpha" operator="out"/>
<feColorMatrix type="matrix" values="0 0 0 0 0 0 0 0 0 0 0 0 0 0 0 0 0 0 0.25 0"/>
<feBlend mode="normal" in2="BackgroundImageFix" result="effect1_dropShadow_1416_41"/>
<feBlend mode="normal" in="SourceGraphic" in2="effect1_dropShadow_1416_41" result="shape"/>
</filter>
</defs>
</svg>
