<svg width="25" height="25" viewBox="0 0 25 25" fill="none" xmlns="http://www.w3.org/2000/svg">
<path d="M3.17001 3.765H5.17001V16.765H19.17L22.17 6.765H9.17001" stroke="#3E3E3F" stroke-width="2" stroke-linecap="round" stroke-linejoin="round"/>
<path d="M6.17001 22.765C6.7223 22.765 7.17001 22.3173 7.17001 21.765C7.17001 21.2127 6.7223 20.765 6.17001 20.765C5.61773 20.765 5.17001 21.2127 5.17001 21.765C5.17001 22.3173 5.61773 22.765 6.17001 22.765Z" stroke="#3E3E3F" stroke-width="2" stroke-linecap="round" stroke-linejoin="round"/>
<path d="M18.17 22.765C18.7223 22.765 19.17 22.3173 19.17 21.765C19.17 21.2127 18.7223 20.765 18.17 20.765C17.6177 20.765 17.17 21.2127 17.17 21.765C17.17 22.3173 17.6177 22.765 18.17 22.765Z" stroke="#3E3E3F" stroke-width="2" stroke-linecap="round" stroke-linejoin="round"/>
</svg>
