<svg width="21" height="20" viewBox="0 0 21 20" fill="none" xmlns="http://www.w3.org/2000/svg">
<g clip-path="url(#clip0_4_1148)">
<path d="M16.7293 14.1667C16.7293 15.3173 15.7965 16.25 14.646 16.25C13.4954 16.25 12.5626 15.3173 12.5626 14.1667C12.5626 13.4851 12.89 12.88 13.396 12.4999C13.7441 12.2384 14.177 12.0834 14.646 12.0834C15.7965 12.0834 16.7293 13.0161 16.7293 14.1667Z" stroke="white" stroke-width="1.66667" stroke-linecap="round" stroke-linejoin="round"/>
<path d="M7.56263 14.1667C7.56263 15.3173 6.62989 16.25 5.4793 16.25C4.32871 16.25 3.39597 15.3173 3.39597 14.1667C3.39597 14.024 3.41032 13.8847 3.43764 13.75C3.63067 12.7991 4.4714 12.0834 5.4793 12.0834C6.62989 12.0834 7.56263 13.0161 7.56263 14.1667Z" stroke="white" stroke-width="1.66667" stroke-linecap="round" stroke-linejoin="round"/>
<path d="M0.895966 9.58337H13.396" stroke="white" stroke-width="1.66667" stroke-linecap="round" stroke-linejoin="round"/>
<path d="M13.396 7.91669H19.2293V13.75H16.7293" stroke="white" stroke-width="1.66667" stroke-linecap="round" stroke-linejoin="round"/>
<path d="M18.396 7.91671L17.5626 4.58337H13.396" stroke="white" stroke-width="1.66667" stroke-linecap="round" stroke-linejoin="round"/>
<path d="M13.396 12.4998V3.75H0.895966V13.75H3.43764" stroke="white" stroke-width="1.66667" stroke-linecap="round" stroke-linejoin="round"/>
<path d="M7.56262 13.75H12.5626" stroke="white" stroke-width="1.66667" stroke-linecap="round" stroke-linejoin="round"/>
</g>
<defs>
<clipPath id="clip0_4_1148">
<rect width="20" height="14.1667" fill="white" transform="translate(0.0626221 2.91669)"/>
</clipPath>
</defs>
</svg>
