<svg width="263" height="60" viewBox="0 0 263 60" fill="none" xmlns="http://www.w3.org/2000/svg">
<path d="M255.395 1.18235C251.593 1.18235 248.474 4.30168 248.474 8.10336C248.474 11.905 251.593 15.0244 255.395 15.0244C259.197 15.0244 262.316 11.905 262.316 8.10336C262.316 4.39916 259.197 1.18235 255.395 1.18235ZM255.395 15.7067C251.203 15.7067 247.792 12.295 247.792 8.10336C247.792 4.00924 251.203 0.5 255.395 0.5C259.587 0.5 262.998 3.91177 262.998 8.10336C262.998 12.295 259.587 15.7067 255.395 15.7067Z" fill="black"/>
<path d="M253.446 7.71347H255.59C256.077 7.71347 256.37 7.61599 256.662 7.61599C256.955 7.51851 257.15 7.32356 257.247 7.1286C257.345 6.93364 257.442 6.6412 257.442 6.44624C257.442 6.15381 257.345 5.76389 257.052 5.56893C256.76 5.37398 256.37 5.2765 255.785 5.2765H253.446V7.71347ZM252.373 11.9051V4.39919H255.688C256.37 4.39919 256.857 4.49666 257.247 4.59414C257.54 4.69162 257.832 4.98406 258.124 5.2765C258.319 5.56893 258.417 5.95885 258.417 6.34877C258.417 6.83616 258.222 7.32356 257.93 7.61599C257.637 8.00591 257.052 8.20087 256.37 8.29835C256.662 8.39582 256.857 8.59078 256.955 8.68826C257.247 8.9807 257.54 9.27314 257.832 9.66305L259.099 11.7101H257.832L256.857 10.1504C256.565 9.66305 256.37 9.37061 256.175 9.07818C255.98 8.78574 255.882 8.68826 255.688 8.59078C255.59 8.4933 255.395 8.4933 255.2 8.39582C255.103 8.39582 254.908 8.29835 254.713 8.29835H253.64V11.7101H252.373V11.9051Z" fill="black"/>
<path d="M64.6286 36.8597C63.1664 37.737 61.7042 38.4194 60.1446 38.9067C58.5849 39.3941 56.9278 39.5891 55.2706 39.5891C53.0286 39.5891 51.3714 39.1017 50.2017 38.2244C49.032 37.3471 48.5446 36.2748 48.5446 34.9101C48.5446 33.058 49.7143 31.4009 51.9563 29.9387C54.1983 28.4765 58.2925 26.9168 64.1412 25.1622V23.3101C64.1412 21.9454 63.7513 21.0681 63.0689 20.6782C62.2891 20.2883 61.4118 20.0933 60.437 20.0933C58 20.0933 56.6353 20.8731 56.3429 22.4328C56.1479 23.5051 55.758 24.2849 55.1731 24.7723C54.5883 25.2597 53.7109 25.5521 52.4437 25.5521C51.3714 25.5521 50.4941 25.2597 49.8118 24.7723C49.1294 24.2849 48.837 23.6025 48.837 22.9202C48.837 21.3605 50.0067 19.9958 52.4437 18.8261C54.8807 17.7538 58 17.1689 62.0941 17.1689C64.3362 17.1689 66.1883 17.2664 67.7479 17.5588C69.3076 17.7538 70.4773 18.2412 71.3546 18.9236C72.232 19.6059 72.9143 20.2883 73.2067 20.9706C73.4992 21.653 73.6941 22.6278 73.6941 23.895V33.6429C73.6941 35.1051 74.1815 35.8849 75.2538 35.8849C76.1311 35.8849 76.716 35.3975 76.9109 34.4227H79.3479C79.2504 36.1773 78.5681 37.4446 77.1059 38.3219C75.6437 39.1992 73.9866 39.5891 72.037 39.5891C68.3328 39.5891 65.8958 38.6143 64.6286 36.8597ZM64.1412 34.1303V28.1841C61.4118 29.1588 59.6572 30.0362 58.7799 30.9135C58 31.6933 57.5126 32.5706 57.5126 33.3504C57.5126 34.0328 57.8051 34.6177 58.2925 35.1051C58.7799 35.5925 59.4622 35.8849 60.242 35.8849C60.9244 35.8849 61.6067 35.7874 62.2891 35.495C62.874 35.1051 63.4588 34.6177 64.1412 34.1303Z" fill="#1D1D1B"/>
<path d="M93.7748 30.7185V32.9605C93.7748 34.1303 93.9698 35.0076 94.3597 35.495C94.7496 35.9824 95.6269 36.2748 96.8941 36.2748V39.1017H80.3227V36.3723C81.9798 36.3723 83.1496 36.1773 83.637 35.6899C84.1244 35.2025 84.4168 34.3252 84.4168 32.9605V11.7101C84.4168 10.4429 84.2219 9.56555 83.7345 9.07816C83.2471 8.59076 82.1748 8.29833 80.4202 8.29833V5.56891L93.8723 3.71681V27.3067L100.111 23.4076C101.281 22.6277 101.866 22.0429 101.866 21.653C101.866 21.458 101.768 21.263 101.573 21.0681C101.378 20.8731 100.696 20.8731 99.5261 20.8731V18.1437H112.881V20.8731C110.736 20.8731 108.299 21.7504 105.57 23.4076L103.328 24.8698L109.371 31.9857C110.834 33.7404 111.906 34.9101 112.686 35.495C113.466 36.0798 114.245 36.3723 114.928 36.3723V39.1017H99.4286V36.3723C100.696 36.3723 101.281 36.0798 101.281 35.3975C101.281 35.1051 100.988 34.6177 100.306 33.8378L96.3093 29.1588L93.7748 30.7185Z" fill="#1D1D1B"/>
<path d="M126.625 28.2816C126.625 31.1085 127.21 33.1555 128.282 34.6177C129.355 36.0799 131.012 36.7623 133.156 36.7623C135.496 36.7623 137.543 35.7875 139.492 33.7404L142.222 35.2026C141.15 36.5673 139.492 37.737 137.445 38.7118C135.398 39.5892 133.059 40.0765 130.524 40.0765C126.625 40.0765 123.408 39.0043 120.582 36.9572C117.852 34.9102 116.487 32.0833 116.487 28.6715C116.487 25.2597 117.852 22.4328 120.484 20.3858C123.116 18.3387 126.333 17.3639 130.134 17.3639C133.936 17.3639 136.958 18.2412 139.395 20.0933C141.832 21.9455 143.002 24.6749 143.002 28.3791L126.625 28.2816ZM126.625 25.7471H134.034C133.936 21.9454 132.669 20.0933 130.232 20.0933C129.062 20.0933 128.087 20.5807 127.503 21.4581C126.918 22.4328 126.625 23.895 126.625 25.7471Z" fill="#1D1D1B"/>
<path d="M159.183 20.8732V31.7908C159.183 33.6429 159.281 34.8127 159.573 35.3975C159.866 35.9824 160.45 36.2748 161.23 36.2748C162.498 36.2748 163.57 35.5925 164.35 34.1303L167.176 35.0076C165.714 38.2244 162.498 39.8816 157.721 39.8816C155.089 39.8816 153.042 39.2967 151.677 38.2244C150.313 37.0547 149.63 35.3975 149.63 33.1555V20.8732H146.121V18.1437H146.901C149.24 18.1437 151.287 17.4614 152.945 16.1942C154.602 14.9269 155.674 13.1723 155.966 11.2227H159.086V18.1437H166.299V20.8732H159.183Z" fill="#1D1D1B"/>
<path d="M171.563 35.3C171.563 34.0328 172.05 32.9605 173.123 32.0832C174.195 31.2059 175.365 30.7185 176.827 30.7185C178.289 30.7185 179.556 31.2059 180.531 32.0832C181.603 32.9605 182.091 34.1303 182.091 35.3C182.091 36.5673 181.603 37.6395 180.531 38.6143C179.459 39.4916 178.289 39.979 176.827 39.979C175.365 39.979 174.098 39.4916 173.123 38.6143C172.148 37.737 171.563 36.5673 171.563 35.3Z" fill="#1D1D1B"/>
<path d="M205.876 36.8597C204.413 37.737 202.951 38.4194 201.392 38.9067C199.832 39.3941 198.175 39.5891 196.518 39.5891C194.276 39.5891 192.619 39.1017 191.449 38.2244C190.279 37.3471 189.792 36.2748 189.792 34.9101C189.792 33.058 190.961 31.4009 193.203 29.9387C195.445 28.4765 199.54 26.9168 205.388 25.1622V23.3101C205.388 21.9454 204.998 21.0681 204.316 20.6782C203.536 20.2883 202.659 20.0933 201.684 20.0933C199.247 20.0933 197.882 20.8731 197.59 22.4328C197.395 23.5051 197.005 24.2849 196.42 24.7723C195.835 25.2597 194.958 25.5521 193.691 25.5521C192.619 25.5521 191.741 25.2597 191.059 24.7723C190.377 24.2849 190.084 23.6025 190.084 22.9202C190.084 21.3605 191.254 19.9958 193.691 18.8261C196.128 17.7538 199.247 17.1689 203.341 17.1689C205.583 17.1689 207.435 17.2664 208.995 17.5588C210.555 17.7538 211.724 18.2412 212.602 18.9236C213.479 19.6059 214.161 20.2883 214.454 20.9706C214.746 21.653 214.941 22.6278 214.941 23.895V33.6429C214.941 35.1051 215.429 35.8849 216.501 35.8849C217.378 35.8849 217.963 35.3975 218.158 34.4227H220.595C220.498 36.1773 219.815 37.4446 218.353 38.3219C216.891 39.1992 215.234 39.5891 213.284 39.5891C209.58 39.5891 207.143 38.6143 205.876 36.8597ZM205.388 34.1303V28.1841C202.659 29.1588 200.904 30.0362 200.027 30.9135C199.247 31.6933 198.76 32.5706 198.76 33.3504C198.76 34.0328 199.052 34.6177 199.54 35.1051C200.027 35.5925 200.709 35.8849 201.489 35.8849C202.171 35.8849 202.854 35.7874 203.536 35.495C204.219 35.2025 204.706 34.6177 205.388 34.1303Z" fill="#E20613"/>
<path d="M230.635 31.5959C228.491 31.1085 226.834 30.2312 225.664 28.8665C224.494 27.5992 223.909 26.137 223.909 24.6749C223.909 22.2379 225.079 20.4833 227.516 19.216C229.856 17.9488 232.975 17.3639 236.679 17.3639C238.726 17.3639 240.578 17.5589 242.138 17.9488C243.698 18.3387 244.965 18.9236 246.037 19.606C248.084 18.1438 249.839 17.3639 251.203 17.3639C253.153 17.3639 254.128 18.1438 254.128 19.8009C254.128 21.1656 253.445 21.9454 252.081 21.9454C251.593 21.9454 250.911 21.653 250.034 20.9707C249.741 20.7757 249.351 20.5807 249.059 20.5807C248.669 20.5807 248.182 20.7757 247.694 21.1656C248.474 22.2379 248.766 23.4076 248.766 24.6749C248.766 26.7219 247.792 28.4765 245.94 29.9387C244.087 31.4009 240.676 32.1807 235.802 32.3757C233.755 32.4732 232.39 32.6681 231.61 32.9606C230.83 33.253 230.44 33.7404 230.44 34.4228C230.44 35.3001 231.708 35.7875 234.242 35.7875C234.827 35.7875 236.094 35.7875 238.044 35.69C238.726 35.69 239.408 35.69 240.091 35.69C244.38 35.69 247.402 36.2749 249.351 37.4446C251.203 38.6144 252.178 40.4665 252.178 43.0984C252.178 45.7303 250.911 47.9723 248.279 49.6295C245.647 51.2866 241.65 52.1639 236.289 52.1639C231.22 52.1639 227.711 51.5791 225.859 50.5068C224.007 49.3371 223.129 48.0698 223.129 46.7051C223.129 45.8278 223.422 45.048 224.104 44.5606C224.787 43.9757 225.566 43.6833 226.444 43.6833C227.126 43.6833 228.003 43.8782 228.881 44.2681C228.783 44.5606 228.588 44.853 228.588 45.1455C228.491 45.4379 228.491 45.7303 228.491 45.9253C228.491 47.095 229.173 47.9723 230.538 48.6547C231.903 49.2396 233.95 49.532 236.679 49.532C240.091 49.532 242.625 49.1421 244.282 48.2648C245.94 47.3875 246.817 46.4127 246.817 45.2429C246.817 44.0732 246.232 43.3908 245.062 43.0984C243.893 42.806 241.261 42.611 237.166 42.611C232.682 42.611 229.368 42.2211 227.419 41.3438C225.469 40.4665 224.494 39.1018 224.494 37.1522C224.494 35.7875 224.982 34.6177 226.054 33.7404C227.126 32.6681 228.588 31.9858 230.635 31.5959ZM232.975 24.4799C232.975 26.137 233.267 27.3068 233.852 28.1841C234.437 28.9639 235.314 29.4513 236.484 29.4513C237.654 29.4513 238.434 29.0614 239.019 28.1841C239.603 27.3068 239.896 26.0396 239.896 24.3824C239.896 22.9202 239.506 21.848 238.824 21.1656C238.141 20.4833 237.361 20.1908 236.387 20.1908C235.217 20.1908 234.34 20.5807 233.755 21.2631C233.267 21.9455 232.975 23.0177 232.975 24.4799Z" fill="#E20613"/>
<path d="M24.4672 4.20423V16.0967L23.6874 16.3891L23.395 16.5841V4.20423L0 13.6597L20.8605 23.7L23.6874 22.4328L44.6454 13.6597L24.4672 4.20423Z" fill="#E20613"/>
<path d="M21.153 23.7L44.5479 13.8547V36.7622L21.153 46.3152V23.7Z" fill="#1D1D1B"/>
<path d="M0 13.4647V35.6899L21.1529 46.8025V23.6025L0 13.4647Z" fill="#1D1D1B"/>
<path d="M19.7883 24.8698C19.7883 24.8698 20.2757 22.7252 21.8353 22.2378C23.4925 21.653 24.9547 21.458 25.832 21.8479C26.7093 22.2378 27.0992 22.6277 27.0992 23.0177C27.0992 23.4076 27.3916 24.3824 26.4168 24.5773C25.4421 24.7723 23.2975 25.8445 22.5177 25.6496C21.6404 25.3572 19.7883 24.8698 19.7883 24.8698Z" fill="#1D1D1B"/>
<path d="M5.55635 51.2865V47.1924C7.50593 47.1924 7.99332 46.9 8.18828 46.8025C8.38324 46.6075 8.67567 46.1202 8.87063 44.658V24.8697C8.77315 23.4075 8.38324 22.9201 8.18828 22.7252C8.0908 22.6277 5.55635 22.3353 5.55635 22.3353H4.3866V18.4361L17.9362 16.3891L18.1311 16.9739C18.4236 17.7538 18.5211 18.5336 18.6185 19.3134C19.6908 18.5336 20.7631 17.9487 21.8353 17.4613C23.395 16.779 25.1496 16.4865 26.9043 16.4865C29.6337 16.4865 32.2656 17.3638 34.3127 19.021C37.1395 21.1655 38.6017 24.1874 38.6017 27.8916C38.6017 31.4008 37.3345 34.2277 34.995 36.4697C32.558 38.7117 29.6337 39.784 26.4169 39.784C24.8572 39.784 23.395 39.4916 21.9328 39.0042C20.958 38.6143 19.9832 38.2244 18.911 37.542V44.3655C18.911 45.7302 19.2034 46.2176 19.3984 46.5101C19.4958 46.6075 20.0807 46.9975 21.8353 46.9975H24.4673V51.0916L5.55635 51.2865ZM19.9832 33.058C20.6656 33.6428 21.2505 34.0328 21.9328 34.3252C22.7127 34.6176 23.4925 34.8126 24.2723 34.8126C25.7345 34.8126 26.8068 34.3252 27.4891 33.3504C28.269 32.2781 28.6589 30.621 28.6589 28.379C28.6589 26.0395 28.269 24.1874 27.5866 23.1151C26.9043 22.1403 25.9295 21.5554 24.6622 21.5554C23.6874 21.5554 22.8101 21.8479 21.9328 22.4328C21.0555 23.0176 20.3732 23.6025 19.9832 24.2849V33.058Z" fill="#E20613"/>
<path d="M27.684 17.0714C30.7059 17.0714 33.3378 18.0462 35.5798 20.0933C37.8218 22.0429 38.8941 24.6748 38.8941 27.8916C38.8941 31.2059 37.7244 33.9353 35.3849 36.0799C33.0454 38.2244 30.316 39.1992 27.1966 39.1992C25.7344 39.1992 24.2723 39.0042 22.9075 38.5168C21.5428 38.0294 20.1781 37.3471 18.9109 36.3723V44.5605C18.9109 44.5605 18.9109 46.7051 19.3983 47.095C19.8857 47.5824 20.8605 47.7773 22.4202 47.095H23.3949V50.2143H5.55628V47.7773C7.21343 47.7773 8.28569 47.5824 8.77309 47.095C9.26048 46.6076 9.55292 45.7303 10.0403 44.463V24.8698C9.55292 23.6025 9.26048 22.7252 8.87057 22.2378C8.38317 21.7504 5.55628 21.5555 5.55628 21.5555V18.9235L17.9361 17.0714C18.326 18.2412 18.521 19.4109 18.521 20.6782C19.8857 19.5084 21.2504 18.5336 22.8101 17.9488C24.2723 17.3639 25.8319 17.0714 27.4891 17.0714M23.9798 35.3975C25.7344 35.3975 27.0017 34.8126 27.879 33.6429C28.7563 32.4731 29.1462 30.621 29.1462 28.2815C29.1462 25.7471 28.7563 23.895 27.9765 22.6278C27.1966 21.3605 25.9294 20.7756 24.3697 20.7756C23.2975 20.7756 22.2252 21.0681 21.1529 21.7504C20.0807 22.4328 19.3983 23.2126 18.9109 23.9925V33.253C19.6907 33.9353 20.4706 34.5202 21.3479 34.8126C22.2252 35.3 23.1025 35.3975 23.9798 35.3975ZM18.8134 15.2193L17.4487 15.4143L4.67897 17.1689L3.41174 17.3639V18.9235V21.5555V22.3353H5.65376C7.21342 22.9202 7.70082 23.1151 7.70082 23.1151C7.7983 23.2126 7.99326 23.6025 7.7983 24.8698V44.463C7.99326 45.7303 7.7983 46.1202 7.70082 46.2177C7.60334 46.2177 5.55628 46.1202 5.55628 46.1202H4.38653V47.3874V49.9219V51.1891H5.9462H24.0773H25.637V49.9219V47.3874V46.1202H23.2975H22.3227C20.8605 46.1202 20.4706 45.9252 20.3731 45.8278C20.2756 45.7303 20.0807 45.3404 20.0807 44.0731V38.4193C20.763 38.7118 21.4454 39.0042 22.1277 39.2967C23.6874 39.8815 25.442 40.0765 27.0991 40.0765C30.8033 40.0765 34.0202 38.9067 36.6521 36.5672C39.284 34.2278 40.6487 31.2059 40.6487 27.5017C40.6487 22.9202 38.5042 19.3135 34.3126 16.974C33.0454 16.2916 31.6807 15.8042 30.316 15.6093C27.4891 15.1219 24.6622 15.4143 22.1277 16.3891C21.2504 16.6815 20.4706 17.1689 19.5933 17.6563C19.4958 17.2664 19.3983 16.779 19.2033 16.3891L18.8134 15.2193ZM19.9832 24.3824C20.3731 23.7975 20.8605 23.3101 21.6403 22.8227C22.4202 22.3353 23.1025 22.0429 23.8823 22.0429C24.9546 22.0429 25.637 22.4328 26.1244 23.2126C26.8067 24.2849 27.0991 25.942 27.0991 28.1841C27.0991 30.3286 26.7092 31.8883 26.0269 32.863C25.442 33.6429 24.6622 34.0328 23.3949 34.0328C22.7126 34.0328 22.0302 33.9353 21.4454 33.6429C20.958 33.4479 20.3731 33.058 19.8857 32.6681L19.9832 24.3824Z" fill="white"/>
<path d="M55.4527 48.842C55.9928 48.3745 56.2629 48.0099 56.2629 47.7481C56.2629 47.4302 55.9834 47.2713 55.4243 47.2713H55.3248V46.6543H59.5035V47.2713H59.404C59.1955 47.2713 58.9871 47.2994 58.7786 47.3554C58.5796 47.4115 58.3617 47.505 58.1248 47.6359C57.8879 47.7668 57.6226 47.9444 57.3289 48.1688C57.0446 48.3839 56.7177 48.655 56.3482 48.9822L55.1258 50.034L58.1959 53.7643C58.4422 54.0822 58.6649 54.3439 58.8639 54.5496C59.0629 54.7553 59.2524 54.9236 59.4324 55.0545C59.6219 55.176 59.8114 55.2648 60.0009 55.3209C60.1904 55.3677 60.3989 55.391 60.6263 55.391H60.7116V56.0081H55.1827V55.391H55.3106C56.0402 55.391 56.405 55.2508 56.405 54.9703C56.405 54.8207 56.2771 54.6104 56.0213 54.3393C55.9834 54.3019 55.9455 54.2645 55.9076 54.2271C55.8791 54.1897 55.8507 54.1476 55.8223 54.1009L55.7512 53.9887L53.534 51.3803L52.5817 52.1656V53.9186C52.5817 54.2084 52.6006 54.4468 52.6386 54.6338C52.6765 54.8207 52.7428 54.9703 52.8375 55.0825C52.9418 55.1947 53.0744 55.2742 53.2355 55.3209C53.3966 55.3677 53.6003 55.391 53.8467 55.391H53.9462V56.0081H49V55.391H49.2132C49.4596 55.391 49.6633 55.3677 49.8244 55.3209C49.9854 55.2742 50.1134 55.1947 50.2081 55.0825C50.3123 54.9703 50.3834 54.8207 50.4213 54.6338C50.4592 54.4374 50.4782 54.199 50.4782 53.9186V48.7017C50.4782 48.4493 50.4639 48.2436 50.4355 48.0847C50.4071 47.9257 50.355 47.7855 50.2792 47.664C50.1939 47.505 50.0707 47.4022 49.9096 47.3554C49.758 47.2994 49.5164 47.2713 49.1848 47.2713H49.0426V46.6543H54.0456V47.2713H53.8751C53.5435 47.2713 53.2971 47.2994 53.136 47.3554C52.9749 47.4022 52.8517 47.505 52.7665 47.664C52.7001 47.7855 52.6528 47.9257 52.6243 48.0847C52.5959 48.2436 52.5817 48.4493 52.5817 48.7017V51.254L55.4527 48.842Z" fill="#00A427"/>
<path d="M62.1373 50.665C62.2889 50.637 62.4453 50.609 62.6064 50.5809C62.7769 50.5529 62.9617 50.5201 63.1607 50.4827C63.3691 50.436 63.5965 50.3846 63.8429 50.3285C64.0987 50.2724 64.3925 50.2069 64.7241 50.1321C64.8473 50.4874 64.9231 50.9642 64.9515 51.5626C65.1884 51.1138 65.4964 50.7632 65.8754 50.5108C66.2544 50.2584 66.6571 50.1321 67.0835 50.1321C67.4151 50.1321 67.6947 50.235 67.9221 50.4407C68.1495 50.6464 68.2632 50.9035 68.2632 51.212C68.2632 51.4364 68.1826 51.628 68.0216 51.7869C67.8699 51.9365 67.6804 52.0113 67.453 52.0113C67.2919 52.0113 67.164 51.9833 67.0693 51.9272C66.9745 51.8617 66.8466 51.7309 66.6855 51.5345C66.5908 51.4317 66.5055 51.3569 66.4297 51.3101C66.3634 51.2634 66.2781 51.24 66.1739 51.24C65.8612 51.24 65.5864 51.441 65.3495 51.843C65.2832 51.9552 65.2263 52.0674 65.1789 52.1796C65.141 52.2825 65.1079 52.3993 65.0794 52.5302C65.0605 52.6517 65.0463 52.792 65.0368 52.9509C65.0273 53.1099 65.0226 53.2968 65.0226 53.5119V54.2551C65.0226 54.7039 65.0937 55.0124 65.2358 55.1807C65.3779 55.3396 65.6338 55.4191 66.0033 55.4191H66.1739V56.0081H62.1515V55.4191H62.251C62.6111 55.4191 62.8575 55.3396 62.9901 55.1807C63.1228 55.0124 63.1891 54.7039 63.1891 54.2551V52.418C63.1891 51.9786 63.118 51.6748 62.9759 51.5065C62.8433 51.3382 62.5969 51.254 62.2368 51.254H62.1373V50.665Z" fill="#00A427"/>
<path d="M74.5431 52.9088C74.4579 52.9462 74.3631 52.9836 74.2589 53.021C74.1641 53.0491 74.0552 53.0865 73.932 53.1332C73.4298 53.3015 73.0413 53.5072 72.7665 53.7503C72.4917 53.984 72.3543 54.2364 72.3543 54.5076C72.3543 54.7319 72.4349 54.9236 72.5959 55.0825C72.7665 55.2321 72.975 55.3069 73.2213 55.3069C73.6477 55.3069 74.1073 55.1059 74.6 54.7039V52.8808L74.5431 52.9088ZM77.869 54.8301C77.8501 55.2508 77.6937 55.578 77.4 55.8118C77.1157 56.0361 76.7225 56.1483 76.2203 56.1483C75.4528 56.1483 74.9411 55.8725 74.6853 55.3209C73.8514 55.8725 73.0271 56.1483 72.2122 56.1483C71.71 56.1483 71.3026 56.0315 70.9899 55.7977C70.6867 55.564 70.535 55.2648 70.535 54.9002C70.535 54.6384 70.6251 54.372 70.8051 54.1009C70.8714 54.0074 70.9804 53.9045 71.132 53.7923C71.2931 53.6708 71.4873 53.5539 71.7147 53.4417C71.9421 53.3202 72.1932 53.1987 72.468 53.0771C72.7523 52.9556 73.0508 52.8387 73.3635 52.7265C73.4677 52.6798 73.5719 52.6377 73.6761 52.6003C73.7898 52.5629 73.8988 52.5255 74.003 52.4881L74.6 52.2638V51.829C74.6 51.399 74.5147 51.1185 74.3442 50.9876C74.2494 50.9128 74.1215 50.8567 73.9604 50.8193C73.7993 50.7726 73.6335 50.7492 73.4629 50.7492C73.2829 50.7492 73.1124 50.7726 72.9513 50.8193C72.7902 50.8567 72.6718 50.9128 72.5959 50.9876C72.5107 51.053 72.4396 51.2166 72.3828 51.4784C72.288 51.9552 71.999 52.1936 71.5158 52.1936C71.2978 52.1936 71.1178 52.1375 70.9757 52.0254C70.8335 51.9132 70.7625 51.7636 70.7625 51.5766C70.7625 51.3709 70.843 51.1839 71.0041 51.0156C71.1652 50.838 71.3831 50.6837 71.6579 50.5529C71.9421 50.422 72.2738 50.3191 72.6528 50.2443C73.0318 50.1695 73.444 50.1321 73.8893 50.1321C74.998 50.1321 75.7513 50.3612 76.1492 50.8193C76.2155 50.8941 76.2677 50.9689 76.3056 51.0437C76.3435 51.1091 76.3719 51.1839 76.3908 51.2681C76.4193 51.3522 76.4382 51.4504 76.4477 51.5626C76.4572 51.6748 76.4619 51.815 76.4619 51.9833V54.4935C76.4619 54.7927 76.4903 55.0077 76.5472 55.1386C76.6135 55.2602 76.7272 55.3209 76.8883 55.3209C77.1441 55.3209 77.3005 55.1573 77.3573 54.8301H77.869Z" fill="#00A427"/>
<path d="M84.1735 50.9595H82.8517V54.2551C82.8517 54.7039 82.918 55.0124 83.0507 55.1807C83.1833 55.3396 83.4297 55.4191 83.7898 55.4191H84.1593V56.0081H79.7959V55.4191H79.9949C80.3644 55.4191 80.6155 55.3396 80.7482 55.1807C80.8808 55.0218 80.9471 54.7132 80.9471 54.2551V50.9595H79.7532V50.3565H80.9471V50.062C80.9471 49.7629 80.9519 49.5011 80.9614 49.2767C80.9803 49.0523 81.004 48.856 81.0324 48.6877C81.0703 48.5101 81.113 48.3511 81.1603 48.2109C81.2172 48.0613 81.2835 47.9211 81.3593 47.7902C81.5962 47.3788 81.9515 47.0609 82.4253 46.8366C82.9085 46.6122 83.4629 46.5 84.0882 46.5C84.7326 46.5 85.2537 46.6169 85.6517 46.8506C86.0591 47.075 86.2628 47.3695 86.2628 47.7341C86.2628 47.9585 86.1776 48.1501 86.007 48.3091C85.8364 48.468 85.628 48.5475 85.3816 48.5475C85.1542 48.5475 84.9647 48.4867 84.8131 48.3652C84.671 48.2343 84.5336 48.0146 84.4009 47.706C84.3156 47.491 84.2209 47.3414 84.1167 47.2573C84.0124 47.1638 83.8798 47.117 83.7187 47.117C83.4534 47.117 83.2449 47.2479 83.0933 47.5097C82.9986 47.678 82.9322 47.8837 82.8943 48.1268C82.8659 48.3698 82.8517 48.7438 82.8517 49.2487V49.9779V50.3565H84.1735V50.9595Z" fill="#00A427"/>
<path d="M89.3349 50.9736V54.0588C89.3349 54.4141 89.3443 54.6618 89.3633 54.8021C89.3822 54.9329 89.4201 55.0498 89.477 55.1526C89.5907 55.3396 89.7707 55.4331 90.0171 55.4331C90.1876 55.4331 90.3345 55.391 90.4577 55.3069C90.5809 55.2134 90.7041 55.0638 90.8272 54.8581L91.3815 55.0545C91.2205 55.4191 90.9552 55.7089 90.5856 55.9239C90.2161 56.1296 89.7897 56.2325 89.3064 56.2325C88.0557 56.2325 87.4303 55.564 87.4303 54.2271V50.9736H86.5491V50.3565C86.587 50.3659 86.6154 50.3705 86.6344 50.3705C86.6628 50.3705 86.6817 50.3705 86.6912 50.3705C86.9471 50.3705 87.1887 50.3238 87.4161 50.2303C87.6435 50.1368 87.8472 50.0106 88.0273 49.8517C88.2073 49.6834 88.3589 49.4871 88.4821 49.2627C88.6053 49.0383 88.6905 48.7905 88.7379 48.5194H89.3349V50.3565H91.1541V50.9736H89.3349Z" fill="#00A427"/>
<path d="M100.357 56.1624L98.5238 52.2497L96.7472 56.1624H95.7665L93.8904 51.9272L93.8477 51.815C93.6961 51.4691 93.5587 51.24 93.4356 51.1278C93.3124 51.0063 93.1371 50.9455 92.9097 50.9455H92.8244V50.3565H96.4345V50.9455H96.3635C95.8992 50.9455 95.667 51.039 95.667 51.226C95.667 51.254 95.667 51.2821 95.667 51.3101C95.6765 51.3382 95.686 51.3709 95.6954 51.4083C95.7144 51.4457 95.7333 51.5018 95.7523 51.5766C95.7807 51.642 95.8186 51.7309 95.866 51.843L96.9035 54.2691L98.7086 50.3565H99.6609L101.466 54.2691L102.504 51.7449C102.579 51.5766 102.622 51.4738 102.631 51.4364C102.641 51.3896 102.646 51.3429 102.646 51.2961C102.646 51.1933 102.579 51.1138 102.447 51.0577C102.323 50.9923 102.153 50.9549 101.935 50.9455H101.85V50.3565H104.166V50.9455H104.124C103.896 50.9642 103.716 51.0297 103.584 51.1419C103.461 51.2447 103.333 51.4551 103.2 51.7729C103.172 51.8477 103.143 51.9225 103.115 51.9973C103.086 52.0721 103.058 52.1422 103.029 52.2077L101.338 56.1624H100.357Z" fill="#00A427"/>
<path d="M110.41 52.2778C110.419 52.2591 110.424 52.2357 110.424 52.2077C110.424 51.7309 110.329 51.3662 110.14 51.1138C109.95 50.8614 109.69 50.7352 109.358 50.7352C109.188 50.7352 109.022 50.7726 108.861 50.8474C108.709 50.9222 108.595 51.0156 108.52 51.1278C108.425 51.2587 108.354 51.4036 108.306 51.5626C108.268 51.7215 108.235 51.9599 108.207 52.2778H110.41ZM112.215 54.8722C111.969 55.2929 111.594 55.6248 111.092 55.8679C110.59 56.1109 110.036 56.2325 109.429 56.2325C108.946 56.2325 108.501 56.1577 108.093 56.0081C107.695 55.8492 107.345 55.6341 107.041 55.363C106.748 55.0919 106.515 54.7693 106.345 54.3954C106.184 54.0214 106.103 53.6147 106.103 53.1753C106.103 52.7359 106.184 52.3292 106.345 51.9552C106.506 51.5813 106.733 51.2587 107.027 50.9876C107.321 50.7165 107.667 50.5061 108.065 50.3565C108.472 50.2069 108.913 50.1321 109.387 50.1321C109.822 50.1321 110.22 50.1976 110.58 50.3285C110.94 50.45 111.248 50.6277 111.504 50.8614C111.77 51.0858 111.973 51.3569 112.115 51.6748C112.267 51.9926 112.343 52.3432 112.343 52.7265V52.8247H108.178C108.169 52.8995 108.164 52.9649 108.164 53.021C108.164 53.0678 108.164 53.1286 108.164 53.2033C108.164 53.9606 108.316 54.5403 108.619 54.9423C108.922 55.335 109.363 55.5313 109.941 55.5313C110.282 55.5313 110.599 55.4518 110.893 55.2929C111.187 55.1339 111.438 54.9049 111.646 54.6057L112.215 54.8722Z" fill="#00A427"/>
<path d="M114.74 50.665C114.892 50.637 115.048 50.609 115.209 50.5809C115.38 50.5529 115.565 50.5201 115.764 50.4827C115.972 50.436 116.199 50.3846 116.446 50.3285C116.702 50.2724 116.995 50.2069 117.327 50.1321C117.45 50.4874 117.526 50.9642 117.554 51.5626C117.791 51.1138 118.099 50.7632 118.478 50.5108C118.857 50.2584 119.26 50.1321 119.686 50.1321C120.018 50.1321 120.298 50.235 120.525 50.4407C120.752 50.6464 120.866 50.9035 120.866 51.212C120.866 51.4364 120.785 51.628 120.624 51.7869C120.473 51.9365 120.283 52.0113 120.056 52.0113C119.895 52.0113 119.767 51.9833 119.672 51.9272C119.577 51.8617 119.449 51.7309 119.288 51.5345C119.194 51.4317 119.108 51.3569 119.033 51.3101C118.966 51.2634 118.881 51.24 118.777 51.24C118.464 51.24 118.189 51.441 117.952 51.843C117.886 51.9552 117.829 52.0674 117.782 52.1796C117.744 52.2825 117.711 52.3993 117.682 52.5302C117.663 52.6517 117.649 52.792 117.64 52.9509C117.63 53.1099 117.625 53.2968 117.625 53.5119V54.2551C117.625 54.7039 117.697 55.0124 117.839 55.1807C117.981 55.3396 118.237 55.4191 118.606 55.4191H118.777V56.0081H114.754V55.4191H114.854C115.214 55.4191 115.46 55.3396 115.593 55.1807C115.726 55.0124 115.792 54.7039 115.792 54.2551V52.418C115.792 51.9786 115.721 51.6748 115.579 51.5065C115.446 51.3382 115.2 51.254 114.84 51.254H114.74V50.665Z" fill="#00A427"/>
<path d="M130.008 50.3565V50.9455H129.951C129.733 50.9268 129.44 51.011 129.07 51.198C128.71 51.3849 128.246 51.6981 127.677 52.1375C127.592 52.1843 127.516 52.2357 127.45 52.2918L129.198 54.3393C129.388 54.5636 129.544 54.746 129.667 54.8862C129.8 55.0171 129.913 55.1199 130.008 55.1947C130.103 55.2695 130.188 55.3209 130.264 55.349C130.34 55.377 130.425 55.3957 130.52 55.4051L130.591 55.4191V56.0081H127.066V55.4191H127.123C127.455 55.4004 127.62 55.3069 127.62 55.1386C127.62 55.0545 127.511 54.8909 127.293 54.6478L126.057 53.2314L125.503 53.582V54.2551C125.503 54.6945 125.559 54.9984 125.673 55.1667C125.787 55.3256 126 55.4097 126.313 55.4191H126.37V56.0081H122.589V55.4191H122.717C123.086 55.4191 123.337 55.3396 123.47 55.1807C123.603 55.0124 123.669 54.7039 123.669 54.2551V48.5895C123.669 48.1875 123.603 47.9164 123.47 47.7762C123.347 47.6266 123.105 47.5518 122.745 47.5518H122.66V46.9628C122.906 46.916 123.105 46.8786 123.257 46.8506C123.409 46.8225 123.527 46.8038 123.612 46.7945C123.707 46.7758 123.778 46.7618 123.825 46.7524C123.873 46.7431 123.92 46.7384 123.968 46.7384C124.081 46.7291 124.204 46.715 124.337 46.6963C124.479 46.6776 124.617 46.6589 124.749 46.6402C124.891 46.6215 125.019 46.5982 125.133 46.5701C125.247 46.5421 125.337 46.5187 125.403 46.5H125.503V52.8668L126.128 52.4601C126.545 52.1796 126.843 51.9739 127.023 51.843C127.203 51.7122 127.341 51.6093 127.436 51.5345L127.535 51.4504C127.554 51.4317 127.564 51.4223 127.564 51.4223V51.4083L127.578 51.3803C127.625 51.3335 127.649 51.2727 127.649 51.198C127.649 51.0297 127.483 50.9455 127.151 50.9455H127.066V50.3565H130.008Z" fill="#00A427"/>
<path d="M146.568 56.0081H137.713V55.391H137.912C138.158 55.391 138.362 55.3677 138.523 55.3209C138.684 55.2742 138.812 55.1947 138.907 55.0825C139.011 54.9703 139.082 54.8207 139.12 54.6338C139.158 54.4468 139.177 54.2131 139.177 53.9326V48.7017C139.177 48.4493 139.162 48.2436 139.134 48.0847C139.106 47.9257 139.054 47.7855 138.978 47.664C138.902 47.5144 138.783 47.4115 138.622 47.3554C138.461 47.2994 138.215 47.2713 137.883 47.2713H137.713V46.6543H142.858V47.2713H142.574C142.242 47.2713 141.996 47.2994 141.835 47.3554C141.673 47.4115 141.55 47.5144 141.465 47.664C141.399 47.7855 141.351 47.9304 141.323 48.0987C141.294 48.2576 141.28 48.4586 141.28 48.7017V53.8905C141.28 54.199 141.299 54.4515 141.337 54.6478C141.375 54.8348 141.446 54.9844 141.55 55.0965C141.655 55.1994 141.806 55.2695 142.005 55.3069C142.204 55.335 142.469 55.349 142.801 55.349H143.199C144.137 55.349 144.81 55.1059 145.217 54.6197C145.558 54.1803 145.814 53.6474 145.985 53.021H146.624L146.568 56.0081Z" fill="#00A427"/>
<path d="M152.45 50.7492C151.872 50.7492 151.46 50.9595 151.214 51.3803C151.11 51.5579 151.034 51.7916 150.986 52.0814C150.939 52.3619 150.915 52.7172 150.915 53.1472C150.915 54.0261 151.038 54.6618 151.285 55.0545C151.531 55.4378 151.929 55.6294 152.479 55.6294C153.019 55.6294 153.407 55.4331 153.644 55.0405C153.881 54.6384 153.995 53.998 153.985 53.1192C153.985 52.6517 153.957 52.2731 153.9 51.9833C153.843 51.6841 153.748 51.4457 153.616 51.2681C153.512 51.1091 153.35 50.9829 153.133 50.8894C152.924 50.7959 152.697 50.7492 152.45 50.7492ZM148.94 53.1613C148.94 52.7219 149.025 52.3198 149.196 51.9552C149.376 51.5813 149.617 51.2587 149.92 50.9876C150.233 50.7165 150.603 50.5061 151.029 50.3565C151.455 50.2069 151.92 50.1321 152.422 50.1321C152.934 50.1321 153.407 50.2069 153.843 50.3565C154.279 50.5061 154.653 50.7165 154.966 50.9876C155.279 51.2494 155.52 51.5672 155.691 51.9412C155.871 52.3152 155.961 52.7219 155.961 53.1613C155.961 53.61 155.871 54.0214 155.691 54.3954C155.52 54.7693 155.279 55.0919 154.966 55.363C154.663 55.6341 154.298 55.8492 153.872 56.0081C153.445 56.1577 152.981 56.2325 152.479 56.2325C151.958 56.2325 151.479 56.1577 151.043 56.0081C150.607 55.8679 150.233 55.6668 149.92 55.4051C149.608 55.1339 149.366 54.8114 149.196 54.4374C149.025 54.0635 148.94 53.6521 148.94 53.2033V53.1613Z" fill="#00A427"/>
<path d="M161.664 50.7352C161.304 50.7352 161.025 50.8567 160.826 51.0998C160.636 51.3429 160.542 51.6981 160.542 52.1656C160.542 52.6424 160.636 53.007 160.826 53.2594C161.025 53.5119 161.314 53.6381 161.693 53.6381C162.432 53.6381 162.802 53.1332 162.802 52.1235C162.802 51.6841 162.702 51.3429 162.503 51.0998C162.304 50.8567 162.025 50.7352 161.664 50.7352ZM162.091 55.2228C162.546 55.2228 162.958 55.2461 163.327 55.2929C163.706 55.3396 164.005 55.4097 164.223 55.5032C165.009 55.8118 165.403 56.368 165.403 57.1721C165.403 57.9106 165.08 58.4809 164.436 58.883C163.801 59.2943 162.896 59.5 161.721 59.5C160.689 59.5 159.897 59.3598 159.348 59.0793C158.798 58.8082 158.523 58.4155 158.523 57.9013C158.523 57.6769 158.604 57.4806 158.765 57.3123C158.926 57.144 159.116 57.0599 159.334 57.0599C159.476 57.0599 159.656 57.0973 159.874 57.1721C159.684 57.4151 159.589 57.6348 159.589 57.8312C159.589 58.1677 159.779 58.4342 160.158 58.6305C160.546 58.8269 161.077 58.925 161.75 58.925C162.565 58.925 163.195 58.8128 163.64 58.5885C164.095 58.3641 164.322 58.0509 164.322 57.6489C164.322 57.3123 164.147 57.0786 163.796 56.9477C163.446 56.8168 162.839 56.7513 161.977 56.7513C160.878 56.7513 160.087 56.6438 159.604 56.4288C159.13 56.2231 158.893 55.8772 158.893 55.391C158.893 54.7273 159.376 54.2832 160.343 54.0588C159.859 53.9092 159.471 53.6661 159.177 53.3296C158.893 52.9836 158.751 52.5863 158.751 52.1375C158.751 51.8384 158.822 51.5672 158.964 51.3242C159.106 51.0717 159.305 50.8614 159.561 50.6931C159.826 50.5155 160.139 50.3799 160.499 50.2864C160.869 50.1836 161.281 50.1321 161.736 50.1321C162.636 50.1321 163.361 50.3472 163.91 50.7772C164.185 50.5435 164.417 50.3799 164.607 50.2864C164.796 50.1929 164.986 50.1462 165.175 50.1462C165.403 50.1462 165.583 50.2069 165.715 50.3285C165.848 50.4407 165.914 50.5949 165.914 50.7913C165.914 50.9502 165.872 51.0764 165.786 51.1699C165.701 51.2634 165.587 51.3101 165.445 51.3101C165.303 51.3101 165.161 51.2353 165.019 51.0858C164.943 51.011 164.881 50.9595 164.834 50.9315C164.796 50.9035 164.749 50.8894 164.692 50.8894C164.54 50.8894 164.398 50.9689 164.265 51.1278C164.474 51.4457 164.578 51.7869 164.578 52.1516C164.578 52.806 164.303 53.3202 163.754 53.6942C163.204 54.0681 162.441 54.2598 161.466 54.2691C161.001 54.2691 160.646 54.3206 160.4 54.4234C160.153 54.5169 160.03 54.6525 160.03 54.8301C160.03 54.9703 160.134 55.0732 160.343 55.1386C160.551 55.1947 160.911 55.2228 161.423 55.2228H161.636H161.807H161.835H162.091Z" fill="#00A427"/>
<path d="M170.576 54.2551C170.576 54.6945 170.643 54.9984 170.775 55.1667C170.917 55.335 171.169 55.4191 171.529 55.4191H171.628V56.0081H167.563V55.4191H167.762C168.132 55.4191 168.378 55.3396 168.501 55.1807C168.634 55.0218 168.7 54.7132 168.7 54.2551V52.3198C168.7 51.8804 168.634 51.5859 168.501 51.4364C168.378 51.2774 168.127 51.198 167.748 51.198H167.563V50.5949C167.724 50.5856 167.942 50.5622 168.217 50.5248C168.501 50.4781 168.79 50.4313 169.084 50.3846C169.387 50.3378 169.667 50.2911 169.923 50.2443C170.178 50.1976 170.363 50.1602 170.477 50.1321H170.576V54.2551ZM169.638 46.514C169.941 46.514 170.197 46.6169 170.406 46.8225C170.614 47.0282 170.718 47.2807 170.718 47.5798C170.718 47.879 170.614 48.1314 170.406 48.3371C170.197 48.5428 169.941 48.6456 169.638 48.6456C169.335 48.6456 169.079 48.5428 168.871 48.3371C168.662 48.1221 168.558 47.865 168.558 47.5658C168.558 47.276 168.662 47.0282 168.871 46.8225C169.079 46.6169 169.335 46.514 169.638 46.514Z" fill="#00A427"/>
<path d="M174.007 54.2972H174.59C174.742 54.7366 174.988 55.0732 175.329 55.3069C175.67 55.5406 176.078 55.6575 176.552 55.6575C176.912 55.6575 177.205 55.5874 177.433 55.4471C177.66 55.2976 177.774 55.1059 177.774 54.8722C177.774 54.6665 177.693 54.4935 177.532 54.3533C177.447 54.2878 177.376 54.2364 177.319 54.199C177.262 54.1616 177.177 54.1242 177.063 54.0868C176.959 54.0401 176.817 53.9933 176.637 53.9466C176.457 53.8905 176.206 53.8157 175.884 53.7222C175.277 53.5446 174.808 53.3015 174.476 52.993C174.154 52.6845 173.993 52.3292 173.993 51.9272C173.993 51.6748 174.05 51.441 174.164 51.226C174.278 51.0016 174.429 50.81 174.619 50.651C174.818 50.4921 175.05 50.3659 175.315 50.2724C175.58 50.1789 175.865 50.1321 176.168 50.1321C176.386 50.1321 176.651 50.1742 176.964 50.2584C177.276 50.3425 177.58 50.4547 177.873 50.5949C177.959 50.5201 178.053 50.3892 178.158 50.2023H178.655V51.9412H178.129C177.997 51.5485 177.76 51.24 177.419 51.0156C177.087 50.7819 176.703 50.665 176.267 50.665C175.964 50.665 175.713 50.7305 175.514 50.8614C175.315 50.9829 175.216 51.1419 175.216 51.3382C175.216 51.5439 175.339 51.7168 175.585 51.8571C175.831 51.9973 176.286 52.1516 176.95 52.3198C177.348 52.4227 177.651 52.5209 177.859 52.6143C178.068 52.6985 178.257 52.8107 178.428 52.9509C178.636 53.1099 178.797 53.3109 178.911 53.5539C179.025 53.7877 179.082 54.0401 179.082 54.3112C179.082 54.8909 178.864 55.3583 178.428 55.7136C178.001 56.0595 177.433 56.2325 176.722 56.2325C176.097 56.2325 175.528 56.0876 175.017 55.7977C174.969 55.779 174.936 55.765 174.917 55.7557C174.908 55.7463 174.884 55.737 174.846 55.7276C174.713 55.8398 174.614 55.9894 174.548 56.1764H174.007V54.2972Z" fill="#00A427"/>
<path d="M184.149 50.9736V54.0588C184.149 54.4141 184.159 54.6618 184.178 54.8021C184.197 54.9329 184.235 55.0498 184.292 55.1526C184.405 55.3396 184.585 55.4331 184.832 55.4331C185.002 55.4331 185.149 55.391 185.272 55.3069C185.395 55.2134 185.519 55.0638 185.642 54.8581L186.196 55.0545C186.035 55.4191 185.77 55.7089 185.4 55.9239C185.031 56.1296 184.604 56.2325 184.121 56.2325C182.87 56.2325 182.245 55.564 182.245 54.2271V50.9736H181.364V50.3565C181.402 50.3659 181.43 50.3705 181.449 50.3705C181.477 50.3705 181.496 50.3705 181.506 50.3705C181.762 50.3705 182.003 50.3238 182.231 50.2303C182.458 50.1368 182.662 50.0106 182.842 49.8517C183.022 49.6834 183.174 49.4871 183.297 49.2627C183.42 49.0383 183.505 48.7905 183.553 48.5194H184.149V50.3565H185.969V50.9736H184.149Z" fill="#00A427"/>
<path d="M190.965 54.2551C190.965 54.6945 191.031 54.9984 191.164 55.1667C191.306 55.335 191.557 55.4191 191.917 55.4191H192.017V56.0081H187.952V55.4191H188.151C188.52 55.4191 188.767 55.3396 188.89 55.1807C189.022 55.0218 189.089 54.7132 189.089 54.2551V52.3198C189.089 51.8804 189.022 51.5859 188.89 51.4364C188.767 51.2774 188.516 51.198 188.136 51.198H187.952V50.5949C188.113 50.5856 188.331 50.5622 188.606 50.5248C188.89 50.4781 189.179 50.4313 189.473 50.3846C189.776 50.3378 190.055 50.2911 190.311 50.2443C190.567 50.1976 190.752 50.1602 190.865 50.1321H190.965V54.2551ZM190.027 46.514C190.33 46.514 190.586 46.6169 190.794 46.8225C191.003 47.0282 191.107 47.2807 191.107 47.5798C191.107 47.879 191.003 48.1314 190.794 48.3371C190.586 48.5428 190.33 48.6456 190.027 48.6456C189.724 48.6456 189.468 48.5428 189.259 48.3371C189.051 48.1221 188.947 47.865 188.947 47.5658C188.947 47.276 189.051 47.0282 189.259 46.8225C189.468 46.6169 189.724 46.514 190.027 46.514Z" fill="#00A427"/>
<path d="M201.417 50.3565V50.9455H201.36C201.142 50.9268 200.849 51.011 200.479 51.198C200.119 51.3849 199.655 51.6981 199.086 52.1375C199.001 52.1843 198.925 52.2357 198.859 52.2918L200.607 54.3393C200.797 54.5636 200.953 54.746 201.076 54.8862C201.209 55.0171 201.323 55.1199 201.417 55.1947C201.512 55.2695 201.597 55.3209 201.673 55.349C201.749 55.377 201.834 55.3957 201.929 55.4051L202 55.4191V56.0081H198.475V55.4191H198.532C198.864 55.4004 199.029 55.3069 199.029 55.1386C199.029 55.0545 198.921 54.8909 198.703 54.6478L197.466 53.2314L196.912 53.582V54.2551C196.912 54.6945 196.969 54.9984 197.082 55.1667C197.196 55.3256 197.409 55.4097 197.722 55.4191H197.779V56.0081H193.998V55.4191H194.126C194.496 55.4191 194.747 55.3396 194.879 55.1807C195.012 55.0124 195.078 54.7039 195.078 54.2551V48.5895C195.078 48.1875 195.012 47.9164 194.879 47.7762C194.756 47.6266 194.514 47.5518 194.154 47.5518H194.069V46.9628C194.315 46.916 194.514 46.8786 194.666 46.8506C194.818 46.8225 194.936 46.8038 195.021 46.7945C195.116 46.7758 195.187 46.7618 195.235 46.7524C195.282 46.7431 195.329 46.7384 195.377 46.7384C195.49 46.7291 195.614 46.715 195.746 46.6963C195.888 46.6776 196.026 46.6589 196.158 46.6402C196.301 46.6215 196.428 46.5982 196.542 46.5701C196.656 46.5421 196.746 46.5187 196.812 46.5H196.912V52.8668L197.537 52.4601C197.954 52.1796 198.252 51.9739 198.433 51.843C198.613 51.7122 198.75 51.6093 198.845 51.5345L198.944 51.4504C198.963 51.4317 198.973 51.4223 198.973 51.4223V51.4083L198.987 51.3803C199.034 51.3335 199.058 51.2727 199.058 51.198C199.058 51.0297 198.892 50.9455 198.56 50.9455H198.475V50.3565H201.417Z" fill="#00A427"/>
<path d="M55.4527 48.842C55.9928 48.3745 56.2629 48.0099 56.2629 47.7481C56.2629 47.4302 55.9834 47.2713 55.4243 47.2713H55.3248V46.6543H59.5035V47.2713H59.404C59.1955 47.2713 58.9871 47.2994 58.7786 47.3554C58.5796 47.4115 58.3617 47.505 58.1248 47.6359C57.8879 47.7668 57.6226 47.9444 57.3289 48.1688C57.0446 48.3839 56.7177 48.655 56.3482 48.9822L55.1258 50.034L58.1959 53.7643C58.4422 54.0822 58.6649 54.3439 58.8639 54.5496C59.0629 54.7553 59.2524 54.9236 59.4324 55.0545C59.6219 55.176 59.8114 55.2648 60.0009 55.3209C60.1904 55.3677 60.3989 55.391 60.6263 55.391H60.7116V56.0081H55.1827V55.391H55.3106C56.0402 55.391 56.405 55.2508 56.405 54.9703C56.405 54.8207 56.2771 54.6104 56.0213 54.3393C55.9834 54.3019 55.9455 54.2645 55.9076 54.2271C55.8791 54.1897 55.8507 54.1476 55.8223 54.1009L55.7512 53.9887L53.534 51.3803L52.5817 52.1656V53.9186C52.5817 54.2084 52.6006 54.4468 52.6386 54.6338C52.6765 54.8207 52.7428 54.9703 52.8375 55.0825C52.9418 55.1947 53.0744 55.2742 53.2355 55.3209C53.3966 55.3677 53.6003 55.391 53.8467 55.391H53.9462V56.0081H49V55.391H49.2132C49.4596 55.391 49.6633 55.3677 49.8244 55.3209C49.9854 55.2742 50.1134 55.1947 50.2081 55.0825C50.3123 54.9703 50.3834 54.8207 50.4213 54.6338C50.4592 54.4374 50.4782 54.199 50.4782 53.9186V48.7017C50.4782 48.4493 50.4639 48.2436 50.4355 48.0847C50.4071 47.9257 50.355 47.7855 50.2792 47.664C50.1939 47.505 50.0707 47.4022 49.9096 47.3554C49.758 47.2994 49.5164 47.2713 49.1848 47.2713H49.0426V46.6543H54.0456V47.2713H53.8751C53.5435 47.2713 53.2971 47.2994 53.136 47.3554C52.9749 47.4022 52.8517 47.505 52.7665 47.664C52.7001 47.7855 52.6528 47.9257 52.6243 48.0847C52.5959 48.2436 52.5817 48.4493 52.5817 48.7017V51.254L55.4527 48.842Z" stroke="#00A427" stroke-width="0.4"/>
<path d="M62.1373 50.665C62.2889 50.637 62.4453 50.609 62.6064 50.5809C62.7769 50.5529 62.9617 50.5201 63.1607 50.4827C63.3691 50.436 63.5965 50.3846 63.8429 50.3285C64.0987 50.2724 64.3925 50.2069 64.7241 50.1321C64.8473 50.4874 64.9231 50.9642 64.9515 51.5626C65.1884 51.1138 65.4964 50.7632 65.8754 50.5108C66.2544 50.2584 66.6571 50.1321 67.0835 50.1321C67.4151 50.1321 67.6947 50.235 67.9221 50.4407C68.1495 50.6464 68.2632 50.9035 68.2632 51.212C68.2632 51.4364 68.1826 51.628 68.0216 51.7869C67.8699 51.9365 67.6804 52.0113 67.453 52.0113C67.2919 52.0113 67.164 51.9833 67.0693 51.9272C66.9745 51.8617 66.8466 51.7309 66.6855 51.5345C66.5908 51.4317 66.5055 51.3569 66.4297 51.3101C66.3634 51.2634 66.2781 51.24 66.1739 51.24C65.8612 51.24 65.5864 51.441 65.3495 51.843C65.2832 51.9552 65.2263 52.0674 65.1789 52.1796C65.141 52.2825 65.1079 52.3993 65.0794 52.5302C65.0605 52.6517 65.0463 52.792 65.0368 52.9509C65.0273 53.1099 65.0226 53.2968 65.0226 53.5119V54.2551C65.0226 54.7039 65.0937 55.0124 65.2358 55.1807C65.3779 55.3396 65.6338 55.4191 66.0033 55.4191H66.1739V56.0081H62.1515V55.4191H62.251C62.6111 55.4191 62.8575 55.3396 62.9901 55.1807C63.1228 55.0124 63.1891 54.7039 63.1891 54.2551V52.418C63.1891 51.9786 63.118 51.6748 62.9759 51.5065C62.8433 51.3382 62.5969 51.254 62.2368 51.254H62.1373V50.665Z" stroke="#00A427" stroke-width="0.4"/>
<path d="M74.5431 52.9088C74.4579 52.9462 74.3631 52.9836 74.2589 53.021C74.1641 53.0491 74.0552 53.0865 73.932 53.1332C73.4298 53.3015 73.0413 53.5072 72.7665 53.7503C72.4917 53.984 72.3543 54.2364 72.3543 54.5076C72.3543 54.7319 72.4349 54.9236 72.5959 55.0825C72.7665 55.2321 72.975 55.3069 73.2213 55.3069C73.6477 55.3069 74.1073 55.1059 74.6 54.7039V52.8808L74.5431 52.9088ZM77.869 54.8301C77.8501 55.2508 77.6937 55.578 77.4 55.8118C77.1157 56.0361 76.7225 56.1483 76.2203 56.1483C75.4528 56.1483 74.9411 55.8725 74.6853 55.3209C73.8514 55.8725 73.0271 56.1483 72.2122 56.1483C71.71 56.1483 71.3026 56.0315 70.9899 55.7977C70.6867 55.564 70.535 55.2648 70.535 54.9002C70.535 54.6384 70.6251 54.372 70.8051 54.1009C70.8714 54.0074 70.9804 53.9045 71.132 53.7923C71.2931 53.6708 71.4873 53.5539 71.7147 53.4417C71.9421 53.3202 72.1932 53.1987 72.468 53.0771C72.7523 52.9556 73.0508 52.8387 73.3635 52.7265C73.4677 52.6798 73.5719 52.6377 73.6761 52.6003C73.7898 52.5629 73.8988 52.5255 74.003 52.4881L74.6 52.2638V51.829C74.6 51.399 74.5147 51.1185 74.3442 50.9876C74.2494 50.9128 74.1215 50.8567 73.9604 50.8193C73.7993 50.7726 73.6335 50.7492 73.4629 50.7492C73.2829 50.7492 73.1124 50.7726 72.9513 50.8193C72.7902 50.8567 72.6718 50.9128 72.5959 50.9876C72.5107 51.053 72.4396 51.2166 72.3828 51.4784C72.288 51.9552 71.999 52.1936 71.5158 52.1936C71.2978 52.1936 71.1178 52.1375 70.9757 52.0254C70.8335 51.9132 70.7625 51.7636 70.7625 51.5766C70.7625 51.3709 70.843 51.1839 71.0041 51.0156C71.1652 50.838 71.3831 50.6837 71.6579 50.5529C71.9421 50.422 72.2738 50.3191 72.6528 50.2443C73.0318 50.1695 73.444 50.1321 73.8893 50.1321C74.998 50.1321 75.7513 50.3612 76.1492 50.8193C76.2155 50.8941 76.2677 50.9689 76.3056 51.0437C76.3435 51.1091 76.3719 51.1839 76.3908 51.2681C76.4193 51.3522 76.4382 51.4504 76.4477 51.5626C76.4572 51.6748 76.4619 51.815 76.4619 51.9833V54.4935C76.4619 54.7927 76.4903 55.0077 76.5472 55.1386C76.6135 55.2602 76.7272 55.3209 76.8883 55.3209C77.1441 55.3209 77.3005 55.1573 77.3573 54.8301H77.869Z" stroke="#00A427" stroke-width="0.4"/>
<path d="M84.1735 50.9595H82.8517V54.2551C82.8517 54.7039 82.918 55.0124 83.0507 55.1807C83.1833 55.3396 83.4297 55.4191 83.7898 55.4191H84.1593V56.0081H79.7959V55.4191H79.9949C80.3644 55.4191 80.6155 55.3396 80.7482 55.1807C80.8808 55.0218 80.9471 54.7132 80.9471 54.2551V50.9595H79.7532V50.3565H80.9471V50.062C80.9471 49.7629 80.9519 49.5011 80.9614 49.2767C80.9803 49.0523 81.004 48.856 81.0324 48.6877C81.0703 48.5101 81.113 48.3511 81.1603 48.2109C81.2172 48.0613 81.2835 47.9211 81.3593 47.7902C81.5962 47.3788 81.9515 47.0609 82.4253 46.8366C82.9085 46.6122 83.4629 46.5 84.0882 46.5C84.7326 46.5 85.2537 46.6169 85.6517 46.8506C86.0591 47.075 86.2628 47.3695 86.2628 47.7341C86.2628 47.9585 86.1776 48.1501 86.007 48.3091C85.8364 48.468 85.628 48.5475 85.3816 48.5475C85.1542 48.5475 84.9647 48.4867 84.8131 48.3652C84.671 48.2343 84.5336 48.0146 84.4009 47.706C84.3156 47.491 84.2209 47.3414 84.1167 47.2573C84.0124 47.1638 83.8798 47.117 83.7187 47.117C83.4534 47.117 83.2449 47.2479 83.0933 47.5097C82.9986 47.678 82.9322 47.8837 82.8943 48.1268C82.8659 48.3698 82.8517 48.7438 82.8517 49.2487V49.9779V50.3565H84.1735V50.9595Z" stroke="#00A427" stroke-width="0.4"/>
<path d="M89.3349 50.9736V54.0588C89.3349 54.4141 89.3443 54.6618 89.3633 54.8021C89.3822 54.9329 89.4201 55.0498 89.477 55.1526C89.5907 55.3396 89.7707 55.4331 90.0171 55.4331C90.1876 55.4331 90.3345 55.391 90.4577 55.3069C90.5809 55.2134 90.7041 55.0638 90.8272 54.8581L91.3815 55.0545C91.2205 55.4191 90.9552 55.7089 90.5856 55.9239C90.2161 56.1296 89.7897 56.2325 89.3064 56.2325C88.0557 56.2325 87.4303 55.564 87.4303 54.2271V50.9736H86.5491V50.3565C86.587 50.3659 86.6154 50.3705 86.6344 50.3705C86.6628 50.3705 86.6817 50.3705 86.6912 50.3705C86.9471 50.3705 87.1887 50.3238 87.4161 50.2303C87.6435 50.1368 87.8472 50.0106 88.0273 49.8517C88.2073 49.6834 88.3589 49.4871 88.4821 49.2627C88.6053 49.0383 88.6905 48.7905 88.7379 48.5194H89.3349V50.3565H91.1541V50.9736H89.3349Z" stroke="#00A427" stroke-width="0.4"/>
<path d="M100.357 56.1624L98.5238 52.2497L96.7472 56.1624H95.7665L93.8904 51.9272L93.8477 51.815C93.6961 51.4691 93.5587 51.24 93.4356 51.1278C93.3124 51.0063 93.1371 50.9455 92.9097 50.9455H92.8244V50.3565H96.4345V50.9455H96.3635C95.8992 50.9455 95.667 51.039 95.667 51.226C95.667 51.254 95.667 51.2821 95.667 51.3101C95.6765 51.3382 95.686 51.3709 95.6954 51.4083C95.7144 51.4457 95.7333 51.5018 95.7523 51.5766C95.7807 51.642 95.8186 51.7309 95.866 51.843L96.9035 54.2691L98.7086 50.3565H99.6609L101.466 54.2691L102.504 51.7449C102.579 51.5766 102.622 51.4738 102.631 51.4364C102.641 51.3896 102.646 51.3429 102.646 51.2961C102.646 51.1933 102.579 51.1138 102.447 51.0577C102.323 50.9923 102.153 50.9549 101.935 50.9455H101.85V50.3565H104.166V50.9455H104.124C103.896 50.9642 103.716 51.0297 103.584 51.1419C103.461 51.2447 103.333 51.4551 103.2 51.7729C103.172 51.8477 103.143 51.9225 103.115 51.9973C103.086 52.0721 103.058 52.1422 103.029 52.2077L101.338 56.1624H100.357Z" stroke="#00A427" stroke-width="0.4"/>
<path d="M110.41 52.2778C110.419 52.2591 110.424 52.2357 110.424 52.2077C110.424 51.7309 110.329 51.3662 110.14 51.1138C109.95 50.8614 109.69 50.7352 109.358 50.7352C109.188 50.7352 109.022 50.7726 108.861 50.8474C108.709 50.9222 108.595 51.0156 108.52 51.1278C108.425 51.2587 108.354 51.4036 108.306 51.5626C108.268 51.7215 108.235 51.9599 108.207 52.2778H110.41ZM112.215 54.8722C111.969 55.2929 111.594 55.6248 111.092 55.8679C110.59 56.1109 110.036 56.2325 109.429 56.2325C108.946 56.2325 108.501 56.1577 108.093 56.0081C107.695 55.8492 107.345 55.6341 107.041 55.363C106.748 55.0919 106.515 54.7693 106.345 54.3954C106.184 54.0214 106.103 53.6147 106.103 53.1753C106.103 52.7359 106.184 52.3292 106.345 51.9552C106.506 51.5813 106.733 51.2587 107.027 50.9876C107.321 50.7165 107.667 50.5061 108.065 50.3565C108.472 50.2069 108.913 50.1321 109.387 50.1321C109.822 50.1321 110.22 50.1976 110.58 50.3285C110.94 50.45 111.248 50.6277 111.504 50.8614C111.77 51.0858 111.973 51.3569 112.115 51.6748C112.267 51.9926 112.343 52.3432 112.343 52.7265V52.8247H108.178C108.169 52.8995 108.164 52.9649 108.164 53.021C108.164 53.0678 108.164 53.1286 108.164 53.2033C108.164 53.9606 108.316 54.5403 108.619 54.9423C108.922 55.335 109.363 55.5313 109.941 55.5313C110.282 55.5313 110.599 55.4518 110.893 55.2929C111.187 55.1339 111.438 54.9049 111.646 54.6057L112.215 54.8722Z" stroke="#00A427" stroke-width="0.4"/>
<path d="M114.74 50.665C114.892 50.637 115.048 50.609 115.209 50.5809C115.38 50.5529 115.565 50.5201 115.764 50.4827C115.972 50.436 116.199 50.3846 116.446 50.3285C116.702 50.2724 116.995 50.2069 117.327 50.1321C117.45 50.4874 117.526 50.9642 117.554 51.5626C117.791 51.1138 118.099 50.7632 118.478 50.5108C118.857 50.2584 119.26 50.1321 119.686 50.1321C120.018 50.1321 120.298 50.235 120.525 50.4407C120.752 50.6464 120.866 50.9035 120.866 51.212C120.866 51.4364 120.785 51.628 120.624 51.7869C120.473 51.9365 120.283 52.0113 120.056 52.0113C119.895 52.0113 119.767 51.9833 119.672 51.9272C119.577 51.8617 119.449 51.7309 119.288 51.5345C119.194 51.4317 119.108 51.3569 119.033 51.3101C118.966 51.2634 118.881 51.24 118.777 51.24C118.464 51.24 118.189 51.441 117.952 51.843C117.886 51.9552 117.829 52.0674 117.782 52.1796C117.744 52.2825 117.711 52.3993 117.682 52.5302C117.663 52.6517 117.649 52.792 117.64 52.9509C117.63 53.1099 117.625 53.2968 117.625 53.5119V54.2551C117.625 54.7039 117.697 55.0124 117.839 55.1807C117.981 55.3396 118.237 55.4191 118.606 55.4191H118.777V56.0081H114.754V55.4191H114.854C115.214 55.4191 115.46 55.3396 115.593 55.1807C115.726 55.0124 115.792 54.7039 115.792 54.2551V52.418C115.792 51.9786 115.721 51.6748 115.579 51.5065C115.446 51.3382 115.2 51.254 114.84 51.254H114.74V50.665Z" stroke="#00A427" stroke-width="0.4"/>
<path d="M130.008 50.3565V50.9455H129.951C129.733 50.9268 129.44 51.011 129.07 51.198C128.71 51.3849 128.246 51.6981 127.677 52.1375C127.592 52.1843 127.516 52.2357 127.45 52.2918L129.198 54.3393C129.388 54.5636 129.544 54.746 129.667 54.8862C129.8 55.0171 129.913 55.1199 130.008 55.1947C130.103 55.2695 130.188 55.3209 130.264 55.349C130.34 55.377 130.425 55.3957 130.52 55.4051L130.591 55.4191V56.0081H127.066V55.4191H127.123C127.455 55.4004 127.62 55.3069 127.62 55.1386C127.62 55.0545 127.511 54.8909 127.293 54.6478L126.057 53.2314L125.503 53.582V54.2551C125.503 54.6945 125.559 54.9984 125.673 55.1667C125.787 55.3256 126 55.4097 126.313 55.4191H126.37V56.0081H122.589V55.4191H122.717C123.086 55.4191 123.337 55.3396 123.47 55.1807C123.603 55.0124 123.669 54.7039 123.669 54.2551V48.5895C123.669 48.1875 123.603 47.9164 123.47 47.7762C123.347 47.6266 123.105 47.5518 122.745 47.5518H122.66V46.9628C122.906 46.916 123.105 46.8786 123.257 46.8506C123.409 46.8225 123.527 46.8038 123.612 46.7945C123.707 46.7758 123.778 46.7618 123.825 46.7524C123.873 46.7431 123.92 46.7384 123.968 46.7384C124.081 46.7291 124.204 46.715 124.337 46.6963C124.479 46.6776 124.617 46.6589 124.749 46.6402C124.891 46.6215 125.019 46.5982 125.133 46.5701C125.247 46.5421 125.337 46.5187 125.403 46.5H125.503V52.8668L126.128 52.4601C126.545 52.1796 126.843 51.9739 127.023 51.843C127.203 51.7122 127.341 51.6093 127.436 51.5345L127.535 51.4504C127.554 51.4317 127.564 51.4223 127.564 51.4223V51.4083L127.578 51.3803C127.625 51.3335 127.649 51.2727 127.649 51.198C127.649 51.0297 127.483 50.9455 127.151 50.9455H127.066V50.3565H130.008Z" stroke="#00A427" stroke-width="0.4"/>
<path d="M146.568 56.0081H137.713V55.391H137.912C138.158 55.391 138.362 55.3677 138.523 55.3209C138.684 55.2742 138.812 55.1947 138.907 55.0825C139.011 54.9703 139.082 54.8207 139.12 54.6338C139.158 54.4468 139.177 54.2131 139.177 53.9326V48.7017C139.177 48.4493 139.162 48.2436 139.134 48.0847C139.106 47.9257 139.054 47.7855 138.978 47.664C138.902 47.5144 138.783 47.4115 138.622 47.3554C138.461 47.2994 138.215 47.2713 137.883 47.2713H137.713V46.6543H142.858V47.2713H142.574C142.242 47.2713 141.996 47.2994 141.835 47.3554C141.673 47.4115 141.55 47.5144 141.465 47.664C141.399 47.7855 141.351 47.9304 141.323 48.0987C141.294 48.2576 141.28 48.4586 141.28 48.7017V53.8905C141.28 54.199 141.299 54.4515 141.337 54.6478C141.375 54.8348 141.446 54.9844 141.55 55.0965C141.655 55.1994 141.806 55.2695 142.005 55.3069C142.204 55.335 142.469 55.349 142.801 55.349H143.199C144.137 55.349 144.81 55.1059 145.217 54.6197C145.558 54.1803 145.814 53.6474 145.985 53.021H146.624L146.568 56.0081Z" stroke="#00A427" stroke-width="0.4"/>
<path d="M152.45 50.7492C151.872 50.7492 151.46 50.9595 151.214 51.3803C151.11 51.5579 151.034 51.7916 150.986 52.0814C150.939 52.3619 150.915 52.7172 150.915 53.1472C150.915 54.0261 151.038 54.6618 151.285 55.0545C151.531 55.4378 151.929 55.6294 152.479 55.6294C153.019 55.6294 153.407 55.4331 153.644 55.0405C153.881 54.6384 153.995 53.998 153.985 53.1192C153.985 52.6517 153.957 52.2731 153.9 51.9833C153.843 51.6841 153.748 51.4457 153.616 51.2681C153.512 51.1091 153.35 50.9829 153.133 50.8894C152.924 50.7959 152.697 50.7492 152.45 50.7492ZM148.94 53.1613C148.94 52.7219 149.025 52.3198 149.196 51.9552C149.376 51.5813 149.617 51.2587 149.92 50.9876C150.233 50.7165 150.603 50.5061 151.029 50.3565C151.455 50.2069 151.92 50.1321 152.422 50.1321C152.934 50.1321 153.407 50.2069 153.843 50.3565C154.279 50.5061 154.653 50.7165 154.966 50.9876C155.279 51.2494 155.52 51.5672 155.691 51.9412C155.871 52.3152 155.961 52.7219 155.961 53.1613C155.961 53.61 155.871 54.0214 155.691 54.3954C155.52 54.7693 155.279 55.0919 154.966 55.363C154.663 55.6341 154.298 55.8492 153.872 56.0081C153.445 56.1577 152.981 56.2325 152.479 56.2325C151.958 56.2325 151.479 56.1577 151.043 56.0081C150.607 55.8679 150.233 55.6668 149.92 55.4051C149.608 55.1339 149.366 54.8114 149.196 54.4374C149.025 54.0635 148.94 53.6521 148.94 53.2033V53.1613Z" stroke="#00A427" stroke-width="0.4"/>
<path d="M161.664 50.7352C161.304 50.7352 161.025 50.8567 160.826 51.0998C160.636 51.3429 160.542 51.6981 160.542 52.1656C160.542 52.6424 160.636 53.007 160.826 53.2594C161.025 53.5119 161.314 53.6381 161.693 53.6381C162.432 53.6381 162.802 53.1332 162.802 52.1235C162.802 51.6841 162.702 51.3429 162.503 51.0998C162.304 50.8567 162.025 50.7352 161.664 50.7352ZM162.091 55.2228C162.546 55.2228 162.958 55.2461 163.327 55.2929C163.706 55.3396 164.005 55.4097 164.223 55.5032C165.009 55.8118 165.403 56.368 165.403 57.1721C165.403 57.9106 165.08 58.4809 164.436 58.883C163.801 59.2943 162.896 59.5 161.721 59.5C160.689 59.5 159.897 59.3598 159.348 59.0793C158.798 58.8082 158.523 58.4155 158.523 57.9013C158.523 57.6769 158.604 57.4806 158.765 57.3123C158.926 57.144 159.116 57.0599 159.334 57.0599C159.476 57.0599 159.656 57.0973 159.874 57.1721C159.684 57.4151 159.589 57.6348 159.589 57.8312C159.589 58.1677 159.779 58.4342 160.158 58.6305C160.546 58.8269 161.077 58.925 161.75 58.925C162.565 58.925 163.195 58.8128 163.64 58.5885C164.095 58.3641 164.322 58.0509 164.322 57.6489C164.322 57.3123 164.147 57.0786 163.796 56.9477C163.446 56.8168 162.839 56.7513 161.977 56.7513C160.878 56.7513 160.087 56.6438 159.604 56.4288C159.13 56.2231 158.893 55.8772 158.893 55.391C158.893 54.7273 159.376 54.2832 160.343 54.0588C159.859 53.9092 159.471 53.6661 159.177 53.3296C158.893 52.9836 158.751 52.5863 158.751 52.1375C158.751 51.8384 158.822 51.5672 158.964 51.3242C159.106 51.0717 159.305 50.8614 159.561 50.6931C159.826 50.5155 160.139 50.3799 160.499 50.2864C160.869 50.1836 161.281 50.1321 161.736 50.1321C162.636 50.1321 163.361 50.3472 163.91 50.7772C164.185 50.5435 164.417 50.3799 164.607 50.2864C164.796 50.1929 164.986 50.1462 165.175 50.1462C165.403 50.1462 165.583 50.2069 165.715 50.3285C165.848 50.4407 165.914 50.5949 165.914 50.7913C165.914 50.9502 165.872 51.0764 165.786 51.1699C165.701 51.2634 165.587 51.3101 165.445 51.3101C165.303 51.3101 165.161 51.2353 165.019 51.0858C164.943 51.011 164.881 50.9595 164.834 50.9315C164.796 50.9035 164.749 50.8894 164.692 50.8894C164.54 50.8894 164.398 50.9689 164.265 51.1278C164.474 51.4457 164.578 51.7869 164.578 52.1516C164.578 52.806 164.303 53.3202 163.754 53.6942C163.204 54.0681 162.441 54.2598 161.466 54.2691C161.001 54.2691 160.646 54.3206 160.4 54.4234C160.153 54.5169 160.03 54.6525 160.03 54.8301C160.03 54.9703 160.134 55.0732 160.343 55.1386C160.551 55.1947 160.911 55.2228 161.423 55.2228H161.636H161.807H161.835H162.091Z" stroke="#00A427" stroke-width="0.4"/>
<path d="M170.576 54.2551C170.576 54.6945 170.643 54.9984 170.775 55.1667C170.917 55.335 171.169 55.4191 171.529 55.4191H171.628V56.0081H167.563V55.4191H167.762C168.132 55.4191 168.378 55.3396 168.501 55.1807C168.634 55.0218 168.7 54.7132 168.7 54.2551V52.3198C168.7 51.8804 168.634 51.5859 168.501 51.4364C168.378 51.2774 168.127 51.198 167.748 51.198H167.563V50.5949C167.724 50.5856 167.942 50.5622 168.217 50.5248C168.501 50.4781 168.79 50.4313 169.084 50.3846C169.387 50.3378 169.667 50.2911 169.923 50.2443C170.178 50.1976 170.363 50.1602 170.477 50.1321H170.576V54.2551ZM169.638 46.514C169.941 46.514 170.197 46.6169 170.406 46.8225C170.614 47.0282 170.718 47.2807 170.718 47.5798C170.718 47.879 170.614 48.1314 170.406 48.3371C170.197 48.5428 169.941 48.6456 169.638 48.6456C169.335 48.6456 169.079 48.5428 168.871 48.3371C168.662 48.1221 168.558 47.865 168.558 47.5658C168.558 47.276 168.662 47.0282 168.871 46.8225C169.079 46.6169 169.335 46.514 169.638 46.514Z" stroke="#00A427" stroke-width="0.4"/>
<path d="M174.007 54.2972H174.59C174.742 54.7366 174.988 55.0732 175.329 55.3069C175.67 55.5406 176.078 55.6575 176.552 55.6575C176.912 55.6575 177.205 55.5874 177.433 55.4471C177.66 55.2976 177.774 55.1059 177.774 54.8722C177.774 54.6665 177.693 54.4935 177.532 54.3533C177.447 54.2878 177.376 54.2364 177.319 54.199C177.262 54.1616 177.177 54.1242 177.063 54.0868C176.959 54.0401 176.817 53.9933 176.637 53.9466C176.457 53.8905 176.206 53.8157 175.884 53.7222C175.277 53.5446 174.808 53.3015 174.476 52.993C174.154 52.6845 173.993 52.3292 173.993 51.9272C173.993 51.6748 174.05 51.441 174.164 51.226C174.278 51.0016 174.429 50.81 174.619 50.651C174.818 50.4921 175.05 50.3659 175.315 50.2724C175.58 50.1789 175.865 50.1321 176.168 50.1321C176.386 50.1321 176.651 50.1742 176.964 50.2584C177.276 50.3425 177.58 50.4547 177.873 50.5949C177.959 50.5201 178.053 50.3892 178.158 50.2023H178.655V51.9412H178.129C177.997 51.5485 177.76 51.24 177.419 51.0156C177.087 50.7819 176.703 50.665 176.267 50.665C175.964 50.665 175.713 50.7305 175.514 50.8614C175.315 50.9829 175.216 51.1419 175.216 51.3382C175.216 51.5439 175.339 51.7168 175.585 51.8571C175.831 51.9973 176.286 52.1516 176.95 52.3198C177.348 52.4227 177.651 52.5209 177.859 52.6143C178.068 52.6985 178.257 52.8107 178.428 52.9509C178.636 53.1099 178.797 53.3109 178.911 53.5539C179.025 53.7877 179.082 54.0401 179.082 54.3112C179.082 54.8909 178.864 55.3583 178.428 55.7136C178.001 56.0595 177.433 56.2325 176.722 56.2325C176.097 56.2325 175.528 56.0876 175.017 55.7977C174.969 55.779 174.936 55.765 174.917 55.7557C174.908 55.7463 174.884 55.737 174.846 55.7276C174.713 55.8398 174.614 55.9894 174.548 56.1764H174.007V54.2972Z" stroke="#00A427" stroke-width="0.4"/>
<path d="M184.149 50.9736V54.0588C184.149 54.4141 184.159 54.6618 184.178 54.8021C184.197 54.9329 184.235 55.0498 184.292 55.1526C184.405 55.3396 184.585 55.4331 184.832 55.4331C185.002 55.4331 185.149 55.391 185.272 55.3069C185.395 55.2134 185.519 55.0638 185.642 54.8581L186.196 55.0545C186.035 55.4191 185.77 55.7089 185.4 55.9239C185.031 56.1296 184.604 56.2325 184.121 56.2325C182.87 56.2325 182.245 55.564 182.245 54.2271V50.9736H181.364V50.3565C181.402 50.3659 181.43 50.3705 181.449 50.3705C181.477 50.3705 181.496 50.3705 181.506 50.3705C181.762 50.3705 182.003 50.3238 182.231 50.2303C182.458 50.1368 182.662 50.0106 182.842 49.8517C183.022 49.6834 183.174 49.4871 183.297 49.2627C183.42 49.0383 183.505 48.7905 183.553 48.5194H184.149V50.3565H185.969V50.9736H184.149Z" stroke="#00A427" stroke-width="0.4"/>
<path d="M190.965 54.2551C190.965 54.6945 191.031 54.9984 191.164 55.1667C191.306 55.335 191.557 55.4191 191.917 55.4191H192.017V56.0081H187.952V55.4191H188.151C188.52 55.4191 188.767 55.3396 188.89 55.1807C189.022 55.0218 189.089 54.7132 189.089 54.2551V52.3198C189.089 51.8804 189.022 51.5859 188.89 51.4364C188.767 51.2774 188.516 51.198 188.136 51.198H187.952V50.5949C188.113 50.5856 188.331 50.5622 188.606 50.5248C188.89 50.4781 189.179 50.4313 189.473 50.3846C189.776 50.3378 190.055 50.2911 190.311 50.2443C190.567 50.1976 190.752 50.1602 190.865 50.1321H190.965V54.2551ZM190.027 46.514C190.33 46.514 190.586 46.6169 190.794 46.8225C191.003 47.0282 191.107 47.2807 191.107 47.5798C191.107 47.879 191.003 48.1314 190.794 48.3371C190.586 48.5428 190.33 48.6456 190.027 48.6456C189.724 48.6456 189.468 48.5428 189.259 48.3371C189.051 48.1221 188.947 47.865 188.947 47.5658C188.947 47.276 189.051 47.0282 189.259 46.8225C189.468 46.6169 189.724 46.514 190.027 46.514Z" stroke="#00A427" stroke-width="0.4"/>
<path d="M201.417 50.3565V50.9455H201.36C201.142 50.9268 200.849 51.011 200.479 51.198C200.119 51.3849 199.655 51.6981 199.086 52.1375C199.001 52.1843 198.925 52.2357 198.859 52.2918L200.607 54.3393C200.797 54.5636 200.953 54.746 201.076 54.8862C201.209 55.0171 201.323 55.1199 201.417 55.1947C201.512 55.2695 201.597 55.3209 201.673 55.349C201.749 55.377 201.834 55.3957 201.929 55.4051L202 55.4191V56.0081H198.475V55.4191H198.532C198.864 55.4004 199.029 55.3069 199.029 55.1386C199.029 55.0545 198.921 54.8909 198.703 54.6478L197.466 53.2314L196.912 53.582V54.2551C196.912 54.6945 196.969 54.9984 197.082 55.1667C197.196 55.3256 197.409 55.4097 197.722 55.4191H197.779V56.0081H193.998V55.4191H194.126C194.496 55.4191 194.747 55.3396 194.879 55.1807C195.012 55.0124 195.078 54.7039 195.078 54.2551V48.5895C195.078 48.1875 195.012 47.9164 194.879 47.7762C194.756 47.6266 194.514 47.5518 194.154 47.5518H194.069V46.9628C194.315 46.916 194.514 46.8786 194.666 46.8506C194.818 46.8225 194.936 46.8038 195.021 46.7945C195.116 46.7758 195.187 46.7618 195.235 46.7524C195.282 46.7431 195.329 46.7384 195.377 46.7384C195.49 46.7291 195.614 46.715 195.746 46.6963C195.888 46.6776 196.026 46.6589 196.158 46.6402C196.301 46.6215 196.428 46.5982 196.542 46.5701C196.656 46.5421 196.746 46.5187 196.812 46.5H196.912V52.8668L197.537 52.4601C197.954 52.1796 198.252 51.9739 198.433 51.843C198.613 51.7122 198.75 51.6093 198.845 51.5345L198.944 51.4504C198.963 51.4317 198.973 51.4223 198.973 51.4223V51.4083L198.987 51.3803C199.034 51.3335 199.058 51.2727 199.058 51.198C199.058 51.0297 198.892 50.9455 198.56 50.9455H198.475V50.3565H201.417Z" stroke="#00A427" stroke-width="0.4"/>
</svg>
