<svg width="79" height="97" viewBox="0 0 79 97" fill="none" xmlns="http://www.w3.org/2000/svg">
<path d="M39.5055 9.09916C31.8301 9.09916 24.4696 12.1481 19.0436 17.5749C13.6159 23.0019 10.5671 30.3623 10.5671 38.0368C10.5671 45.7121 13.6161 53.0726 19.0436 58.4986C24.4705 63.9263 31.831 66.9751 39.5055 66.9751C47.1799 66.9751 54.5413 63.9261 59.9673 58.4986C65.395 53.0717 68.4438 45.7112 68.4438 38.0368C68.4352 30.3643 65.3835 23.0088 59.958 17.584C54.5325 12.1585 47.177 9.10682 39.5053 9.09898L39.5055 9.09916ZM39.5055 63.7863C32.6763 63.7863 26.1277 61.0736 21.2991 56.245C16.4698 51.4164 13.757 44.8671 13.757 38.0379C13.757 31.2094 16.4698 24.6601 21.2991 19.8315C26.1277 15.0029 32.6763 12.2901 39.5055 12.2901C46.3346 12.2901 52.8832 15.0029 57.7118 19.8315C62.5411 24.6601 65.2539 31.2094 65.2539 38.0379C65.2453 44.8641 62.5298 51.4085 57.7025 56.2357C52.876 61.0622 46.3317 63.7777 39.5053 63.7863H39.5055ZM77.0107 32.5657L72.2248 27.126L72.7988 19.9471H72.7995C72.9348 18.0484 72.3871 16.1639 71.2547 14.6333C70.1231 13.1036 68.4807 12.0289 66.6254 11.603L59.6061 10.0077L55.8891 3.85015C54.8899 2.19787 53.3258 0.963644 51.4864 0.376753C49.6475 -0.209372 47.6577 -0.108968 45.8864 0.659496L39.3136 3.51537L32.661 0.75485C30.8927 0.0255664 28.9206 -0.0435148 27.1052 0.559712C25.2891 1.16294 23.7508 2.3986 22.7701 4.04168L19.0696 10.2313L12.0659 11.9064C10.2106 12.3572 8.57902 13.4582 7.4665 15.0095C6.35405 16.5613 5.83487 18.4601 6.00366 20.3615L6.65745 27.5404L1.9357 33.0286C0.68722 34.4765 0 36.3246 0 38.2368C0 40.149 0.687257 41.9971 1.9357 43.4457L6.72162 48.8854L6.1476 56.0643C5.99876 57.9823 6.54785 59.8894 7.69378 61.4342C8.84041 62.9796 10.5063 64.058 12.3849 64.4716L19.4199 66.067L23.1688 72.2245C24.626 74.564 27.1777 75.9963 29.9333 76.0219C30.9973 76.0211 32.0506 75.8039 33.0285 75.3837L39.6647 72.5599L46.3172 75.3197C48.0749 76.0576 50.0391 76.1416 51.8537 75.5562C53.6677 74.9708 55.2124 73.7551 56.2081 72.1291L59.2392 67.0719V92.4054L40.3671 79.6429C39.8273 79.2783 39.1201 79.2783 38.5802 79.6429L19.7082 92.4054V72.6072C19.7082 71.7262 18.9939 71.0118 18.1129 71.0118C17.2312 71.0118 16.5176 71.7262 16.5176 72.6072V95.3881C16.5126 95.9821 16.8388 96.5291 17.363 96.8083C17.5973 96.9201 17.853 96.9806 18.1129 96.9835C18.4305 96.9842 18.7418 96.8902 19.006 96.7121L39.5061 82.9611L59.9735 96.7128V96.7121C60.4628 97.0433 61.0952 97.0768 61.6165 96.799C62.1378 96.522 62.4633 95.9786 62.4626 95.3882V65.2523L66.9451 64.1677V64.167C68.8004 63.7169 70.432 62.6158 71.5445 61.0639C72.657 59.5127 73.1762 57.6133 73.0074 55.7118L72.3849 48.5173L77.0755 43.0291C78.3282 41.5705 79.0112 39.7081 78.9999 37.7844C78.9878 35.8615 78.282 34.0076 77.0115 32.564L77.0107 32.5657ZM74.602 40.973L69.5291 46.9234C69.2471 47.2489 69.1089 47.6748 69.146 48.1043L69.8161 55.9847C69.9208 57.1306 69.6089 58.2758 68.938 59.2102C68.2671 60.1446 67.2822 60.8062 66.1625 61.074L58.5536 62.8766C58.1327 62.9749 57.7702 63.2398 57.548 63.6101L53.5119 70.3746C52.9393 71.3823 52.0206 72.148 50.9259 72.5289C49.832 72.9106 48.6361 72.8814 47.5615 72.4484L40.2873 69.433C39.8942 69.2692 39.4519 69.2692 39.0587 69.433L31.8157 72.4484C30.7588 72.9014 29.5744 72.9591 28.479 72.6101C27.3837 72.2618 26.45 71.5304 25.8496 70.5497L21.7332 63.8337C21.5081 63.4691 21.1463 63.2105 20.7283 63.1158L13.0551 61.361C11.9363 61.1046 10.9464 60.4536 10.2669 59.5285C9.58743 58.6033 9.26339 57.4646 9.35384 56.32L9.95992 48.5187C9.99268 48.0949 9.85451 47.6761 9.57746 47.3542L4.4083 41.3555C3.65836 40.4867 3.246 39.377 3.246 38.2291C3.246 37.0812 3.65836 35.9714 4.4083 35.1026L9.52896 29.1047V29.1039C9.81099 28.7785 9.94916 28.3526 9.91213 27.9238L9.19424 20.0904C9.09168 18.9538 9.39864 17.8178 10.0596 16.8878C10.7205 15.9576 11.6926 15.2946 12.7993 15.0175L20.4568 13.183C20.8777 13.0847 21.2402 12.8198 21.4624 12.4495L25.4984 5.68499C26.0881 4.67581 27.0275 3.91733 28.1384 3.55275C29.2494 3.18816 30.4552 3.24295 31.5285 3.70658L38.7231 6.72198C39.1162 6.88579 39.5585 6.88579 39.9516 6.72198L47.1947 3.62672C48.2516 3.17377 49.4359 3.11679 50.5313 3.46506C51.6267 3.81404 52.5604 4.54545 53.1607 5.52546L57.2765 12.2414H57.2772C57.5022 12.6061 57.864 12.8653 58.2821 12.9593L65.9552 14.7142C67.0833 14.972 68.0796 15.6293 68.7598 16.5651C69.44 17.5009 69.7591 18.651 69.6565 19.8035L69.0504 27.6682C69.0177 28.092 69.1558 28.5115 69.4329 28.8327L74.6021 34.7196C75.352 35.5885 75.7644 36.6987 75.7644 37.8461C75.7644 38.9941 75.352 40.1037 74.6021 40.9732L74.602 40.973Z" fill="#E50F1C"/>
</svg>
