<svg width="372" height="231" viewBox="0 0 372 231" fill="none" xmlns="http://www.w3.org/2000/svg">
<path opacity="0.28" d="M0 24.882L10.8718 28.7725L8.80523 17.4119L0 24.882ZM168.108 206.437L169.104 206.344L168.108 206.437ZM173.908 206.853L172.928 206.652L173.908 206.853ZM6.04667 24.9208C7.34117 24.7515 8.66179 24.6038 10.0066 24.4791L9.82202 22.4876C8.45241 22.6146 7.10688 22.7651 5.78734 22.9377L6.04667 24.9208ZM13.9495 24.1848C15.253 24.1108 16.5762 24.0583 17.9176 24.0286L17.8734 22.0291C16.5089 22.0593 15.1626 22.1127 13.836 22.1881L13.9495 24.1848ZM21.9061 24.0082C23.2145 24.0235 24.5379 24.0607 25.875 24.1206L25.9646 22.1226C24.6054 22.0617 23.26 22.0239 21.9296 22.0083L21.9061 24.0082ZM29.8353 24.3628C31.1478 24.4645 32.4718 24.5883 33.806 24.7353L34.0249 22.7473C32.6691 22.598 31.3236 22.4722 29.9898 22.3688L29.8353 24.3628ZM37.7461 25.233C39.0453 25.4182 40.3528 25.6255 41.6678 25.8559L42.0128 23.8859C40.6769 23.6519 39.3484 23.4412 38.0284 23.253L37.7461 25.233ZM45.59 26.6075C46.8726 26.8745 48.161 27.1638 49.4544 27.4759L49.9236 25.5317C48.6097 25.2146 47.3007 24.9208 45.9977 24.6495L45.59 26.6075ZM53.3077 28.4707C54.5781 28.8203 55.8523 29.1923 57.1294 29.5876L57.7208 27.6771C56.4233 27.2755 55.1289 26.8975 53.8383 26.5424L53.3077 28.4707ZM60.8997 30.8202C62.1501 31.2509 63.4025 31.7044 64.6561 32.1814L65.3673 30.3121C64.0937 29.8276 62.8214 29.3668 61.551 28.9292L60.8997 30.8202ZM68.3321 33.6465C69.5501 34.1543 70.7685 34.6848 71.9865 35.2385L72.8142 33.4178C71.5768 32.8553 70.3391 32.3164 69.1017 31.8005L68.3321 33.6465ZM75.5734 36.9378C76.7545 37.5203 77.9345 38.1252 79.1129 38.7531L80.0535 36.9881C78.8565 36.3503 77.6578 35.7358 76.458 35.1441L75.5734 36.9378ZM82.5944 40.6791C83.7344 41.3333 84.8722 42.0097 86.0072 42.7088L87.0561 41.0059C85.9034 40.2959 84.7478 39.6089 83.5898 38.9444L82.5944 40.6791ZM89.3683 44.8518C90.4638 45.5744 91.5561 46.3188 92.6445 47.0856L93.7964 45.4506C92.6912 44.672 91.582 43.916 90.4695 43.1822L89.3683 44.8518ZM95.8718 49.4337C96.9201 50.2211 97.9642 51.0299 99.0037 51.8606L100.252 50.2982C99.1971 49.455 98.1372 48.634 97.073 47.8346L95.8718 49.4337ZM102.086 54.3998C103.085 55.2482 104.079 56.1176 105.068 57.0084L106.406 55.5223C105.403 54.6185 104.394 53.7364 103.38 52.8754L102.086 54.3998ZM107.995 59.7227C108.944 60.6286 109.888 61.5549 110.825 62.502L112.247 61.0949C111.296 60.1344 110.339 59.1949 109.376 58.276L107.995 59.7227ZM113.59 65.3737C114.489 66.3338 115.382 67.3139 116.269 68.3144L117.765 66.9878C116.866 65.9738 115.961 64.9802 115.05 64.0068L113.59 65.3737ZM118.865 71.3244C119.715 72.3364 120.559 73.3678 121.395 74.419L122.96 73.1735C122.113 72.1086 121.258 71.0636 120.397 70.0383L118.865 71.3244ZM123.821 77.5479C124.623 78.6098 125.419 79.6908 126.207 80.7911L127.833 79.6263C127.035 78.5124 126.229 77.4178 125.417 76.3425L123.821 77.5479ZM128.462 84.0196C129.206 85.1136 129.944 86.2257 130.675 87.3562L132.355 86.2704C131.615 85.1267 130.869 84.0013 130.115 82.8942L128.462 84.0196ZM132.794 90.7189C133.482 91.8383 134.163 92.975 134.837 94.129L136.564 93.1205C135.882 91.9537 135.194 90.8043 134.498 89.672L132.794 90.7189ZM136.829 97.6291C137.46 98.7678 138.085 99.9227 138.703 101.094L140.472 100.161C139.848 98.9771 139.216 97.8099 138.578 96.6589L136.829 97.6291ZM140.536 104.657C141.127 105.835 141.711 107.03 142.289 108.24L144.094 107.38C143.511 106.157 142.921 104.951 142.324 103.76L140.536 104.657ZM143.959 111.834C144.509 113.047 145.052 114.276 145.588 115.521L147.425 114.73C146.884 113.474 146.336 112.233 145.781 111.008L143.959 111.834ZM147.121 119.171C147.619 120.388 148.11 121.62 148.595 122.866L150.459 122.142C149.97 120.884 149.474 119.642 148.972 118.413L147.121 119.171ZM150.028 126.649C150.479 127.872 150.923 129.108 151.361 130.358L153.249 129.697C152.807 128.437 152.359 127.19 151.904 125.957L150.028 126.649ZM152.648 134.129C153.07 135.4 153.486 136.684 153.894 137.983L155.802 137.382C155.39 136.074 154.972 134.78 154.546 133.499L152.648 134.129ZM155.049 141.75C155.425 143.012 155.795 144.287 156.159 145.574L158.084 145.031C157.717 143.734 157.345 142.45 156.965 141.178L155.049 141.75ZM157.23 149.475C157.567 150.741 157.899 152.018 158.224 153.308L160.163 152.819C159.836 151.52 159.502 150.234 159.162 148.959L157.23 149.475ZM159.168 157.164C159.477 158.462 159.779 159.771 160.075 161.092L162.027 160.655C161.729 159.325 161.425 158.007 161.114 156.701L159.168 157.164ZM160.924 165.002C161.194 166.282 161.457 167.572 161.715 168.873L163.677 168.485C163.418 167.176 163.153 165.878 162.881 164.59L160.924 165.002ZM162.469 172.81C162.715 174.133 162.954 175.467 163.187 176.812L165.158 176.471C164.923 175.118 164.683 173.776 164.436 172.445L162.469 172.81ZM163.836 180.686C164.046 181.986 164.25 183.296 164.449 184.616L166.427 184.318C166.227 182.991 166.021 181.673 165.81 180.366L163.836 180.686ZM165.028 188.607C165.212 189.926 165.39 191.255 165.563 192.594L167.546 192.338C167.373 190.992 167.194 189.657 167.009 188.331L165.028 188.607ZM166.047 196.505C166.203 197.818 166.353 199.141 166.498 200.473L168.487 200.257C168.341 198.918 168.19 197.589 168.033 196.269L166.047 196.505ZM166.916 204.498C166.983 205.173 167.048 205.851 167.113 206.531L169.104 206.344C169.039 205.66 168.974 204.979 168.906 204.301L166.916 204.498ZM167.113 206.531C167.21 207.57 167.852 208.316 168.595 208.775L169.645 207.073C169.274 206.843 169.127 206.59 169.104 206.344L167.113 206.531ZM173.117 209.114C173.929 208.763 174.672 208.098 174.887 207.055L172.928 206.652C172.879 206.888 172.713 207.109 172.323 207.278L173.117 209.114ZM174.887 207.055C175.015 206.434 175.146 205.806 175.279 205.173L173.321 204.762C173.188 205.397 173.057 206.027 172.928 206.652L174.887 207.055ZM176.105 201.308C176.386 200.015 176.677 198.701 176.976 197.367L175.025 196.929C174.724 198.267 174.433 199.585 174.151 200.883L176.105 201.308ZM177.846 193.55C178.144 192.261 178.45 190.956 178.764 189.636L176.818 189.174C176.503 190.498 176.196 191.807 175.897 193.1L177.846 193.55ZM179.689 185.79C179.999 184.52 180.315 183.236 180.638 181.941L178.698 181.457C178.374 182.755 178.056 184.042 177.746 185.317L179.689 185.79ZM181.626 178.027C181.947 176.771 182.274 175.505 182.607 174.229L180.671 173.724C180.338 175.003 180.01 176.273 179.688 177.533L181.626 178.027ZM183.623 170.376C183.964 169.095 184.312 167.806 184.664 166.509L182.734 165.984C182.381 167.284 182.033 168.577 181.69 169.861L183.623 170.376ZM185.71 162.706C186.063 161.431 186.422 160.15 186.787 158.863L184.862 158.319C184.497 159.609 184.137 160.893 183.782 162.171L185.71 162.706ZM187.883 155.027C188.247 153.766 188.616 152.499 188.99 151.229L187.071 150.665C186.696 151.938 186.327 153.208 185.962 154.472L187.883 155.027ZM190.125 147.405C190.505 146.137 190.89 144.865 191.279 143.591L189.367 143.006C188.976 144.285 188.59 145.56 188.209 146.831L190.125 147.405ZM192.447 139.804C192.84 138.539 193.238 137.272 193.641 136.003L191.734 135.398C191.331 136.671 190.932 137.942 190.537 139.21L192.447 139.804ZM194.855 132.209C195.261 130.952 195.671 129.695 196.085 128.436L194.185 127.811C193.77 129.073 193.358 130.334 192.952 131.594L194.855 132.209ZM197.339 124.66C197.761 123.403 198.187 122.145 198.616 120.888L196.724 120.241C196.293 121.502 195.866 122.763 195.443 124.024L197.339 124.66ZM199.913 117.132C200.349 115.881 200.789 114.631 201.232 113.382L199.348 112.713C198.903 113.965 198.461 115.219 198.024 116.474L199.913 117.132ZM202.576 109.639C203.028 108.391 203.484 107.145 203.944 105.902L202.068 105.208C201.607 106.456 201.149 107.705 200.695 108.957L202.576 109.639ZM205.335 102.18C205.803 100.94 206.274 99.704 206.749 98.4713L204.883 97.7519C204.406 98.9891 203.933 100.23 203.464 101.474L205.335 102.18ZM208.197 94.756C208.683 93.5216 209.173 92.2915 209.667 91.0662L207.811 90.3191C207.316 91.5492 206.824 92.784 206.336 94.023L208.197 94.756ZM211.16 87.3989C211.669 86.1638 212.181 84.9342 212.697 83.7107L210.854 82.9337C210.336 84.1624 209.821 85.3971 209.311 86.6373L211.16 87.3989ZM214.255 80.0594C214.779 78.8457 215.307 77.6387 215.838 76.4391L214.009 75.6295C213.475 76.8347 212.945 78.0472 212.419 79.2664L214.255 80.0594ZM217.476 72.7871C218.025 71.5779 218.578 70.3769 219.134 69.1849L217.322 68.339C216.763 69.5373 216.207 70.7444 215.655 71.9597L217.476 72.7871ZM220.823 65.6162C221.404 64.4054 221.989 63.2049 222.577 62.0152L220.784 61.1289C220.193 62.3257 219.605 63.5332 219.02 64.7508L220.823 65.6162ZM224.352 58.4794C224.955 57.2962 225.562 56.1249 226.172 54.9662L224.402 54.0345C223.788 55.2012 223.177 56.3803 222.57 57.5711L224.352 58.4794ZM228.06 51.4402C228.693 50.2787 229.329 49.1312 229.969 47.9985L228.228 47.0149C227.583 48.1567 226.941 49.3131 226.304 50.4833L228.06 51.4402ZM231.956 44.5474C232.634 43.3925 233.316 42.2548 234.001 41.1351L232.295 40.0912C231.603 41.2215 230.915 42.3697 230.231 43.5348L231.956 44.5474ZM236.068 37.8297C236.8 36.6846 237.536 35.5608 238.275 34.4593L236.615 33.3446C235.867 34.459 235.123 35.5953 234.383 36.7525L236.068 37.8297ZM240.504 31.2229C241.278 30.1282 242.056 29.0587 242.837 28.0155L241.236 26.8166C240.444 27.875 239.655 28.9593 238.871 30.0682L240.504 31.2229ZM245.26 24.8796C246.087 23.8442 246.917 22.8391 247.75 21.8657L246.231 20.5649C245.382 21.5567 244.537 22.5795 243.697 23.632L245.26 24.8796ZM250.403 18.888C251.298 17.9237 252.197 16.9971 253.1 16.1096L251.697 14.6838C250.772 15.5936 249.852 16.5419 248.937 17.527L250.403 18.888ZM256.018 13.387C257.005 12.5169 257.995 11.695 258.989 10.9233L257.761 9.34399C256.734 10.1426 255.712 10.9911 254.696 11.8869L256.018 13.387ZM262.201 8.61122C263.3 7.88287 264.403 7.2179 265.508 6.61854L264.554 4.86049C263.394 5.48958 262.242 6.18512 261.096 6.94378L262.201 8.61122ZM269.011 4.94424C270.223 4.44344 271.438 4.0238 272.654 3.68806L272.122 1.76012C270.823 2.11876 269.531 2.56549 268.247 3.09576L269.011 4.94424ZM276.393 2.92422C277.664 2.75618 278.938 2.68193 280.216 2.70505L280.252 0.705381C278.873 0.680415 277.498 0.760654 276.131 0.941472L276.393 2.92422ZM284.004 3.06056C285.248 3.27218 286.497 3.57879 287.751 3.98465L288.367 2.08176C287.023 1.64691 285.68 1.31701 284.339 1.0889L284.004 3.06056ZM291.269 5.38001C292.42 5.92102 293.576 6.54791 294.736 7.26418L295.787 5.56226C294.565 4.80819 293.343 4.14482 292.12 3.57008L291.269 5.38001ZM297.855 9.39813C298.886 10.1734 299.92 11.0205 300.958 11.9419L302.286 10.4465C301.21 9.49097 300.134 8.60916 299.057 7.7995L297.855 9.39813ZM303.697 14.5411C304.612 15.4657 305.529 16.4487 306.447 17.4918L307.948 16.1699C307.005 15.0993 306.062 14.0877 305.118 13.1343L303.697 14.5411ZM308.91 20.4276C309.705 21.4213 310.502 22.4606 311.299 23.5463L312.911 22.3625C312.098 21.2554 311.285 20.1941 310.471 19.1778L308.91 20.4276ZM313.652 26.8826C314.343 27.902 315.035 28.9567 315.728 30.0473L317.416 28.9755C316.713 27.8684 316.01 26.7967 315.307 25.76L313.652 26.8826ZM317.806 33.4275C318.494 34.5824 319.182 35.7733 319.871 37.0006L321.615 36.0219C320.918 34.7799 320.221 33.574 319.524 32.4036L317.806 33.4275ZM321.684 40.3141C322.288 41.4468 322.892 42.6079 323.497 43.7978L325.28 42.892C324.67 41.6906 324.059 40.5176 323.448 39.3727L321.684 40.3141ZM325.31 47.454C325.876 48.6217 326.442 49.8149 327.008 51.0338L328.822 50.1919C328.251 48.9632 327.681 47.7599 327.11 46.582L325.31 47.454ZM328.599 54.5306C329.129 55.719 329.659 56.9302 330.189 58.1646L332.027 57.3755C331.493 56.1327 330.959 54.9128 330.425 53.7156L328.599 54.5306ZM331.779 61.9374C332.044 62.5778 332.309 63.224 332.573 63.8762L334.427 63.1237C334.16 62.4676 333.894 61.8174 333.627 61.1729L331.779 61.9374Z" fill="#004F6E"/>
<g filter="url(#filter0_d_2_734)">
<circle cx="333.5" cy="62.5" r="12.5" fill="url(#paint0_linear_2_734)"/>
<circle cx="333.5" cy="62.5" r="11.5" stroke="white" stroke-width="2"/>
</g>
<defs>
<filter id="filter0_d_2_734" x="295.9" y="28.9" width="75.2" height="75.2" filterUnits="userSpaceOnUse" color-interpolation-filters="sRGB">
<feFlood flood-opacity="0" result="BackgroundImageFix"/>
<feColorMatrix in="SourceAlpha" type="matrix" values="0 0 0 0 0 0 0 0 0 0 0 0 0 0 0 0 0 0 127 0" result="hardAlpha"/>
<feMorphology radius="1" operator="erode" in="SourceAlpha" result="effect1_dropShadow_2_734"/>
<feOffset dy="4"/>
<feGaussianBlur stdDeviation="13.05"/>
<feComposite in2="hardAlpha" operator="out"/>
<feColorMatrix type="matrix" values="0 0 0 0 0.345833 0 0 0 0 0.334306 0 0 0 0 0.334306 0 0 0 0.29 0"/>
<feBlend mode="normal" in2="BackgroundImageFix" result="effect1_dropShadow_2_734"/>
<feBlend mode="normal" in="SourceGraphic" in2="effect1_dropShadow_2_734" result="shape"/>
</filter>
<linearGradient id="paint0_linear_2_734" x1="333.5" y1="50" x2="333.5" y2="75" gradientUnits="userSpaceOnUse">
<stop stop-color="#F4612C"/>
<stop offset="1" stop-color="#E63418"/>
</linearGradient>
</defs>
</svg>
