<svg width="167" height="103" viewBox="0 0 167 103" fill="none" xmlns="http://www.w3.org/2000/svg">
<path d="M65.6406 64V38.5455H76.6278C78.517 38.5455 80.1701 38.8893 81.587 39.5771C83.0039 40.2648 84.1059 41.255 84.8931 42.5476C85.6803 43.8402 86.0739 45.3897 86.0739 47.196C86.0739 49.0189 85.6679 50.556 84.8558 51.8072C84.0521 53.0584 82.921 54.003 81.4627 54.641C80.0127 55.279 78.3182 55.598 76.3793 55.598H69.8168V50.2287H74.9872C75.7992 50.2287 76.4911 50.1293 77.0629 49.9304C77.6429 49.7232 78.0862 49.396 78.3928 48.9485C78.7076 48.5011 78.8651 47.9169 78.8651 47.196C78.8651 46.4669 78.7076 45.8744 78.3928 45.4187C78.0862 44.9547 77.6429 44.6149 77.0629 44.3995C76.4911 44.1758 75.7992 44.0639 74.9872 44.0639H72.5511V64H65.6406ZM80.5554 52.3168L86.919 64H79.4119L73.1974 52.3168H80.5554ZM95.6317 64H88.1744L96.5763 38.5455H106.022L114.424 64H106.967L101.399 45.5554H101.2L95.6317 64ZM94.2397 53.9574H108.26V59.1278H94.2397V53.9574ZM138.9 38.5455V64H133.133L123.936 50.6264H123.786V64H116.876V38.5455H122.742L131.791 51.8693H131.99V38.5455H138.9ZM151.963 64H142.169V38.5455H151.864C154.482 38.5455 156.744 39.055 158.65 40.0742C160.564 41.0851 162.039 42.5434 163.074 44.4492C164.119 46.3467 164.641 48.6212 164.641 51.2727C164.641 53.9242 164.123 56.2029 163.087 58.1087C162.051 60.0062 160.585 61.4645 158.687 62.4837C156.79 63.4946 154.548 64 151.963 64ZM149.079 58.1335H151.714C152.974 58.1335 154.047 57.9305 154.934 57.5245C155.828 57.1185 156.508 56.4183 156.972 55.424C157.444 54.4297 157.68 53.0459 157.68 51.2727C157.68 49.4995 157.44 48.1158 156.959 47.1214C156.487 46.1271 155.791 45.427 154.871 45.021C153.96 44.6149 152.841 44.4119 151.516 44.4119H149.079V58.1335Z" fill="url(#paint0_linear_2_740)"/>
<path d="M44.13 40.5866C43.8684 39.5201 43.4558 38.5844 42.8924 37.7795C42.329 36.9544 41.6246 36.2602 40.7795 35.6967C39.9544 35.1132 38.9885 34.6805 37.8817 34.3988C36.7951 34.0969 35.5978 33.946 34.2898 33.946C31.4725 33.946 29.0678 34.6201 27.0756 35.9684C25.1036 37.3166 23.5943 39.2585 22.5479 41.794C21.5217 44.3295 21.0085 47.3883 21.0085 50.9702C21.0085 54.5923 21.5015 57.6913 22.4876 60.267C23.4736 62.8428 24.9426 64.8149 26.8945 66.1832C28.8465 67.5516 31.2713 68.2358 34.169 68.2358C36.7247 68.2358 38.8477 67.8635 40.538 67.119C42.2485 66.3744 43.5263 65.3179 44.3715 63.9496C45.2166 62.5812 45.6392 60.9714 45.6392 59.12L48.5369 59.4219H34.4105V47.4688H61.8182V56.0412C61.8182 61.6757 60.6209 66.4951 58.2262 70.4996C55.8517 74.484 52.5716 77.5427 48.386 79.6758C44.2205 81.7887 39.4413 82.8452 34.0483 82.8452C28.0315 82.8452 22.7492 81.5674 18.2014 79.0117C13.6535 76.4561 10.1018 72.8138 7.54617 68.0849C5.01065 63.3559 3.7429 57.7315 3.7429 51.2116C3.7429 46.1004 4.51764 41.5727 6.06712 37.6285C7.63672 33.6844 9.81001 30.354 12.587 27.6374C15.364 24.9007 18.5736 22.8381 22.2159 21.4496C25.8582 20.041 29.7621 19.3366 33.9276 19.3366C37.59 19.3366 40.9908 19.8598 44.13 20.9062C47.2893 21.9325 50.0764 23.4015 52.4911 25.3132C54.926 27.2048 56.888 29.4485 58.3771 32.0444C59.8662 34.6403 60.7718 37.4877 61.0938 40.5866H44.13Z" fill="url(#paint1_linear_2_740)"/>
<path d="M66.6832 71.321V70.5455H73.5387V71.321H70.5426V80H69.6793V71.321H66.6832ZM79.9022 80V70.5455H82.9537C83.6247 70.5455 84.1848 70.667 84.6341 70.9102C85.0865 71.1502 85.4266 71.4841 85.6544 71.9119C85.8852 72.3366 86.0006 72.8245 86.0006 73.3754C86.0006 73.9263 85.8852 74.4125 85.6544 74.8342C85.4266 75.2558 85.0881 75.5851 84.6388 75.8221C84.1894 76.0591 83.6324 76.1776 82.9676 76.1776H80.3685V75.3881H82.9445C83.4369 75.3881 83.8463 75.3066 84.1725 75.1435C84.5018 74.9804 84.7465 74.748 84.9065 74.4464C85.0696 74.1448 85.1512 73.7878 85.1512 73.3754C85.1512 72.9629 85.0696 72.6029 84.9065 72.2951C84.7434 71.9843 84.4972 71.7442 84.1679 71.5749C83.8416 71.4057 83.4292 71.321 82.9307 71.321H80.7655V80H79.9022ZM84.0709 75.7344L86.3976 80H85.4005L83.0968 75.7344H84.0709ZM98.8249 70.5455H99.6882V76.8054C99.6882 77.4486 99.5374 78.0241 99.2358 78.532C98.9342 79.0367 98.5141 79.4353 97.9755 79.7276C97.44 80.0169 96.8167 80.1616 96.1058 80.1616C95.3979 80.1616 94.7747 80.0154 94.2361 79.723C93.6975 79.4306 93.2774 79.0321 92.9758 78.5273C92.6742 78.0226 92.5234 77.4486 92.5234 76.8054V70.5455H93.3867V76.7454C93.3867 77.247 93.499 77.6948 93.7237 78.0888C93.9484 78.4796 94.2638 78.7874 94.6701 79.0121C95.0794 79.2367 95.558 79.3491 96.1058 79.3491C96.6536 79.3491 97.1322 79.2367 97.5415 79.0121C97.9509 78.7874 98.2663 78.4796 98.4879 78.0888C98.7126 77.6948 98.8249 77.247 98.8249 76.7454V70.5455ZM114.022 73.5H113.154C113.09 73.1768 112.973 72.8783 112.803 72.6044C112.637 72.3274 112.428 72.0858 112.175 71.8796C111.923 71.6734 111.637 71.5134 111.317 71.3995C110.997 71.2856 110.651 71.2287 110.278 71.2287C109.681 71.2287 109.136 71.3841 108.644 71.695C108.155 72.0058 107.762 72.4628 107.467 73.0661C107.174 73.6662 107.028 74.4018 107.028 75.2727C107.028 76.1499 107.174 76.8885 107.467 77.4886C107.762 78.0888 108.155 78.5443 108.644 78.8551C109.136 79.1629 109.681 79.3168 110.278 79.3168C110.651 79.3168 110.997 79.2598 111.317 79.146C111.637 79.0321 111.923 78.8736 112.175 78.6705C112.428 78.4643 112.637 78.2227 112.803 77.9457C112.973 77.6687 113.09 77.3686 113.154 77.0455H114.022C113.945 77.4794 113.8 77.8841 113.588 78.2596C113.379 78.632 113.111 78.9582 112.785 79.2383C112.462 79.5183 112.089 79.7369 111.668 79.8938C111.246 80.0508 110.783 80.1293 110.278 80.1293C109.484 80.1293 108.779 79.9308 108.164 79.5337C107.548 79.1336 107.065 78.5704 106.714 77.8441C106.366 77.1178 106.193 76.2607 106.193 75.2727C106.193 74.2848 106.366 73.4277 106.714 72.7013C107.065 71.975 107.548 71.4134 108.164 71.0163C108.779 70.6162 109.484 70.4162 110.278 70.4162C110.783 70.4162 111.246 70.4947 111.668 70.6516C112.089 70.8055 112.462 71.024 112.785 71.3072C113.111 71.5872 113.379 71.9135 113.588 72.2859C113.8 72.6583 113.945 73.063 114.022 73.5ZM120.47 80V70.5455H121.333V75.6374H121.416L126.033 70.5455H127.168L123.129 74.9173L127.15 80H126.097L122.593 75.5174L121.333 76.93V80H120.47ZM134.081 70.5455V80H133.218V70.5455H134.081ZM148.378 70.5455V80H147.538L141.952 72.0827H141.878V80H141.015V70.5455H141.851L147.455 78.4719H147.529V70.5455H148.378ZM161.853 73.5C161.767 73.1861 161.641 72.8922 161.475 72.6183C161.309 72.3413 161.102 72.0997 160.856 71.8935C160.613 71.6842 160.332 71.5211 160.011 71.4041C159.694 71.2872 159.341 71.2287 158.95 71.2287C158.334 71.2287 157.783 71.3887 157.297 71.7088C156.811 72.0289 156.426 72.4905 156.143 73.0938C155.863 73.697 155.723 74.4233 155.723 75.2727C155.723 76.1191 155.864 76.8439 156.147 77.4471C156.431 78.0503 156.818 78.5135 157.311 78.8366C157.806 79.1567 158.373 79.3168 159.01 79.3168C159.591 79.3168 160.105 79.1875 160.552 78.929C160.998 78.6705 161.346 78.3011 161.595 77.821C161.847 77.3409 161.97 76.77 161.964 76.1083L162.241 76.196H159.213V75.4205H162.804V76.196C162.804 77.0024 162.641 77.6995 162.315 78.2873C161.989 78.8751 161.541 79.3291 160.972 79.6491C160.402 79.9692 159.748 80.1293 159.01 80.1293C158.185 80.1293 157.463 79.9308 156.845 79.5337C156.226 79.1336 155.744 78.5704 155.4 77.8441C155.058 77.1147 154.887 76.2576 154.887 75.2727C154.887 74.531 154.986 73.8616 155.183 73.2646C155.38 72.6675 155.658 72.1566 156.018 71.7319C156.381 71.3072 156.811 70.9825 157.306 70.7578C157.802 70.5301 158.35 70.4162 158.95 70.4162C159.467 70.4162 159.939 70.4978 160.367 70.6609C160.798 70.824 161.176 71.0487 161.503 71.3349C161.832 71.618 162.101 71.9458 162.31 72.3182C162.523 72.6875 162.666 73.0814 162.74 73.5H161.853Z" fill="#004F6E"/>
<defs>
<linearGradient id="paint0_linear_2_740" x1="115.5" y1="30" x2="115.5" y2="72" gradientUnits="userSpaceOnUse">
<stop stop-color="#F4612C"/>
<stop offset="1" stop-color="#DF1C0D"/>
</linearGradient>
<linearGradient id="paint1_linear_2_740" x1="33" y1="0" x2="33" y2="103" gradientUnits="userSpaceOnUse">
<stop stop-color="#F4612C"/>
<stop offset="1" stop-color="#DF1C0D"/>
</linearGradient>
</defs>
</svg>
