<svg aria-hidden="true" style="position: absolute; width: 0; height: 0; overflow: hidden;" version="1.1" xmlns="http://www.w3.org/2000/svg" xmlns:xlink="http://www.w3.org/1999/xlink">
<defs>
<symbol id="icon-Vector-1-copy" viewBox="0 0 32 32">
<path fill="#fff" style="fill: var(--color1, #fff)" d="M4.767 5.096c-0.189-0.2-0.181-0.515 0.018-0.705s0.513-0.181 0.702 0.018l1.966 2.079c0.189 0.2 0.181 0.515-0.018 0.705-0.096 0.091-0.219 0.137-0.342 0.137-0.131 0-0.263-0.052-0.36-0.155l-1.966-2.079zM2.98 15.16l-2.834-0.345c-0.272-0.033-0.466-0.282-0.433-0.555s0.282-0.469 0.553-0.435l2.834 0.346c0.272 0.033 0.466 0.282 0.433 0.555-0.031 0.253-0.245 0.439-0.492 0.439-0.020-0-0.040-0.002-0.060-0.004zM5.301 23.027c0.148 0.232 0.081 0.54-0.15 0.689l-2.404 1.546c-0.083 0.053-0.176 0.079-0.267 0.079-0.164 0-0.324-0.081-0.419-0.23-0.148-0.232-0.081-0.54 0.15-0.689l2.404-1.547c0.231-0.148 0.538-0.081 0.686 0.151zM12.251 28.924l-0.873 2.73c-0.068 0.212-0.263 0.346-0.473 0.346-0.050 0-0.102-0.008-0.152-0.024-0.261-0.084-0.405-0.365-0.321-0.627l0.873-2.73c0.084-0.262 0.363-0.407 0.625-0.322s0.405 0.365 0.321 0.627zM22.088 31.061c0.102 0.256-0.022 0.546-0.277 0.648-0.060 0.024-0.123 0.035-0.184 0.035-0.197 0-0.384-0.118-0.461-0.314l-1.058-2.663c-0.102-0.256 0.022-0.546 0.277-0.648s0.544 0.022 0.645 0.278l1.058 2.663zM30.165 24.433c-0.090 0.165-0.26 0.259-0.436 0.259-0.081 0-0.162-0.020-0.238-0.061l-2.505-1.376c-0.241-0.132-0.329-0.435-0.197-0.677s0.433-0.331 0.674-0.198l2.505 1.376c0.241 0.132 0.329 0.435 0.197 0.677zM31.597 14.064l-2.804 0.541c-0.032 0.006-0.063 0.009-0.094 0.009-0.233 0-0.441-0.166-0.487-0.405-0.052-0.27 0.124-0.532 0.394-0.584l2.804-0.541c0.269-0.052 0.53 0.125 0.581 0.396s-0.125 0.531-0.394 0.584zM26.452 3.868c0.211 0.175 0.241 0.49 0.066 0.702l-1.818 2.21c-0.098 0.119-0.24 0.181-0.383 0.181-0.112 0-0.224-0.037-0.316-0.114-0.211-0.175-0.241-0.49-0.066-0.702l1.818-2.21c0.175-0.212 0.488-0.242 0.699-0.067zM15.588 3.365v-2.867c0-0.275 0.223-0.499 0.497-0.499s0.497 0.223 0.497 0.499v2.867c0 0.275-0.223 0.499-0.497 0.499s-0.497-0.223-0.497-0.499zM17.633 19.066c-0.343 0-0.621-0.28-0.621-0.624s0.279-0.624 0.621-0.624c0.343 0 0.621 0.28 0.621 0.624s-0.279 0.624-0.621 0.624zM17.633 16.82c-0.89 0-1.614 0.727-1.614 1.621s0.724 1.621 1.614 1.621c0.89 0 1.614-0.727 1.614-1.621s-0.725-1.621-1.614-1.621zM14.967 13.025c0.343 0 0.621 0.28 0.621 0.624s-0.279 0.624-0.621 0.624c-0.343 0-0.621-0.28-0.621-0.624s0.279-0.624 0.621-0.624zM14.967 15.27c0.89 0 1.614-0.727 1.614-1.621s-0.724-1.621-1.614-1.621c-0.89 0-1.614 0.727-1.614 1.621s0.725 1.621 1.614 1.621zM18.328 14.687l-4.283 4.3c-0.097 0.097-0.224 0.146-0.351 0.146s-0.254-0.049-0.351-0.146c-0.194-0.195-0.194-0.51 0-0.705l4.282-4.3c0.194-0.195 0.508-0.195 0.702 0s0.194 0.51 0 0.705zM24.879 18.629l-3.099 0.475c-1.121 0.172-1.967 1.237-1.884 2.373l0.228 3.14c0.009 0.125 0.003 0.215-0.007 0.275-0.053-0.030-0.127-0.081-0.219-0.166l-2.302-2.137c-0.404-0.375-0.941-0.582-1.511-0.582s-1.107 0.206-1.511 0.582l-2.302 2.137c-0.092 0.085-0.166 0.137-0.219 0.166-0.010-0.060-0.017-0.15-0.007-0.275l0.228-3.14c0.083-1.136-0.763-2.2-1.885-2.373l-3.099-0.475c-0.123-0.019-0.209-0.045-0.266-0.068 0.041-0.045 0.107-0.106 0.21-0.177l2.587-1.779c0.936-0.644 1.238-1.972 0.673-2.959l-1.562-2.729c-0.062-0.109-0.095-0.193-0.112-0.251 0.057 0.003 0.145 0.016 0.268 0.054l2.998 0.922c0.202 0.062 0.414 0.094 0.628 0.094 0.921 0 1.763-0.567 2.095-1.411l1.151-2.928c0.046-0.116 0.090-0.195 0.125-0.245 0.035 0.050 0.079 0.128 0.125 0.245l1.151 2.928c0.332 0.844 1.173 1.411 2.095 1.411 0.215 0 0.425-0.032 0.628-0.094l2.998-0.922c0.124-0.038 0.211-0.051 0.269-0.054-0.017 0.058-0.050 0.142-0.112 0.251l-1.562 2.729c-0.565 0.988-0.264 2.315 0.673 2.959l2.587 1.779c0.103 0.071 0.169 0.132 0.21 0.177-0.058 0.023-0.144 0.049-0.267 0.068h0zM25.496 17.561l-2.587-1.779c-0.51-0.351-0.681-1.101-0.373-1.639l1.562-2.729c0.367-0.641 0.279-1.062 0.141-1.302-0.095-0.166-0.334-0.444-0.859-0.444-0.178 0-0.376 0.033-0.59 0.099l-2.998 0.922c-0.108 0.033-0.222 0.050-0.338 0.050-0.509 0-0.991-0.321-1.171-0.78l-1.151-2.928c-0.319-0.811-0.794-0.932-1.049-0.932s-0.73 0.121-1.049 0.932l-1.151 2.928c-0.18 0.459-0.662 0.78-1.172 0.78-0.116 0-0.229-0.017-0.337-0.050l-2.998-0.922c-0.213-0.066-0.411-0.099-0.589-0.099-0.525 0-0.764 0.278-0.859 0.444-0.138 0.24-0.226 0.661 0.141 1.302l1.562 2.729c0.308 0.538 0.137 1.289-0.373 1.639l-2.587 1.779c-0.716 0.493-0.728 0.985-0.671 1.234s0.28 0.688 1.138 0.82l3.099 0.475c0.611 0.094 1.089 0.696 1.044 1.315l-0.228 3.14c-0.036 0.49 0.062 0.862 0.29 1.108 0.162 0.175 0.385 0.272 0.626 0.272 0.314 0 0.641-0.157 0.975-0.466l2.302-2.137c0.22-0.204 0.518-0.317 0.837-0.317s0.617 0.112 0.837 0.317l2.302 2.137c0.333 0.309 0.661 0.466 0.975 0.466 0.241 0 0.463-0.096 0.626-0.272 0.228-0.246 0.325-0.618 0.29-1.108l-0.228-3.14c-0.045-0.619 0.433-1.221 1.044-1.315l3.099-0.475c0.858-0.131 1.081-0.57 1.138-0.82 0.059-0.25 0.048-0.742-0.669-1.234z"></path>
</symbol>
<symbol id="icon-icon" viewBox="0 0 32 32">
<path fill="none" stroke="#e50f1c" style="stroke: var(--color2, #e50f1c)" stroke-linejoin="miter" stroke-linecap="round" stroke-miterlimit="4" stroke-width="0.8727" d="M6.701 22.609l5.259-2.975c0.437-0.247 1.186-0.341 1.67-0.21l5.415 1.464c0.581 0.157 0.907 0.751 0.726 1.328l-0.004 0.012c-0.18 0.576-0.817 1.010-1.418 0.969l-4.434-0.303"></path>
<path fill="none" stroke="#e50f1c" style="stroke: var(--color2, #e50f1c)" stroke-linejoin="miter" stroke-linecap="round" stroke-miterlimit="4" stroke-width="0.8727" d="M19.878 22.303l7.568-1.235c0.547-0.089 1.081 0.275 1.194 0.817l-0.007-0.034c0.113 0.54-0.203 1.163-0.709 1.393l-10.275 4.66c-0.459 0.208-1.237 0.377-1.74 0.377l-9.135-0"></path>
<path fill="none" stroke="#e50f1c" style="stroke: var(--color2, #e50f1c)" stroke-linejoin="miter" stroke-linecap="butt" stroke-miterlimit="4" stroke-width="0.8727" d="M3.782 21.161v7.867h2.907v-7.867h-2.907z"></path>
<path fill="none" stroke="#e50f1c" style="stroke: var(--color2, #e50f1c)" stroke-linejoin="round" stroke-linecap="round" stroke-miterlimit="10" stroke-width="0.8727" d="M7.564 5.743l5.759-3.416 10.943 6.262-5.759 3.416-10.943-6.262z"></path>
<path fill="none" stroke="#e50f1c" style="stroke: var(--color2, #e50f1c)" stroke-linejoin="round" stroke-linecap="round" stroke-miterlimit="10" stroke-width="0.8727" d="M24.266 5.743l-5.759-3.416-10.943 6.262 5.759 3.416 10.943-6.262z"></path>
<path fill="none" stroke="#e50f1c" style="stroke: var(--color2, #e50f1c)" stroke-linejoin="round" stroke-linecap="round" stroke-miterlimit="10" stroke-width="0.8727" d="M21.779 7.166l0.183 0.105v-0.105h-0.183z"></path>
<path fill="none" stroke="#e50f1c" style="stroke: var(--color2, #e50f1c)" stroke-linejoin="round" stroke-linecap="round" stroke-miterlimit="10" stroke-width="0.8727" d="M15.915 10.522v6.891l6.047-3.416v-4.042l-3.456 2.049-2.592-1.483z"></path>
<path fill="none" stroke="#e50f1c" style="stroke: var(--color2, #e50f1c)" stroke-linejoin="round" stroke-linecap="round" stroke-miterlimit="10" stroke-width="0.8727" d="M13.323 12.005l-3.168-1.879v3.871l5.759 3.416v-6.891l-2.592 1.483z"></path>
</symbol>
<symbol id="icon-icon-2" viewBox="0 0 32 32">
<path fill="#e50f1c" style="fill: var(--color2, #e50f1c)" d="M15.897 5.527c-0.198-0.001-0.374 0.126-0.44 0.315l-0.697 2.038-2.126 0.044c-0.198 0.004-0.371 0.135-0.432 0.326s0.003 0.4 0.161 0.521l1.694 1.301-0.616 2.065c-0.057 0.192 0.012 0.4 0.172 0.518s0.376 0.12 0.539 0.006l1.745-1.232 1.745 1.232c0.163 0.114 0.379 0.112 0.539-0.006s0.229-0.326 0.172-0.518l-0.616-2.065 1.694-1.301c0.157-0.122 0.222-0.331 0.161-0.521s-0.234-0.321-0.432-0.326l-2.125-0.044-0.699-2.038c-0.066-0.189-0.241-0.315-0.439-0.315h0zM15.897 7.436l0.365 1.063c0.064 0.186 0.235 0.313 0.429 0.317l1.112 0.023-0.886 0.681c-0.155 0.12-0.22 0.325-0.163 0.513l0.321 1.079-0.913-0.645c-0.159-0.112-0.371-0.112-0.53 0l-0.913 0.645 0.321-1.079c0.057-0.189-0.009-0.394-0.164-0.513l-0.886-0.681 1.111-0.023c0.194-0.004 0.366-0.13 0.43-0.317l0.364-1.063zM6.96 8.129h-0c-0.197 0-0.373 0.128-0.437 0.319l-0.586 1.721-1.781 0.037c-0.197 0.004-0.371 0.135-0.432 0.327s0.004 0.402 0.161 0.524l1.419 1.101-0.516 1.745c-0.057 0.193 0.012 0.401 0.172 0.52s0.375 0.121 0.536 0.006l1.463-1.041 1.463 1.041c0.162 0.114 0.376 0.111 0.536-0.007s0.228-0.326 0.171-0.519l-0.516-1.745 1.419-1.101c0.158-0.122 0.222-0.332 0.161-0.524s-0.234-0.323-0.432-0.327l-1.78-0.037-0.587-1.721c-0.065-0.19-0.239-0.318-0.436-0.319h0zM24.826 8.131l-0 0c-0.197 0-0.372 0.127-0.437 0.318l-0.586 1.722-1.781 0.037c-0.197 0.004-0.371 0.135-0.432 0.327s0.004 0.402 0.161 0.524l1.419 1.101-0.516 1.745c-0.057 0.193 0.012 0.402 0.172 0.52s0.375 0.121 0.536 0.006l1.463-1.041 1.463 1.041c0.162 0.115 0.377 0.113 0.536-0.006s0.228-0.327 0.172-0.52l-0.517-1.745 1.419-1.101c0.157-0.122 0.222-0.332 0.161-0.524s-0.234-0.323-0.432-0.327l-1.78-0.037-0.586-1.722c-0.065-0.19-0.24-0.318-0.437-0.318l0-0zM6.96 10.047l0.252 0.745-0 0c0.064 0.187 0.234 0.314 0.428 0.318l0.772 0.016-0.615 0.477c-0.154 0.12-0.22 0.326-0.163 0.515l0.223 0.755-0.634-0.45c-0.159-0.113-0.369-0.113-0.528 0l-0.633 0.45 0.223-0.755c0.056-0.19-0.009-0.395-0.163-0.515l-0.614-0.478 0.771-0.016c0.194-0.004 0.364-0.131 0.428-0.318l0.253-0.745zM24.826 10.048l0.253 0.745-0 0c0.064 0.187 0.234 0.314 0.428 0.318l0.771 0.016-0.614 0.478c-0.155 0.12-0.22 0.325-0.164 0.515l0.224 0.755-0.634-0.451c-0.159-0.113-0.37-0.113-0.529 0l-0.633 0.451 0.223-0.755c0.056-0.19-0.009-0.395-0.163-0.515l-0.614-0.478 0.771-0.016c0.194-0.004 0.365-0.131 0.428-0.318l0.253-0.745zM15.855 14.153c-1.667 0-3.030 1.376-3.030 3.057 0 0.996 0.478 1.884 1.214 2.442-1.389 0.514-2.504 1.601-3.064 2.977-0.512-0.972-1.351-1.739-2.368-2.147 0.599-0.499 0.982-1.256 0.982-2.098 0-1.489-1.199-2.711-2.668-2.711s-2.664 1.223-2.664 2.711c0 0.842 0.381 1.599 0.979 2.098-1.704 0.684-2.908 2.375-2.908 4.349v1.169l-0 0.001c0.001 0.259 0.209 0.468 0.466 0.468h8.221c0.011 0.002 0.023 0.003 0.035 0.004h17.865c0.124 0 0.244-0.049 0.332-0.138s0.137-0.209 0.137-0.334v-1.166c0-1.975-1.206-3.667-2.912-4.352 0.599-0.499 0.984-1.255 0.984-2.098 0-1.489-1.199-2.707-2.668-2.707s-2.664 1.219-2.664 2.707c0 0.842 0.383 1.599 0.981 2.098-1.019 0.409-1.858 1.177-2.369 2.151-0.559-1.378-1.673-2.466-3.063-2.98 0.735-0.558 1.211-1.446 1.211-2.442 0-1.682-1.359-3.057-3.026-3.057l0-0zM15.855 15.094c1.162 0 2.093 0.943 2.093 2.117s-0.931 2.114-2.093 2.114c-1.162 0-2.097-0.94-2.097-2.114s0.935-2.117 2.097-2.117zM6.92 16.614c0.96 0 1.735 0.785 1.735 1.771s-0.775 1.77-1.735 1.77c-0.96 0-1.732-0.785-1.732-1.77s0.771-1.771 1.732-1.771zM24.785 16.618c0.96 0 1.735 0.782 1.735 1.767s-0.775 1.77-1.735 1.77c-0.96 0-1.732-0.785-1.732-1.77s0.771-1.767 1.732-1.767zM15.854 20.27c2.412 0 4.338 1.948 4.338 4.384v0.878h-8.676v-0.701c0-0.059-0.001-0.119-0.004-0.177 0-2.436 1.929-4.384 4.341-4.384l0-0zM6.92 21.1c1.987 0 3.586 1.576 3.66 3.586v0.842h-7.319v-0.697c0-2.079 1.625-3.732 3.659-3.732l0 0zM24.785 21.1c2.034 0 3.664 1.655 3.664 3.734v0.698l-7.324-0v-0.698c0-2.079 1.626-3.734 3.66-3.734l-0 0z"></path>
</symbol>
<symbol id="icon-icon-3" viewBox="0 0 32 32">
<path fill="#e50f1c" style="fill: var(--color2, #e50f1c)" d="M15.856 4.683c-2.233 0-4.374 0.887-5.953 2.466s-2.466 3.72-2.466 5.953c0 2.233 0.887 4.374 2.466 5.953s3.72 2.466 5.953 2.466 4.374-0.887 5.953-2.466c1.579-1.579 2.466-3.72 2.466-5.953-0.003-2.232-0.89-4.372-2.469-5.95s-3.718-2.466-5.95-2.468l0 0zM15.856 20.592c-1.987 0-3.892-0.789-5.296-2.194s-2.194-3.31-2.194-5.297c0-1.986 0.789-3.892 2.194-5.296s3.31-2.194 5.296-2.194 3.892 0.789 5.296 2.194c1.405 1.405 2.194 3.31 2.194 5.296-0.003 1.986-0.792 3.89-2.197 5.294s-3.308 2.194-5.294 2.197h0zM26.767 11.51l-1.392-1.582 0.167-2.088h0c0.039-0.552-0.12-1.101-0.449-1.546s-0.807-0.758-1.347-0.882l-2.042-0.464-1.081-1.791c-0.291-0.481-0.746-0.84-1.281-1.010s-1.114-0.141-1.629 0.082l-1.912 0.831-1.935-0.803c-0.514-0.212-1.088-0.232-1.616-0.057s-0.976 0.535-1.261 1.013l-1.076 1.801-2.037 0.487c-0.54 0.131-1.014 0.451-1.338 0.903s-0.475 1.004-0.426 1.557l0.19 2.088-1.374 1.597c-0.363 0.421-0.563 0.959-0.563 1.515s0.2 1.094 0.563 1.515l1.392 1.582-0.167 2.088c-0.043 0.558 0.116 1.113 0.45 1.562s0.818 0.763 1.365 0.884l2.047 0.464 1.091 1.791c0.424 0.681 1.166 1.097 1.968 1.105 0.31-0 0.616-0.063 0.9-0.186l1.931-0.821 1.935 0.803c0.511 0.215 1.083 0.239 1.611 0.069s0.977-0.524 1.267-0.997l0.882-1.471v7.37l-5.49-3.713c-0.157-0.106-0.363-0.106-0.52 0l-5.49 3.713v-5.759c0-0.256-0.208-0.464-0.464-0.464s-0.464 0.208-0.464 0.464v6.627c-0.001 0.173 0.093 0.332 0.246 0.413 0.068 0.033 0.143 0.050 0.218 0.051 0.092 0 0.183-0.027 0.26-0.079l5.964-4 5.954 4c0.142 0.096 0.326 0.106 0.478 0.025s0.246-0.239 0.246-0.41v-8.767l1.304-0.316c0.54-0.131 1.014-0.451 1.338-0.903s0.475-1.004 0.426-1.557l-0.181-2.093 1.365-1.597c0.364-0.424 0.563-0.966 0.56-1.526s-0.209-1.099-0.578-1.519l-0 0.001zM26.066 13.956l-1.476 1.731c-0.082 0.095-0.122 0.219-0.111 0.344l0.195 2.292c0.030 0.333-0.060 0.666-0.255 0.938s-0.482 0.464-0.807 0.542l-2.213 0.524c-0.122 0.029-0.228 0.106-0.293 0.213l-1.174 1.968c-0.167 0.293-0.434 0.516-0.752 0.627s-0.666 0.103-0.979-0.023l-2.116-0.877c-0.114-0.048-0.243-0.048-0.357 0l-2.107 0.877c-0.307 0.132-0.652 0.149-0.971 0.047s-0.59-0.314-0.765-0.599l-1.197-1.954c-0.065-0.106-0.171-0.181-0.292-0.209l-2.232-0.511c-0.325-0.075-0.613-0.264-0.811-0.533s-0.292-0.6-0.266-0.933l0.176-2.269c0.010-0.123-0.031-0.245-0.111-0.339l-1.504-1.745c-0.218-0.253-0.338-0.576-0.338-0.909s0.12-0.657 0.338-0.91l1.49-1.745c0.082-0.095 0.122-0.219 0.111-0.343l-0.209-2.279c-0.030-0.331 0.059-0.661 0.252-0.932s0.475-0.463 0.797-0.544l2.228-0.534c0.122-0.029 0.228-0.106 0.293-0.213l1.174-1.968c0.172-0.294 0.445-0.514 0.768-0.62s0.674-0.090 0.986 0.045l2.093 0.877c0.114 0.048 0.243 0.048 0.357 0l2.107-0.9c0.307-0.132 0.652-0.148 0.971-0.047s0.59 0.314 0.765 0.599l1.198 1.954c0.065 0.106 0.171 0.181 0.292 0.209l2.232 0.511c0.328 0.075 0.618 0.266 0.816 0.538s0.291 0.607 0.261 0.942l-0.176 2.288c-0.009 0.123 0.031 0.245 0.111 0.339l1.504 1.713c0.218 0.253 0.338 0.576 0.338 0.91s-0.12 0.657-0.338 0.91l-0-0z"></path>
<path fill="#e50f1c" style="fill: var(--color2, #e50f1c)" d="M12.021 13.517c0 0 0-0.082 0-0.245 0-0.165 0-0.378 0-0.638s0-0.534 0-0.824c0-0.291 0-0.567 0-0.827s0-0.471 0-0.635c0-0.165 0-0.248 0-0.248h-0.052c0 0-0.052 0.036-0.155 0.109-0.102 0.073-0.22 0.157-0.356 0.254-0.134 0.096-0.253 0.181-0.356 0.254-0.102 0.073-0.152 0.109-0.152 0.109v-0.806c0 0 0.054-0.038 0.161-0.115 0.109-0.077 0.235-0.165 0.376-0.266 0.142-0.102 0.266-0.192 0.374-0.269s0.161-0.115 0.161-0.115h0.868v4.26h-0.868z"></path>
<path fill="#e50f1c" style="fill: var(--color2, #e50f1c)" d="M15.656 13.627c-0.498 0-0.902-0.115-1.213-0.345-0.308-0.23-0.463-0.53-0.463-0.9 0-0.268 0.083-0.501 0.25-0.7s0.389-0.329 0.667-0.39v-0.053c-0.224-0.053-0.405-0.164-0.543-0.334s-0.207-0.367-0.207-0.593c0-0.34 0.142-0.619 0.425-0.835 0.284-0.218 0.646-0.328 1.086-0.328s0.802 0.109 1.083 0.328c0.282 0.216 0.422 0.495 0.422 0.835 0 0.226-0.068 0.424-0.204 0.593-0.134 0.167-0.315 0.278-0.543 0.334v0.053c0.276 0.053 0.497 0.179 0.664 0.378 0.169 0.197 0.253 0.431 0.253 0.703 0 0.374-0.155 0.677-0.466 0.909-0.308 0.23-0.713 0.345-1.213 0.345zM15.656 12.971c0.23 0 0.416-0.062 0.557-0.186s0.213-0.285 0.213-0.484c0-0.199-0.072-0.36-0.215-0.484-0.142-0.126-0.327-0.189-0.555-0.189s-0.414 0.063-0.557 0.189c-0.142 0.124-0.213 0.285-0.213 0.484s0.071 0.36 0.213 0.484c0.144 0.124 0.329 0.186 0.557 0.186zM15.656 10.988c0.193 0 0.351-0.055 0.471-0.165 0.121-0.112 0.181-0.255 0.181-0.428 0-0.177-0.060-0.322-0.181-0.434s-0.278-0.168-0.471-0.168c-0.192 0-0.348 0.056-0.468 0.168s-0.181 0.257-0.181 0.434c0 0.173 0.060 0.316 0.181 0.428 0.123 0.11 0.279 0.165 0.468 0.165z"></path>
<path fill="#e50f1c" style="fill: var(--color2, #e50f1c)" d="M20.104 12.186c0 0 0 0.061 0 0.183 0 0.12 0 0.261 0 0.422 0 0.159 0 0.3 0 0.422 0 0.12 0 0.18 0 0.18h-0.75v-1.207h-1.115v-0.753h1.115v-1.207h0.75v1.207h1.118v0.753h-1.118z"></path>
<path fill="#e50f1c" style="fill: var(--color2, #e50f1c)" d="M12.098 17.314c-0.005 0-0.021 0-0.047 0s-0.053-0.001-0.081-0.002c-0.026-0.001-0.043-0.002-0.049-0.003v-0.353c0.008 0.002 0.025 0.003 0.051 0.003 0.026 0.001 0.044 0.002 0.054 0.002 0.086 0 0.155-0.015 0.206-0.045s0.085-0.080 0.103-0.149l0.016-0.064-0.61-1.722h0.507l0.367 1.306h0.028l0.367-1.306h0.487l-0.601 1.744c-0.074 0.219-0.171 0.372-0.291 0.459s-0.289 0.131-0.506 0.131z"></path>
<path fill="#e50f1c" style="fill: var(--color2, #e50f1c)" d="M14.504 15.282c-0.106 0-0.194 0.035-0.264 0.104-0.068 0.068-0.107 0.16-0.115 0.275h0.741c-0.004-0.117-0.039-0.209-0.104-0.277-0.064-0.068-0.15-0.103-0.258-0.103zM14.877 16.209c0 0 0.022 0 0.065 0s0.093 0 0.149 0c0.057 0 0.107 0 0.15 0s0.065 0 0.065 0c-0.034 0.16-0.122 0.287-0.264 0.381-0.142 0.093-0.32 0.14-0.533 0.14-0.266 0-0.473-0.078-0.623-0.233-0.149-0.156-0.223-0.374-0.223-0.651s0.075-0.497 0.224-0.659c0.151-0.162 0.356-0.243 0.615-0.243 0.257 0 0.457 0.077 0.601 0.23 0.144 0.152 0.217 0.364 0.217 0.634v0.135h-1.197v0.023c0.003 0.131 0.040 0.234 0.111 0.311 0.072 0.076 0.168 0.113 0.288 0.113 0.091 0 0.166-0.016 0.226-0.047 0.061-0.032 0.104-0.077 0.13-0.135z"></path>
<path fill="#e50f1c" style="fill: var(--color2, #e50f1c)" d="M16.323 16.388c0.106 0 0.195-0.031 0.266-0.092 0.072-0.061 0.108-0.136 0.108-0.225v-0.129l-0.351 0.023c-0.196 0.013-0.294 0.084-0.294 0.211 0 0.065 0.025 0.117 0.076 0.155 0.051 0.037 0.116 0.056 0.196 0.056zM16.172 16.719c-0.168 0-0.305-0.047-0.411-0.14s-0.16-0.218-0.16-0.375c0-0.318 0.225-0.49 0.675-0.515l0.42-0.025v-0.141c0-0.074-0.025-0.131-0.076-0.171-0.049-0.040-0.122-0.061-0.217-0.061-0.083 0-0.152 0.014-0.206 0.042s-0.090 0.068-0.109 0.121h-0.424c0.015-0.158 0.091-0.282 0.229-0.373 0.138-0.092 0.316-0.138 0.534-0.138 0.231 0 0.409 0.051 0.534 0.154 0.125 0.102 0.188 0.244 0.188 0.426v1.169h-0.447v-0.225h-0.028c-0.044 0.079-0.111 0.14-0.201 0.185s-0.191 0.067-0.303 0.067z"></path>
<path fill="#e50f1c" style="fill: var(--color2, #e50f1c)" d="M17.601 16.692c0 0 0-0.058 0-0.173 0-0.116 0-0.259 0-0.429s0-0.34 0-0.51c0-0.17 0-0.312 0-0.428s0-0.173 0-0.173h0.446v0.272h0.028c0.023-0.086 0.076-0.158 0.158-0.215s0.179-0.085 0.289-0.085c0.032 0 0.064 0.002 0.098 0.006 0.035 0.003 0.062 0.008 0.082 0.014v0.399c-0.018-0.007-0.049-0.013-0.095-0.019-0.044-0.005-0.085-0.008-0.123-0.008-0.125 0-0.228 0.035-0.307 0.104-0.078 0.069-0.117 0.164-0.117 0.284v0.958h-0.46z"></path>
<path fill="#e50f1c" style="fill: var(--color2, #e50f1c)" d="M18.936 15.481c0-0.162 0.066-0.292 0.199-0.39 0.134-0.098 0.309-0.148 0.526-0.148 0.222 0 0.396 0.044 0.522 0.132 0.125 0.087 0.194 0.211 0.207 0.373h-0.425c-0.012-0.056-0.043-0.1-0.095-0.132s-0.12-0.050-0.206-0.050c-0.082 0-0.151 0.017-0.206 0.051-0.054 0.034-0.081 0.079-0.081 0.135 0 0.044 0.019 0.080 0.057 0.109 0.039 0.028 0.099 0.051 0.179 0.068l0.327 0.070c0.169 0.036 0.292 0.092 0.372 0.166 0.079 0.074 0.119 0.174 0.119 0.302 0 0.169-0.071 0.305-0.213 0.407-0.141 0.103-0.326 0.154-0.555 0.154-0.23 0-0.412-0.045-0.547-0.134-0.134-0.089-0.209-0.215-0.224-0.376h0.451c0.018 0.059 0.054 0.105 0.109 0.138 0.056 0.033 0.13 0.050 0.221 0.050 0.090 0 0.162-0.018 0.217-0.053 0.056-0.035 0.084-0.081 0.084-0.138 0-0.044-0.017-0.079-0.052-0.106-0.034-0.028-0.089-0.051-0.166-0.068l-0.316-0.068c-0.17-0.037-0.296-0.096-0.379-0.176-0.082-0.081-0.123-0.187-0.123-0.317z"></path>
</symbol>
</defs>
</svg>
