<!-- Generated by IcoMoon.io -->
<svg version="1.1" xmlns="http://www.w3.org/2000/svg" width="32" height="32" viewBox="0 0 32 32">
<path fill="#e50f1c" d="M15.897 5.527c-0.198-0.001-0.374 0.126-0.44 0.315l-0.697 2.038-2.126 0.044c-0.198 0.004-0.371 0.135-0.432 0.326s0.003 0.4 0.161 0.521l1.694 1.301-0.616 2.065c-0.057 0.192 0.012 0.4 0.172 0.518s0.376 0.12 0.539 0.006l1.745-1.232 1.745 1.232c0.163 0.114 0.379 0.112 0.539-0.006s0.229-0.326 0.172-0.518l-0.616-2.065 1.694-1.301c0.157-0.122 0.222-0.331 0.161-0.521s-0.234-0.321-0.432-0.326l-2.125-0.044-0.699-2.038c-0.066-0.189-0.241-0.315-0.439-0.315h0zM15.897 7.436l0.365 1.063c0.064 0.186 0.235 0.313 0.429 0.317l1.112 0.023-0.886 0.681c-0.155 0.12-0.22 0.325-0.163 0.513l0.321 1.079-0.913-0.645c-0.159-0.112-0.371-0.112-0.53 0l-0.913 0.645 0.321-1.079c0.057-0.189-0.009-0.394-0.164-0.513l-0.886-0.681 1.111-0.023c0.194-0.004 0.366-0.13 0.43-0.317l0.364-1.063zM6.96 8.129h-0c-0.197 0-0.373 0.128-0.437 0.319l-0.586 1.721-1.781 0.037c-0.197 0.004-0.371 0.135-0.432 0.327s0.004 0.402 0.161 0.524l1.419 1.101-0.516 1.745c-0.057 0.193 0.012 0.401 0.172 0.52s0.375 0.121 0.536 0.006l1.463-1.041 1.463 1.041c0.162 0.114 0.376 0.111 0.536-0.007s0.228-0.326 0.171-0.519l-0.516-1.745 1.419-1.101c0.158-0.122 0.222-0.332 0.161-0.524s-0.234-0.323-0.432-0.327l-1.78-0.037-0.587-1.721c-0.065-0.19-0.239-0.318-0.436-0.319h0zM24.826 8.131l-0 0c-0.197 0-0.372 0.127-0.437 0.318l-0.586 1.722-1.781 0.037c-0.197 0.004-0.371 0.135-0.432 0.327s0.004 0.402 0.161 0.524l1.419 1.101-0.516 1.745c-0.057 0.193 0.012 0.402 0.172 0.52s0.375 0.121 0.536 0.006l1.463-1.041 1.463 1.041c0.162 0.115 0.377 0.113 0.536-0.006s0.228-0.327 0.172-0.52l-0.517-1.745 1.419-1.101c0.157-0.122 0.222-0.332 0.161-0.524s-0.234-0.323-0.432-0.327l-1.78-0.037-0.586-1.722c-0.065-0.19-0.24-0.318-0.437-0.318l0-0zM6.96 10.047l0.252 0.745-0 0c0.064 0.187 0.234 0.314 0.428 0.318l0.772 0.016-0.615 0.477c-0.154 0.12-0.22 0.326-0.163 0.515l0.223 0.755-0.634-0.45c-0.159-0.113-0.369-0.113-0.528 0l-0.633 0.45 0.223-0.755c0.056-0.19-0.009-0.395-0.163-0.515l-0.614-0.478 0.771-0.016c0.194-0.004 0.364-0.131 0.428-0.318l0.253-0.745zM24.826 10.048l0.253 0.745-0 0c0.064 0.187 0.234 0.314 0.428 0.318l0.771 0.016-0.614 0.478c-0.155 0.12-0.22 0.325-0.164 0.515l0.224 0.755-0.634-0.451c-0.159-0.113-0.37-0.113-0.529 0l-0.633 0.451 0.223-0.755c0.056-0.19-0.009-0.395-0.163-0.515l-0.614-0.478 0.771-0.016c0.194-0.004 0.365-0.131 0.428-0.318l0.253-0.745zM15.855 14.153c-1.667 0-3.030 1.376-3.030 3.057 0 0.996 0.478 1.884 1.214 2.442-1.389 0.514-2.504 1.601-3.064 2.977-0.512-0.972-1.351-1.739-2.368-2.147 0.599-0.499 0.982-1.256 0.982-2.098 0-1.489-1.199-2.711-2.668-2.711s-2.664 1.223-2.664 2.711c0 0.842 0.381 1.599 0.979 2.098-1.704 0.684-2.908 2.375-2.908 4.349v1.169l-0 0.001c0.001 0.259 0.209 0.468 0.466 0.468h8.221c0.011 0.002 0.023 0.003 0.035 0.004h17.865c0.124 0 0.244-0.049 0.332-0.138s0.137-0.209 0.137-0.334v-1.166c0-1.975-1.206-3.667-2.912-4.352 0.599-0.499 0.984-1.255 0.984-2.098 0-1.489-1.199-2.707-2.668-2.707s-2.664 1.219-2.664 2.707c0 0.842 0.383 1.599 0.981 2.098-1.019 0.409-1.858 1.177-2.369 2.151-0.559-1.378-1.673-2.466-3.063-2.98 0.735-0.558 1.211-1.446 1.211-2.442 0-1.682-1.359-3.057-3.026-3.057l0-0zM15.855 15.094c1.162 0 2.093 0.943 2.093 2.117s-0.931 2.114-2.093 2.114c-1.162 0-2.097-0.94-2.097-2.114s0.935-2.117 2.097-2.117zM6.92 16.614c0.96 0 1.735 0.785 1.735 1.771s-0.775 1.77-1.735 1.77c-0.96 0-1.732-0.785-1.732-1.77s0.771-1.771 1.732-1.771zM24.785 16.618c0.96 0 1.735 0.782 1.735 1.767s-0.775 1.77-1.735 1.77c-0.96 0-1.732-0.785-1.732-1.77s0.771-1.767 1.732-1.767zM15.854 20.27c2.412 0 4.338 1.948 4.338 4.384v0.878h-8.676v-0.701c0-0.059-0.001-0.119-0.004-0.177 0-2.436 1.929-4.384 4.341-4.384l0-0zM6.92 21.1c1.987 0 3.586 1.576 3.66 3.586v0.842h-7.319v-0.697c0-2.079 1.625-3.732 3.659-3.732l0 0zM24.785 21.1c2.034 0 3.664 1.655 3.664 3.734v0.698l-7.324-0v-0.698c0-2.079 1.626-3.734 3.66-3.734l-0 0z"></path>
</svg>
