<!-- Generated by IcoMoon.io -->
<svg version="1.1" xmlns="http://www.w3.org/2000/svg" width="32" height="32" viewBox="0 0 32 32">
<path fill="none" stroke="#e50f1c" stroke-linejoin="miter" stroke-linecap="round" stroke-miterlimit="4" stroke-width="0.8727" d="M6.701 22.609l5.259-2.975c0.437-0.247 1.186-0.341 1.67-0.21l5.415 1.464c0.581 0.157 0.907 0.751 0.726 1.328l-0.004 0.012c-0.18 0.576-0.817 1.010-1.418 0.969l-4.434-0.303"></path>
<path fill="none" stroke="#e50f1c" stroke-linejoin="miter" stroke-linecap="round" stroke-miterlimit="4" stroke-width="0.8727" d="M19.878 22.303l7.568-1.235c0.547-0.089 1.081 0.275 1.194 0.817l-0.007-0.034c0.113 0.54-0.203 1.163-0.709 1.393l-10.275 4.66c-0.459 0.208-1.237 0.377-1.74 0.377l-9.135-0"></path>
<path fill="none" stroke="#e50f1c" stroke-linejoin="miter" stroke-linecap="butt" stroke-miterlimit="4" stroke-width="0.8727" d="M3.782 21.161v7.867h2.907v-7.867h-2.907z"></path>
<path fill="none" stroke="#e50f1c" stroke-linejoin="round" stroke-linecap="round" stroke-miterlimit="10" stroke-width="0.8727" d="M7.564 5.743l5.759-3.416 10.943 6.262-5.759 3.416-10.943-6.262z"></path>
<path fill="none" stroke="#e50f1c" stroke-linejoin="round" stroke-linecap="round" stroke-miterlimit="10" stroke-width="0.8727" d="M24.266 5.743l-5.759-3.416-10.943 6.262 5.759 3.416 10.943-6.262z"></path>
<path fill="none" stroke="#e50f1c" stroke-linejoin="round" stroke-linecap="round" stroke-miterlimit="10" stroke-width="0.8727" d="M21.779 7.166l0.183 0.105v-0.105h-0.183z"></path>
<path fill="none" stroke="#e50f1c" stroke-linejoin="round" stroke-linecap="round" stroke-miterlimit="10" stroke-width="0.8727" d="M15.915 10.522v6.891l6.047-3.416v-4.042l-3.456 2.049-2.592-1.483z"></path>
<path fill="none" stroke="#e50f1c" stroke-linejoin="round" stroke-linecap="round" stroke-miterlimit="10" stroke-width="0.8727" d="M13.323 12.005l-3.168-1.879v3.871l5.759 3.416v-6.891l-2.592 1.483z"></path>
</svg>
