<!-- Generated by IcoMoon.io -->
<svg version="1.1" xmlns="http://www.w3.org/2000/svg" width="32" height="32" viewBox="0 0 32 32">
<path fill="#fff" d="M4.767 5.096c-0.189-0.2-0.181-0.515 0.018-0.705s0.513-0.181 0.702 0.018l1.966 2.079c0.189 0.2 0.181 0.515-0.018 0.705-0.096 0.091-0.219 0.137-0.342 0.137-0.131 0-0.263-0.052-0.36-0.155l-1.966-2.079zM2.98 15.16l-2.834-0.345c-0.272-0.033-0.466-0.282-0.433-0.555s0.282-0.469 0.553-0.435l2.834 0.346c0.272 0.033 0.466 0.282 0.433 0.555-0.031 0.253-0.245 0.439-0.492 0.439-0.020-0-0.040-0.002-0.060-0.004zM5.301 23.027c0.148 0.232 0.081 0.54-0.15 0.689l-2.404 1.546c-0.083 0.053-0.176 0.079-0.267 0.079-0.164 0-0.324-0.081-0.419-0.23-0.148-0.232-0.081-0.54 0.15-0.689l2.404-1.547c0.231-0.148 0.538-0.081 0.686 0.151zM12.251 28.924l-0.873 2.73c-0.068 0.212-0.263 0.346-0.473 0.346-0.050 0-0.102-0.008-0.152-0.024-0.261-0.084-0.405-0.365-0.321-0.627l0.873-2.73c0.084-0.262 0.363-0.407 0.625-0.322s0.405 0.365 0.321 0.627zM22.088 31.061c0.102 0.256-0.022 0.546-0.277 0.648-0.060 0.024-0.123 0.035-0.184 0.035-0.197 0-0.384-0.118-0.461-0.314l-1.058-2.663c-0.102-0.256 0.022-0.546 0.277-0.648s0.544 0.022 0.645 0.278l1.058 2.663zM30.165 24.433c-0.090 0.165-0.26 0.259-0.436 0.259-0.081 0-0.162-0.020-0.238-0.061l-2.505-1.376c-0.241-0.132-0.329-0.435-0.197-0.677s0.433-0.331 0.674-0.198l2.505 1.376c0.241 0.132 0.329 0.435 0.197 0.677zM31.597 14.064l-2.804 0.541c-0.032 0.006-0.063 0.009-0.094 0.009-0.233 0-0.441-0.166-0.487-0.405-0.052-0.27 0.124-0.532 0.394-0.584l2.804-0.541c0.269-0.052 0.53 0.125 0.581 0.396s-0.125 0.531-0.394 0.584zM26.452 3.868c0.211 0.175 0.241 0.49 0.066 0.702l-1.818 2.21c-0.098 0.119-0.24 0.181-0.383 0.181-0.112 0-0.224-0.037-0.316-0.114-0.211-0.175-0.241-0.49-0.066-0.702l1.818-2.21c0.175-0.212 0.488-0.242 0.699-0.067zM15.588 3.365v-2.867c0-0.275 0.223-0.499 0.497-0.499s0.497 0.223 0.497 0.499v2.867c0 0.275-0.223 0.499-0.497 0.499s-0.497-0.223-0.497-0.499zM17.633 19.066c-0.343 0-0.621-0.28-0.621-0.624s0.279-0.624 0.621-0.624c0.343 0 0.621 0.28 0.621 0.624s-0.279 0.624-0.621 0.624zM17.633 16.82c-0.89 0-1.614 0.727-1.614 1.621s0.724 1.621 1.614 1.621c0.89 0 1.614-0.727 1.614-1.621s-0.725-1.621-1.614-1.621zM14.967 13.025c0.343 0 0.621 0.28 0.621 0.624s-0.279 0.624-0.621 0.624c-0.343 0-0.621-0.28-0.621-0.624s0.279-0.624 0.621-0.624zM14.967 15.27c0.89 0 1.614-0.727 1.614-1.621s-0.724-1.621-1.614-1.621c-0.89 0-1.614 0.727-1.614 1.621s0.725 1.621 1.614 1.621zM18.328 14.687l-4.283 4.3c-0.097 0.097-0.224 0.146-0.351 0.146s-0.254-0.049-0.351-0.146c-0.194-0.195-0.194-0.51 0-0.705l4.282-4.3c0.194-0.195 0.508-0.195 0.702 0s0.194 0.51 0 0.705zM24.879 18.629l-3.099 0.475c-1.121 0.172-1.967 1.237-1.884 2.373l0.228 3.14c0.009 0.125 0.003 0.215-0.007 0.275-0.053-0.030-0.127-0.081-0.219-0.166l-2.302-2.137c-0.404-0.375-0.941-0.582-1.511-0.582s-1.107 0.206-1.511 0.582l-2.302 2.137c-0.092 0.085-0.166 0.137-0.219 0.166-0.010-0.060-0.017-0.15-0.007-0.275l0.228-3.14c0.083-1.136-0.763-2.2-1.885-2.373l-3.099-0.475c-0.123-0.019-0.209-0.045-0.266-0.068 0.041-0.045 0.107-0.106 0.21-0.177l2.587-1.779c0.936-0.644 1.238-1.972 0.673-2.959l-1.562-2.729c-0.062-0.109-0.095-0.193-0.112-0.251 0.057 0.003 0.145 0.016 0.268 0.054l2.998 0.922c0.202 0.062 0.414 0.094 0.628 0.094 0.921 0 1.763-0.567 2.095-1.411l1.151-2.928c0.046-0.116 0.090-0.195 0.125-0.245 0.035 0.050 0.079 0.128 0.125 0.245l1.151 2.928c0.332 0.844 1.173 1.411 2.095 1.411 0.215 0 0.425-0.032 0.628-0.094l2.998-0.922c0.124-0.038 0.211-0.051 0.269-0.054-0.017 0.058-0.050 0.142-0.112 0.251l-1.562 2.729c-0.565 0.988-0.264 2.315 0.673 2.959l2.587 1.779c0.103 0.071 0.169 0.132 0.21 0.177-0.058 0.023-0.144 0.049-0.267 0.068h0zM25.496 17.561l-2.587-1.779c-0.51-0.351-0.681-1.101-0.373-1.639l1.562-2.729c0.367-0.641 0.279-1.062 0.141-1.302-0.095-0.166-0.334-0.444-0.859-0.444-0.178 0-0.376 0.033-0.59 0.099l-2.998 0.922c-0.108 0.033-0.222 0.050-0.338 0.050-0.509 0-0.991-0.321-1.171-0.78l-1.151-2.928c-0.319-0.811-0.794-0.932-1.049-0.932s-0.73 0.121-1.049 0.932l-1.151 2.928c-0.18 0.459-0.662 0.78-1.172 0.78-0.116 0-0.229-0.017-0.337-0.050l-2.998-0.922c-0.213-0.066-0.411-0.099-0.589-0.099-0.525 0-0.764 0.278-0.859 0.444-0.138 0.24-0.226 0.661 0.141 1.302l1.562 2.729c0.308 0.538 0.137 1.289-0.373 1.639l-2.587 1.779c-0.716 0.493-0.728 0.985-0.671 1.234s0.28 0.688 1.138 0.82l3.099 0.475c0.611 0.094 1.089 0.696 1.044 1.315l-0.228 3.14c-0.036 0.49 0.062 0.862 0.29 1.108 0.162 0.175 0.385 0.272 0.626 0.272 0.314 0 0.641-0.157 0.975-0.466l2.302-2.137c0.22-0.204 0.518-0.317 0.837-0.317s0.617 0.112 0.837 0.317l2.302 2.137c0.333 0.309 0.661 0.466 0.975 0.466 0.241 0 0.463-0.096 0.626-0.272 0.228-0.246 0.325-0.618 0.29-1.108l-0.228-3.14c-0.045-0.619 0.433-1.221 1.044-1.315l3.099-0.475c0.858-0.131 1.081-0.57 1.138-0.82 0.059-0.25 0.048-0.742-0.669-1.234z"></path>
</svg>
