<svg width="24" height="24" viewBox="0 0 24 24" fill="none" xmlns="http://www.w3.org/2000/svg">
<path d="M18.3496 7L6.64928 7C6.53082 7.00038 6.4147 7.03395 6.31343 7.09709C6.21215 7.16024 6.12956 7.25056 6.07453 7.35834C6.01951 7.46613 5.99413 7.58729 6.00114 7.70879C6.00815 7.83029 6.04728 7.94752 6.11431 8.04787L11.9645 16.73C12.2069 17.09 12.7906 17.09 13.0338 16.73L18.8839 8.04787C18.9516 7.94773 18.9914 7.83044 18.9987 7.70874C19.0061 7.58704 18.9809 7.46558 18.9258 7.35757C18.8708 7.24956 18.7879 7.15912 18.6863 7.09608C18.5848 7.03304 18.4683 6.99981 18.3496 7Z" fill="#00A427"/>
</svg>
