<svg width="24" height="25" viewBox="0 0 24 25" fill="none" xmlns="http://www.w3.org/2000/svg">
<path d="M19 15.5C19 16.4193 18.8189 17.3295 18.4672 18.1788C18.1154 19.0281 17.5998 19.7997 16.9497 20.4497C16.2997 21.0998 15.5281 21.6154 14.6788 21.9672C13.8295 22.3189 12.9193 22.5 12 22.5C11.0807 22.5 10.1705 22.3189 9.32122 21.9672C8.47194 21.6154 7.70026 21.0998 7.05025 20.4497C6.40024 19.7997 5.88463 19.0281 5.53284 18.1788C5.18106 17.3295 5 16.4193 5 15.5V9.5C5 7.64348 5.7375 5.86301 7.05025 4.55025C8.36301 3.2375 10.1435 2.5 12 2.5C13.8565 2.5 15.637 3.2375 16.9497 4.55025C18.2625 5.86301 19 7.64348 19 9.5V11.5" stroke="#252525" stroke-width="1.5" stroke-linecap="round"/>
<path d="M10.5 9C10.5 8.60218 10.658 8.22064 10.9393 7.93934C11.2206 7.65804 11.6022 7.5 12 7.5C12.3978 7.5 12.7794 7.65804 13.0607 7.93934C13.342 8.22064 13.5 8.60218 13.5 9V11C13.5 11.3978 13.342 11.7794 13.0607 12.0607C12.7794 12.342 12.3978 12.5 12 12.5C11.6022 12.5 11.2206 12.342 10.9393 12.0607C10.658 11.7794 10.5 11.3978 10.5 11V9Z" stroke="#252525" stroke-width="1.5"/>
<path d="M12 2.5V7.5" stroke="#252525" stroke-width="1.5" stroke-linecap="round"/>
</svg>
