<svg width="35" height="86" viewBox="0 0 35 86" fill="none" xmlns="http://www.w3.org/2000/svg">
<g clip-path="url(#clip0_189_1572)">
<mask id="path-1-inside-1_189_1572" fill="white">
<path fill-rule="evenodd" clip-rule="evenodd" d="M-1.80624 0H-355V85.605H-1.80624C-0.420013 85.605 0.834473 85.0408 1.74014 84.1296C2.62717 83.9794 3.4852 83.5184 4.15414 82.69L34.1747 45.513C35.3586 44.0468 35.3586 41.9532 34.1747 40.487L4.15414 3.31004C3.59412 2.6165 2.90155 2.18045 2.17041 1.96871C1.25687 0.772075 -0.18454 0 -1.80624 0Z"/>
</mask>
<path fill-rule="evenodd" clip-rule="evenodd" d="M-1.80624 0H-355V85.605H-1.80624C-0.420013 85.605 0.834473 85.0408 1.74014 84.1296C2.62717 83.9794 3.4852 83.5184 4.15414 82.69L34.1747 45.513C35.3586 44.0468 35.3586 41.9532 34.1747 40.487L4.15414 3.31004C3.59412 2.6165 2.90155 2.18045 2.17041 1.96871C1.25687 0.772075 -0.18454 0 -1.80624 0Z" fill="white"/>
<path d="M-355 0V-1H-356V0H-355ZM-355 85.605H-356V86.605H-355V85.605ZM1.74014 84.1296L1.57318 83.1437L1.25697 83.1972L1.03088 83.4247L1.74014 84.1296ZM4.15414 82.69L3.37613 82.0617L3.37613 82.0617L4.15414 82.69ZM34.1747 45.513L34.9527 46.1412L34.9527 46.1412L34.1747 45.513ZM34.1747 40.487L33.3966 41.1153L33.3966 41.1153L34.1747 40.487ZM4.15414 3.31004L3.37613 3.93828L3.37613 3.93828L4.15414 3.31004ZM2.17041 1.96871L1.37556 2.57552L1.5756 2.83754L1.89223 2.92924L2.17041 1.96871ZM-355 1H-1.80624V-1H-355V1ZM-354 85.605V0H-356V85.605H-354ZM-1.80624 84.605H-355V86.605H-1.80624V84.605ZM1.03088 83.4247C0.305223 84.1548 -0.697009 84.605 -1.80624 84.605V86.605C-0.143018 86.605 1.36372 85.9269 2.44941 84.8346L1.03088 83.4247ZM3.37613 82.0617C2.86343 82.6966 2.22447 83.0334 1.57318 83.1437L1.9071 85.1156C3.02987 84.9255 4.10697 84.3401 4.93216 83.3182L3.37613 82.0617ZM33.3966 44.8847L3.37613 82.0617L4.93216 83.3182L34.9527 46.1412L33.3966 44.8847ZM33.3966 41.1153C34.2846 42.2149 34.2846 43.7851 33.3966 44.8847L34.9527 46.1412C36.4326 44.3085 36.4326 41.6915 34.9527 39.8588L33.3966 41.1153ZM3.37613 3.93828L33.3966 41.1153L34.9527 39.8588L4.93216 2.68179L3.37613 3.93828ZM1.89223 2.92924C2.42729 3.08419 2.94516 3.40457 3.37613 3.93828L4.93216 2.68179C4.24307 1.82842 3.37581 1.27671 2.44859 1.00818L1.89223 2.92924ZM-1.80624 1C-0.509482 1 0.643046 1.61601 1.37556 2.57552L2.96526 1.3619C1.87069 -0.0718566 0.140403 -1 -1.80624 -1V1Z" fill="#C6C6C6" mask="url(#path-1-inside-1_189_1572)"/>
</g>
<defs>
<clipPath id="clip0_189_1572">
<rect width="35" height="86" fill="white"/>
</clipPath>
</defs>
</svg>
