<svg width="110" height="110" viewBox="0 0 110 110" fill="none" xmlns="http://www.w3.org/2000/svg">
<path d="M16.3872 17.5173C15.7386 16.8314 15.7652 15.7464 16.4492 15.0933C17.134 14.4403 18.2136 14.4705 18.8632 15.1555L25.6218 22.3012C26.2704 22.9871 26.2438 24.0721 25.5598 24.7252C25.2295 25.0397 24.8062 25.196 24.3847 25.196C23.933 25.196 23.4822 25.0181 23.1467 24.6621L16.3872 17.5173ZM10.2437 52.1113L0.500923 50.9252C-0.43508 50.8112 -1.10094 49.9568 -0.987388 49.0178C-0.87383 48.0779 -0.0195601 47.4067 0.912149 47.5216L10.655 48.7094C11.591 48.8234 12.2585 49.6778 12.1433 50.6168C12.0383 51.4858 11.3019 52.1251 10.4511 52.1251C10.3831 52.1242 10.3143 52.1199 10.2437 52.1113ZM18.2222 79.1552C18.7307 79.9526 18.5001 81.0125 17.7052 81.5231L9.44038 86.8383C9.15561 87.0214 8.83644 87.1096 8.52157 87.1096C7.95894 87.1096 7.4092 86.8305 7.08229 86.3191C6.57385 85.5218 6.80441 84.4619 7.59933 83.9513L15.8641 78.6352C16.6582 78.1255 17.7146 78.357 18.2222 79.1552ZM42.1134 99.4255L39.1127 108.809C38.8796 109.536 38.2103 110 37.4885 110C37.3156 110 37.1392 109.974 36.9671 109.917C36.069 109.628 35.576 108.663 35.8634 107.761L38.8641 98.3777C39.1514 97.4758 40.1133 96.9791 41.0114 97.2693C41.9087 97.5605 42.4025 98.5254 42.1134 99.4255ZM75.9263 106.773C76.2756 107.652 75.8497 108.649 74.974 109C74.7666 109.083 74.5524 109.122 74.3416 109.122C73.6637 109.122 73.0228 108.715 72.7553 108.043L69.117 98.8899C68.7668 98.0104 69.1935 97.0136 70.0693 96.6629C70.9451 96.3122 71.9379 96.7398 72.288 97.6192L75.9263 106.773ZM103.691 83.988C103.382 84.5564 102.796 84.8794 102.193 84.8794C101.915 84.8794 101.635 84.8112 101.376 84.6687L92.7657 79.939C91.9381 79.4846 91.6344 78.4428 92.0877 77.6134C92.5394 76.7833 93.5778 76.4766 94.4037 76.9327L103.014 81.6624C103.841 82.1159 104.144 83.1568 103.691 83.988ZM108.615 48.3436L98.976 50.2035C98.8676 50.2242 98.7592 50.2346 98.6517 50.2346C97.8499 50.2346 97.135 49.6636 96.9784 48.8438C96.8011 47.9151 97.4059 47.0158 98.3325 46.8379L107.971 44.978C108.895 44.7983 109.792 45.4073 109.969 46.3377C110.147 47.2663 109.541 48.1639 108.615 48.3436ZM90.9288 13.2963C91.6549 13.8993 91.7573 14.9791 91.1568 15.7099L84.9067 23.3074C84.5686 23.7177 84.0817 23.9294 83.5896 23.9294C83.2059 23.9294 82.8213 23.8006 82.503 23.5372C81.7769 22.9342 81.6746 21.8544 82.275 21.1236L88.5251 13.5261C89.1256 12.7961 90.201 12.6934 90.9288 13.2963ZM53.5855 11.5686V1.71388C53.5855 0.767975 54.3504 0 55.2924 0C56.2344 0 56.9992 0.767975 56.9992 1.71388V11.5695C56.9992 12.5154 56.2344 13.2834 55.2924 13.2834C54.3504 13.2825 53.5855 12.5154 53.5855 11.5686ZM60.6124 65.5394C59.4346 65.5394 58.4763 64.577 58.4763 63.3944C58.4763 62.2118 59.4347 61.2495 60.6124 61.2495C61.7901 61.2495 62.7485 62.2118 62.7485 63.3944C62.7485 64.5753 61.7901 65.5394 60.6124 65.5394ZM60.6124 57.82C57.5522 57.82 55.0627 60.3201 55.0627 63.3927C55.0627 66.4655 57.5524 68.9654 60.6124 68.9654C63.6726 68.9654 66.1621 66.4653 66.1621 63.3927C66.1621 60.3199 63.6715 57.82 60.6124 57.82ZM51.4495 44.7733C52.6272 44.7733 53.5856 45.7356 53.5856 46.9182C53.5856 48.1009 52.6272 49.0632 51.4495 49.0632C50.2717 49.0632 49.3134 48.1008 49.3134 46.9182C49.3134 45.7356 50.2717 44.7733 51.4495 44.7733ZM51.4495 52.4908C54.5097 52.4908 56.9992 49.9908 56.9992 46.9182C56.9992 43.8456 54.5094 41.3455 51.4495 41.3455C48.3893 41.3455 45.8997 43.8456 45.8997 46.9182C45.8997 49.9917 48.3904 52.4908 51.4495 52.4908ZM63.0024 50.4876L48.2801 65.269C47.9471 65.6033 47.5092 65.7718 47.0739 65.7718C46.6377 65.7718 46.1998 65.6042 45.8678 65.269C45.2002 64.6004 45.2002 63.5145 45.8678 62.845L60.5884 48.0636C61.2542 47.3932 62.3356 47.3932 63.0024 48.0636C63.6682 48.7322 63.6683 49.8172 63.0024 50.4876ZM85.5216 64.0372L74.8685 65.6716C71.0135 66.2634 68.1075 69.9236 68.3914 73.8282L69.176 84.6221C69.2069 85.0514 69.1854 85.3616 69.151 85.5671C68.9686 85.4652 68.7148 85.2898 68.3991 84.9961L60.4851 77.6508C59.0949 76.3602 57.2503 75.6509 55.2906 75.6509C53.3309 75.6509 51.4856 76.3602 50.0962 77.6508L42.1822 84.9961C41.8665 85.2898 41.6101 85.4669 41.4311 85.5671C41.3967 85.3615 41.3744 85.0506 41.4062 84.6212L42.1908 73.8273C42.4747 69.921 39.5686 66.2634 35.7119 65.6708L25.0588 64.0364C24.6347 63.9707 24.3388 63.8817 24.1461 63.8022C24.2854 63.6459 24.5134 63.4368 24.8678 63.1932L33.7599 57.079C36.9773 54.8657 38.0148 50.3019 36.0724 46.908L30.7023 37.5257C30.489 37.1516 30.3746 36.8631 30.3161 36.6627C30.5131 36.6739 30.8142 36.7188 31.2383 36.8484L41.5438 40.0179C42.2398 40.2321 42.9659 40.3409 43.7032 40.3409C46.8699 40.3409 49.7641 38.3921 50.9047 35.4912L54.8621 25.4255C55.0204 25.0255 55.1727 24.7552 55.2922 24.585C55.4118 24.756 55.565 25.0255 55.7224 25.4255L59.6798 35.4912C60.8206 38.3911 63.7136 40.3409 66.8813 40.3409C67.6186 40.3409 68.3438 40.2321 69.0407 40.0179L79.3453 36.8484C79.7711 36.718 80.0714 36.6739 80.2692 36.6627C80.2116 36.8631 80.0963 37.1516 79.883 37.5257L74.513 46.908C72.5695 50.3037 73.6062 54.8657 76.8254 57.079L85.7175 63.1932C86.0711 63.4368 86.2999 63.6468 86.4392 63.8022C86.2414 63.8809 85.9454 63.9716 85.5213 64.0372H85.5216ZM87.6413 60.3651L78.7493 54.2508C76.9969 53.0457 76.4093 50.4646 77.4675 48.616L82.8375 39.2337C84.0995 37.0291 83.7967 35.583 83.3218 34.7581C82.994 34.1888 82.1724 33.2325 80.3684 33.2325C79.7559 33.2325 79.0746 33.3466 78.3407 33.572L68.0361 36.7415C67.6636 36.8555 67.2739 36.9134 66.8756 36.9134C65.1257 36.9134 63.4687 35.8111 62.8486 34.2338L58.8911 24.1681C57.7951 21.3812 56.1613 20.9659 55.2848 20.9659C54.4082 20.9659 52.7752 21.3823 51.6784 24.1681L47.721 34.2338C47.1007 35.8112 45.4446 36.9134 43.6939 36.9134C43.2965 36.9134 42.9059 36.8555 42.5343 36.7415L32.2288 33.572C31.4958 33.3466 30.8144 33.2325 30.2028 33.2325C28.3987 33.2325 27.578 34.1888 27.2494 34.7581C26.7736 35.5831 26.4726 37.0293 27.7337 39.2337L33.1038 48.616C34.1619 50.4647 33.5752 53.0458 31.8219 54.2508L22.9299 60.3651C20.4685 62.0582 20.4273 63.7497 20.6225 64.6084C20.8178 65.4662 21.586 66.9736 24.5334 67.4254L35.1865 69.0598C37.2865 69.382 38.9305 71.4508 38.7757 73.5787L37.9911 84.3726C37.8689 86.0554 38.2044 87.3373 38.9864 88.1823C39.5448 88.7853 40.3087 89.117 41.1389 89.117C42.2168 89.117 43.343 88.578 44.4889 87.5146L52.4029 80.1692C53.1599 79.4669 54.1828 79.079 55.2813 79.079C56.3799 79.079 57.4011 79.4652 58.1598 80.1692L66.0738 87.5146C67.2197 88.578 68.3466 89.117 69.4238 89.117C70.254 89.117 71.0171 88.7853 71.5763 88.1823C72.3591 87.3366 72.6938 86.0564 72.5716 84.3726L71.787 73.5787C71.633 71.451 73.2771 69.382 75.3762 69.0598L86.0293 67.4254C88.9784 66.9736 89.7449 65.4662 89.9402 64.6084C90.1441 63.7498 90.1036 62.0566 87.6413 60.3651Z" fill="#E20613"/>
</svg>
