<svg width="110" height="110" viewBox="0 0 110 110" fill="none" xmlns="http://www.w3.org/2000/svg">
<path d="M23.0344 77.7185L41.1111 67.4914C42.6125 66.6418 45.1871 66.3204 46.8508 66.7701L65.4654 71.8041C67.464 72.3442 68.5831 74.3843 67.9626 76.3704L67.9497 76.4128C67.3302 78.3944 65.1429 79.8854 63.0759 79.7442L47.8349 78.7033" stroke="white" stroke-width="3" stroke-linecap="round"/>
<path d="M68.3294 76.667L94.3435 72.4203C96.2233 72.1133 98.0597 73.3652 98.4475 75.2295L98.4236 75.1132C98.8104 76.9711 97.7262 79.1119 95.9852 79.9015L60.6661 95.9194C59.0889 96.6347 56.4143 97.2147 54.6858 97.2147L23.2858 97.2145" stroke="white" stroke-width="3" stroke-linecap="round"/>
<path d="M13 72.7419V99.7854H22.9916V72.7419H13Z" stroke="white" stroke-width="3"/>
<path d="M26.0002 19.7412L45.7979 8L83.4144 29.5257L63.6167 41.2678L26.0002 19.7412Z" stroke="white" stroke-width="3" stroke-miterlimit="10" stroke-linecap="round" stroke-linejoin="round"/>
<path d="M83.4142 19.7412L63.6165 8L26 29.5257L45.7977 41.2678L83.4142 19.7412Z" stroke="white" stroke-width="3" stroke-miterlimit="10" stroke-linecap="round" stroke-linejoin="round"/>
<path d="M74.8651 24.6335L75.4952 24.9948V24.6335H74.8651Z" stroke="white" stroke-width="3" stroke-miterlimit="10" stroke-linecap="round" stroke-linejoin="round"/>
<path d="M54.7071 36.1691V59.8581L75.4948 48.1168V34.2226L63.6165 41.2675L54.7071 36.1691Z" stroke="white" stroke-width="3" stroke-miterlimit="10" stroke-linecap="round" stroke-linejoin="round"/>
<path d="M45.7977 41.2678L34.9094 34.8099V48.1171L54.7071 59.8583V36.1694L45.7977 41.2678Z" stroke="white" stroke-width="3" stroke-miterlimit="10" stroke-linecap="round" stroke-linejoin="round"/>
</svg>
