<svg width="110" height="110" viewBox="0 0 110 110" fill="none" xmlns="http://www.w3.org/2000/svg">
<path d="M54.6476 19C53.9677 18.9978 53.3608 19.4322 53.1346 20.0832L50.7391 27.0886L43.4307 27.2402C42.7515 27.2553 42.156 27.7042 41.9456 28.3594C41.7359 29.0153 41.957 29.7333 42.4981 30.1512L48.3227 34.6245L46.2055 41.7245C46.0094 42.3848 46.2463 43.0985 46.796 43.504C47.3464 43.9096 48.0893 43.9175 48.6475 43.5242L54.6475 39.2876L60.6474 43.5242H60.6467C61.2057 43.9175 61.9479 43.9096 62.4982 43.504C63.0479 43.0985 63.2855 42.3848 63.0894 41.7245L60.9722 34.6245L66.7968 30.1512C67.3372 29.7333 67.5583 29.0146 67.3486 28.3594C67.1382 27.7042 66.5427 27.2553 65.8635 27.2402L58.558 27.0886L56.1561 20.0832C55.9307 19.4337 55.3259 18.9993 54.6474 19H54.6476ZM54.6476 25.5603L55.903 29.216C56.122 29.856 56.7104 30.2904 57.3782 30.3056L61.2015 30.3842L58.1547 32.7237C57.6214 33.135 57.3982 33.8393 57.5935 34.4888L58.6986 38.1986L55.5579 35.9825L55.5586 35.9818C55.0104 35.5965 54.2839 35.5965 53.7357 35.9818L50.5987 38.1979L51.7037 34.4888C51.8991 33.8386 51.6744 33.1343 51.1405 32.7237L48.0965 30.3843L51.9172 30.3056C52.5856 30.2919 53.1754 29.8575 53.3951 29.216L54.6476 25.5603ZM23.9242 27.9437H23.9235C23.2457 27.9444 22.6423 28.3839 22.4205 29.0398L20.4072 34.9563L14.2856 35.0826V35.0819C13.607 35.0949 13.0116 35.5466 12.8018 36.2069C12.5921 36.8664 12.814 37.5902 13.3551 38.0087L18.2335 41.7943L16.4614 47.7931V47.7924C16.2667 48.4556 16.5036 49.1722 17.0511 49.5791C17.5994 49.9854 18.3387 49.9934 18.8948 49.5986L23.9234 46.0216L28.9521 49.5986C29.5082 49.9912 30.2461 49.9818 30.7929 49.5755C31.339 49.1693 31.5759 48.4549 31.382 47.7924L29.6098 41.7936L34.4882 38.0088C35.03 37.5902 35.2519 36.8664 35.0422 36.2069C34.8325 35.5466 34.237 35.0949 33.5585 35.0819L27.4396 34.9556L25.4234 29.0399C25.2015 28.3854 24.6003 27.9459 23.9232 27.9437L23.9242 27.9437ZM85.3381 27.9495L85.3374 27.9502C84.6603 27.9502 84.0569 28.3882 83.8344 29.0427L81.8211 34.9621L75.6995 35.0884C75.021 35.1014 74.4255 35.5531 74.2158 36.2127C74.006 36.873 74.2279 37.596 74.769 38.0146L79.6474 41.8001L77.8753 47.799V47.7983C77.6806 48.4614 77.9168 49.1787 78.465 49.585C79.0133 49.992 79.7526 49.9999 80.3087 49.6045L85.3373 46.0275L90.366 49.6045C90.9221 49.9999 91.6614 49.992 92.2096 49.585C92.7578 49.1787 92.994 48.4614 92.7994 47.7983L91.0236 41.7994L95.9021 38.0138V38.0146C96.4431 37.596 96.6657 36.873 96.456 36.2127C96.2463 35.5531 95.6508 35.1014 94.9723 35.0884L88.8534 34.9621L86.8402 29.0427C86.6176 28.3882 86.0142 27.9502 85.3371 27.9502L85.3381 27.9495ZM23.9242 34.5349L24.7917 37.0951L24.7909 37.0958C25.01 37.7388 25.5969 38.1746 26.2625 38.1883L28.915 38.2425L26.8015 39.8841V39.8834C26.2705 40.2962 26.0464 41.0026 26.2411 41.655L27.0084 44.2499L24.8289 42.7028H24.8282C24.2828 42.3153 23.5585 42.3153 23.0124 42.7028L20.8358 44.2499L21.6031 41.655C21.797 41.0026 21.5737 40.2962 21.0427 39.8841L18.9319 38.2425L21.5808 38.1883H21.5815C22.2471 38.1746 22.834 37.7388 23.053 37.0958L23.9242 34.5349ZM85.3381 34.5406L86.2084 37.1009L86.2077 37.1023C86.4267 37.7453 87.0136 38.1811 87.6792 38.1941L90.3282 38.2482L88.2174 39.8899H88.2181C87.6863 40.3012 87.4609 41.0084 87.6541 41.6607L88.4242 44.2557L86.2448 42.7057H86.2455C85.6986 42.3167 84.9729 42.3167 84.4261 42.7057L82.2495 44.2557L83.0168 41.6607C83.2108 41.0091 82.9874 40.3019 82.4564 39.8899L80.3456 38.2482L82.9945 38.1941C83.6601 38.1811 84.2477 37.7453 84.4668 37.1023L85.3381 34.5406ZM54.5011 48.6526C48.7716 48.6526 44.0865 53.3814 44.0865 59.1623C44.0865 62.5856 45.7305 65.6381 48.2605 67.5568C43.4866 69.324 39.6538 73.0591 37.7272 77.7886C35.9687 74.4483 33.0842 71.8101 29.5857 70.4072C31.6441 68.6934 32.9611 66.0905 32.9611 63.1961C32.9611 58.0792 28.8407 53.8765 23.7897 53.8765C18.7387 53.8765 14.6306 58.0792 14.6306 63.1961C14.6306 66.0898 15.9418 68.6927 17.9966 70.4072C12.1391 72.7576 8.00143 78.5695 8.00143 85.3562V89.3749L8 89.3771C8.00358 90.2661 8.7186 90.9856 9.60037 90.987H37.8594C37.8988 90.9928 37.9389 90.9971 37.9782 91H99.3903C99.8176 91.0014 100.228 90.8311 100.53 90.5266C100.833 90.2221 101.001 89.8079 101 89.3771V85.3678C101 78.5788 96.853 72.7619 90.989 70.4094C93.0496 68.6955 94.3708 66.0942 94.3708 63.1983C94.3708 58.0813 90.2505 53.8916 85.1994 53.8916C80.1486 53.8916 76.0403 58.0813 76.0403 63.1983C76.0403 66.0934 77.3551 68.6948 79.4128 70.4094C75.9115 71.8144 73.0257 74.4561 71.2685 77.803C69.3454 73.0669 65.5169 69.3268 60.7409 67.5582C63.2667 65.6386 64.9021 62.5863 64.9021 59.1637C64.9021 53.3828 60.2291 48.654 54.4998 48.654L54.5011 48.6526ZM54.5011 51.8855C58.4956 51.8855 61.6969 55.1262 61.6969 59.1623C61.6969 63.1991 58.4954 66.4297 54.5011 66.4297C50.5065 66.4297 47.2929 63.1984 47.2929 59.1623C47.2929 55.1255 50.5073 51.8855 54.5011 51.8855ZM23.7886 57.1121C27.0896 57.1121 29.7535 59.8116 29.7535 63.1989C29.7535 66.5862 27.0889 69.2829 23.7886 69.2829C20.4876 69.2829 17.8359 66.5862 17.8359 63.1989C17.8359 59.8116 20.4878 57.1121 23.7886 57.1121ZM85.1988 57.1251C88.4999 57.1251 91.1638 59.8124 91.1638 63.199C91.1638 66.5862 88.4991 69.283 85.1988 69.283C81.8978 69.283 79.2462 66.5862 79.2462 63.199C79.2462 59.8117 81.898 57.1251 85.1988 57.1251ZM54.4992 69.6776C62.7902 69.6776 69.4108 76.3749 69.4108 84.7492V87.7678H39.587V85.3591C39.587 85.1555 39.5819 84.9513 39.5741 84.75C39.5741 76.3757 46.2067 69.6783 54.4977 69.6783L54.4992 69.6776ZM23.7868 72.5315C30.6156 72.5315 36.1152 77.9501 36.3686 84.8595V87.7547H11.2079V85.3581C11.2079 78.2126 16.7941 72.5306 23.786 72.5306L23.7868 72.5315ZM85.197 72.5315C92.189 72.5315 97.7909 78.2222 97.7909 85.3683V87.7676L72.6156 87.7669V85.3676C72.6156 78.2221 78.2055 72.5308 85.1974 72.5308L85.197 72.5315Z" fill="#E50F1C"/>
</svg>
