<svg width="110" height="110" viewBox="0 0 110 110" fill="none" xmlns="http://www.w3.org/2000/svg">
<path d="M54.5055 16.0992C46.8301 16.0992 39.4696 19.1481 34.0436 24.5749C28.6159 30.0019 25.5671 37.3623 25.5671 45.0368C25.5671 52.7121 28.6161 60.0726 34.0436 65.4986C39.4705 70.9263 46.831 73.9751 54.5055 73.9751C62.1799 73.9751 69.5413 70.9261 74.9673 65.4986C80.395 60.0717 83.4438 52.7112 83.4438 45.0368C83.4352 37.3643 80.3835 30.0088 74.958 24.584C69.5325 19.1585 62.177 16.1068 54.5053 16.099L54.5055 16.0992ZM54.5055 70.7863C47.6763 70.7863 41.1277 68.0736 36.2991 63.245C31.4698 58.4164 28.757 51.8671 28.757 45.0379C28.757 38.2094 31.4698 31.6601 36.2991 26.8315C41.1277 22.0029 47.6763 19.2901 54.5055 19.2901C61.3346 19.2901 67.8832 22.0029 72.7118 26.8315C77.5411 31.6601 80.2539 38.2094 80.2539 45.0379C80.2453 51.8641 77.5298 58.4085 72.7025 63.2357C67.876 68.0622 61.3317 70.7777 54.5053 70.7863H54.5055ZM92.0107 39.5657L87.2248 34.126L87.7988 26.9471H87.7995C87.9348 25.0484 87.3871 23.1639 86.2547 21.6333C85.1231 20.1036 83.4807 19.0289 81.6254 18.603L74.6061 17.0077L70.8891 10.8501C69.8899 9.19787 68.3258 7.96364 66.4864 7.37675C64.6475 6.79063 62.6577 6.89103 60.8864 7.6595L54.3136 10.5154L47.6611 7.75485C45.8927 7.02557 43.9206 6.95649 42.1052 7.55971C40.2891 8.16294 38.7508 9.3986 37.7701 11.0417L34.0696 17.2313L27.0659 18.9064C25.2106 19.3572 23.579 20.4582 22.4665 22.0095C21.354 23.5613 20.8349 25.4601 21.0037 27.3615L21.6574 34.5404L16.9357 40.0286C15.6872 41.4765 15 43.3246 15 45.2368C15 47.149 15.6873 48.9971 16.9357 50.4457L21.7216 55.8854L21.1476 63.0643C20.9988 64.9823 21.5479 66.8894 22.6938 68.4342C23.8404 69.9796 25.5063 71.058 27.3849 71.4717L34.4199 73.067L38.1688 79.2245C39.626 81.564 42.1777 82.9963 44.9333 83.0219C45.9973 83.0211 47.0506 82.8039 48.0285 82.3837L54.6647 79.5599L61.3172 82.3197C63.0749 83.0576 65.0391 83.1416 66.8537 82.5562C68.6677 81.9708 70.2124 80.7551 71.2081 79.1291L74.2392 74.0719V99.4054L55.3671 86.6429C54.8273 86.2783 54.1201 86.2783 53.5802 86.6429L34.7082 99.4054V79.6072C34.7082 78.7262 33.9939 78.0118 33.1129 78.0118C32.2312 78.0118 31.5176 78.7262 31.5176 79.6072V102.388C31.5126 102.982 31.8388 103.529 32.363 103.808C32.5973 103.92 32.853 103.981 33.1129 103.983C33.4305 103.984 33.7418 103.89 34.006 103.712L54.5061 89.9611L74.9735 103.713V103.712C75.4628 104.043 76.0952 104.077 76.6165 103.799C77.1378 103.522 77.4633 102.979 77.4626 102.388V72.2523L81.9451 71.1677V71.167C83.8004 70.7169 85.432 69.6158 86.5445 68.0639C87.657 66.5127 88.1762 64.6133 88.0074 62.7118L87.3849 55.5173L92.0755 50.0291C93.3282 48.5705 94.0112 46.7081 93.9999 44.7844C93.9878 42.8615 93.282 41.0076 92.0115 39.564L92.0107 39.5657ZM89.602 47.973L84.5291 53.9234C84.2471 54.2489 84.1089 54.6748 84.146 55.1043L84.8161 62.9847C84.9208 64.1306 84.6089 65.2758 83.938 66.2102C83.2671 67.1446 82.2822 67.8062 81.1625 68.074L73.5536 69.8766C73.1327 69.9749 72.7702 70.2398 72.548 70.6101L68.5119 77.3746C67.9393 78.3823 67.0206 79.148 65.9259 79.5289C64.832 79.9106 63.6361 79.8814 62.5615 79.4484L55.2873 76.433C54.8942 76.2692 54.4519 76.2692 54.0587 76.433L46.8157 79.4484C45.7588 79.9014 44.5744 79.9591 43.479 79.6101C42.3837 79.2618 41.45 78.5304 40.8496 77.5497L36.7332 70.8337C36.5081 70.4691 36.1463 70.2105 35.7283 70.1158L28.0551 68.361C26.9363 68.1046 25.9464 67.4536 25.2669 66.5285C24.5874 65.6033 24.2634 64.4646 24.3538 63.32L24.9599 55.5187C24.9927 55.0949 24.8545 54.6761 24.5775 54.3542L19.4083 48.3555C18.6584 47.4867 18.246 46.377 18.246 45.2291C18.246 44.0812 18.6584 42.9714 19.4083 42.1026L24.529 36.1047V36.1039C24.811 35.7785 24.9492 35.3526 24.9121 34.9238L24.1942 27.0904C24.0917 25.9538 24.3986 24.8178 25.0596 23.8878C25.7205 22.9576 26.6926 22.2946 27.7993 22.0175L35.4568 20.183C35.8777 20.0847 36.2402 19.8198 36.4624 19.4495L40.4984 12.685C41.0881 11.6758 42.0275 10.9173 43.1384 10.5527C44.2494 10.1882 45.4552 10.2429 46.5285 10.7066L53.7231 13.722C54.1162 13.8858 54.5585 13.8858 54.9516 13.722L62.1947 10.6267C63.2516 10.1738 64.4359 10.1168 65.5313 10.4651C66.6267 10.814 67.5604 11.5455 68.1607 12.5255L72.2765 19.2414H72.2772C72.5022 19.6061 72.864 19.8653 73.2821 19.9593L80.9552 21.7142C82.0833 21.972 83.0796 22.6293 83.7599 23.5651C84.44 24.5009 84.7591 25.651 84.6565 26.8035L84.0504 34.6682C84.0177 35.092 84.1558 35.5115 84.4329 35.8327L89.6021 41.7196C90.352 42.5885 90.7644 43.6987 90.7644 44.8461C90.7644 45.9941 90.352 47.1037 89.6021 47.9732L89.602 47.973Z" fill="white"/>
<path d="M41.3215 46.4657C41.3215 46.4657 41.3215 46.1849 41.3215 45.6234C41.3215 45.0552 41.3215 44.3246 41.3215 43.4317C41.3215 42.5387 41.3215 41.595 41.3215 40.6006C41.3215 39.5994 41.3215 38.6524 41.3215 37.7594C41.3215 36.8665 41.3215 36.1393 41.3215 35.5778C41.3215 35.0096 41.3215 34.7255 41.3215 34.7255H41.1437C41.1437 34.7255 40.9659 34.8506 40.6103 35.1009C40.2613 35.3512 39.853 35.6421 39.3854 35.9735C38.9245 36.305 38.5162 36.5959 38.1606 36.8462C37.8115 37.0965 37.637 37.2216 37.637 37.2216V34.4515C37.637 34.4515 37.8214 34.3196 38.1902 34.0557C38.5656 33.7919 38.9969 33.4875 39.4842 33.1425C39.9715 32.7907 40.3996 32.4829 40.7683 32.2191C41.1371 31.9553 41.3215 31.8234 41.3215 31.8234H44.3047V46.4657H41.3215Z" fill="white"/>
<path d="M53.8171 46.8411C52.105 46.8411 50.7155 46.4454 49.6486 45.6539C48.5884 44.8624 48.0583 43.8308 48.0583 42.559C48.0583 41.639 48.3447 40.8374 48.9177 40.1542C49.4906 39.4709 50.2545 39.0244 51.2093 38.8147V38.6321C50.4389 38.4494 49.8166 38.0672 49.3424 37.4855C48.8683 36.9037 48.6312 36.2238 48.6312 35.4459C48.6312 34.2756 49.1185 33.3184 50.0931 32.5743C51.0678 31.8234 52.3124 31.4479 53.827 31.4479C55.3416 31.4479 56.583 31.8234 57.551 32.5743C58.519 33.3184 59.0031 34.2756 59.0031 35.4459C59.0031 36.2238 58.7693 36.9037 58.3017 37.4855C57.8408 38.0605 57.2184 38.4427 56.4348 38.6321V38.8147C57.3831 38.9974 58.1437 39.4303 58.7166 40.1136C59.2961 40.79 59.5859 41.595 59.5859 42.5286C59.5859 43.8139 59.0525 44.8556 57.9856 45.6539C56.9254 46.4454 55.5359 46.8411 53.8171 46.8411ZM53.8171 44.5884C54.6074 44.5884 55.2461 44.3754 55.7335 43.9492C56.2208 43.523 56.4644 42.9683 56.4644 42.285C56.4644 41.6018 56.2175 41.0471 55.7236 40.6209C55.2363 40.188 54.6008 39.9715 53.8171 39.9715C53.0335 39.9715 52.3947 40.188 51.9008 40.6209C51.4135 41.0471 51.1698 41.6018 51.1698 42.285C51.1698 42.9683 51.4135 43.523 51.9008 43.9492C52.3947 44.3754 53.0335 44.5884 53.8171 44.5884ZM53.8171 37.7696C54.4822 37.7696 55.0222 37.5802 55.4371 37.2013C55.852 36.8158 56.0594 36.3253 56.0594 35.73C56.0594 35.1212 55.852 34.624 55.4371 34.2384C55.0222 33.8528 54.4822 33.66 53.8171 33.66C53.1586 33.66 52.6219 33.8528 52.207 34.2384C51.7921 34.624 51.5847 35.1212 51.5847 35.73C51.5847 36.3253 51.7921 36.8158 52.207 37.2013C52.6285 37.5802 53.1652 37.7696 53.8171 37.7696Z" fill="white"/>
<path d="M69.1082 41.8893C69.1082 41.8893 69.1082 42.099 69.1082 42.5184C69.1082 42.9311 69.1082 43.4148 69.1082 43.9695C69.1082 44.5174 69.1082 45.0011 69.1082 45.4205C69.1082 45.8332 69.1082 46.0395 69.1082 46.0395H66.5301V41.8893H62.6974V39.3018H66.5301V35.1516H69.1082V39.3018H72.9508V41.8893H69.1082Z" fill="white"/>
<path d="M41.5869 59.5179C41.5688 59.5179 41.5145 59.5179 41.4239 59.5179C41.3334 59.5179 41.241 59.5161 41.1468 59.5125C41.0562 59.5089 41.0001 59.5054 40.9783 59.5018V58.2888C41.0073 58.2959 41.0653 58.2995 41.1522 58.2995C41.2428 58.303 41.3044 58.3048 41.337 58.3048C41.634 58.3048 41.8695 58.2531 42.0434 58.1498C42.2173 58.0465 42.335 57.8755 42.3966 57.6368L42.4509 57.4177L40.3535 51.4968H42.0977L43.3584 55.9856H43.4562L44.7169 51.4968H46.3905L44.3256 57.4925C44.072 58.2442 43.7388 58.7697 43.3258 59.069C42.9128 59.3682 42.3332 59.5179 41.5869 59.5179Z" fill="white"/>
<path d="M49.8573 52.5335C49.4914 52.5335 49.1889 52.6528 48.9498 52.8915C48.7144 53.1266 48.5821 53.4419 48.5532 53.8374H51.1016C51.0872 53.4348 50.9676 53.1177 50.743 52.8862C50.522 52.651 50.2268 52.5335 49.8573 52.5335ZM51.1397 55.7184C51.1397 55.7184 51.2139 55.7184 51.3625 55.7184C51.511 55.7184 51.6813 55.7184 51.8733 55.7184C52.0689 55.7184 52.2409 55.7184 52.3895 55.7184C52.538 55.7184 52.6123 55.7184 52.6123 55.7184C52.4963 56.267 52.1939 56.7034 51.7048 57.0276C51.2158 57.3483 50.6054 57.5086 49.8736 57.5086C48.9607 57.5086 48.2471 57.2414 47.7326 56.707C47.2219 56.1691 46.9665 55.4227 46.9665 54.4679C46.9665 53.5132 47.2237 52.7579 47.7381 52.2022C48.2561 51.6464 48.9607 51.3685 49.8519 51.3685C50.7358 51.3685 51.4241 51.6322 51.9167 52.1594C52.413 52.6831 52.6612 53.4099 52.6612 54.3397V54.8046H48.5477V54.8848C48.5586 55.3336 48.6854 55.6899 48.9281 55.9535C49.1744 56.2136 49.5041 56.3436 49.9171 56.3436C50.2286 56.3436 50.4876 56.2902 50.6941 56.1833C50.9042 56.0729 51.0527 55.9179 51.1397 55.7184Z" fill="white"/>
<path d="M56.1117 56.3329C56.4776 56.3329 56.7819 56.2278 57.0246 56.0177C57.2709 55.8075 57.3941 55.5492 57.3941 55.2428V54.7993L56.1877 54.8794C55.5139 54.9257 55.177 55.168 55.177 55.6062C55.177 55.8306 55.264 56.0087 55.4379 56.1406C55.6118 56.2688 55.8364 56.3329 56.1117 56.3329ZM55.59 57.4712C55.014 57.4712 54.5431 57.3109 54.1772 56.9902C53.8113 56.6696 53.6284 56.2403 53.6284 55.7024C53.6284 54.6087 54.4018 54.0191 55.9487 53.9336L57.3941 53.8481V53.3618C57.3941 53.1088 57.3071 52.9129 57.1332 52.774C56.963 52.635 56.7148 52.5655 56.3888 52.5655C56.1026 52.5655 55.8672 52.6136 55.6824 52.7098C55.4976 52.806 55.3727 52.945 55.3075 53.1266H53.8512C53.9019 52.5851 54.1645 52.1576 54.6391 51.8441C55.1137 51.5271 55.7259 51.3685 56.4757 51.3685C57.2691 51.3685 57.8813 51.5449 58.3124 51.8976C58.7435 52.2467 58.959 52.7348 58.959 53.3618V57.3803H57.4212V56.6055H57.3234C57.1713 56.8762 56.9412 57.0882 56.6333 57.2414C56.3254 57.3946 55.9776 57.4712 55.59 57.4712Z" fill="white"/>
<path d="M60.5022 57.3803C60.5022 57.3803 60.5022 57.1826 60.5022 56.7872C60.5022 56.3882 60.5022 55.8965 60.5022 55.3123C60.5022 54.728 60.5022 54.1438 60.5022 53.5595C60.5022 52.9752 60.5022 52.4854 60.5022 52.0899C60.5022 51.6945 60.5022 51.4968 60.5022 51.4968H62.0346V52.4319H62.1324C62.2121 52.1363 62.3932 51.8904 62.6758 51.6945C62.9583 51.4986 63.2898 51.4006 63.6702 51.4006C63.7789 51.4006 63.8912 51.4077 64.0071 51.422C64.1266 51.4327 64.2208 51.4487 64.2896 51.4701V52.8434C64.2281 52.8185 64.1194 52.7971 63.9636 52.7793C63.8115 52.7615 63.6702 52.7526 63.5398 52.7526C63.1087 52.7526 62.7573 52.8719 62.4856 53.1106C62.2175 53.3493 62.0835 53.6753 62.0835 54.0885V57.3803H60.5022Z" fill="white"/>
<path d="M65.0939 53.2175C65.0939 52.6617 65.3221 52.2146 65.7785 51.8762C66.2386 51.5378 66.8418 51.3685 67.588 51.3685C68.3524 51.3685 68.9501 51.5199 69.3812 51.8228C69.8123 52.122 70.0495 52.5495 70.093 53.1053H68.6313C68.5915 52.9129 68.4828 52.7615 68.3053 52.651C68.1278 52.537 67.8923 52.48 67.5989 52.48C67.3163 52.48 67.0808 52.5388 66.8925 52.6564C66.7077 52.774 66.6153 52.9289 66.6153 53.1213C66.6153 53.2709 66.6806 53.3956 66.811 53.4954C66.945 53.5916 67.1497 53.6699 67.425 53.7305L68.5498 53.971C69.1294 54.0957 69.5551 54.2863 69.8268 54.5428C70.0985 54.7957 70.2343 55.1413 70.2343 55.5795C70.2343 56.1602 69.9898 56.6268 69.5007 56.9795C69.0153 57.3322 68.3795 57.5086 67.5934 57.5086C66.8037 57.5086 66.177 57.3554 65.7133 57.049C65.2533 56.7426 64.9961 56.3116 64.9417 55.7558H66.4904C66.5519 55.9589 66.6769 56.1174 66.8653 56.2314C67.0573 56.3454 67.3109 56.4024 67.626 56.4024C67.934 56.4024 68.1821 56.3418 68.3705 56.2207C68.5625 56.0996 68.6585 55.9411 68.6585 55.7451C68.6585 55.5955 68.5987 55.4744 68.4792 55.3817C68.3632 55.2855 68.1731 55.2072 67.9086 55.1466L66.8218 54.9115C66.2386 54.7832 65.8039 54.5819 65.5177 54.3076C65.2351 54.0298 65.0939 53.6664 65.0939 53.2175Z" fill="white"/>
</svg>
