<svg width="93" height="72" viewBox="0 0 93 72" fill="none" xmlns="http://www.w3.org/2000/svg">
<path d="M46.6476 8.05494e-06C45.9677 -0.00215684 45.3608 0.432247 45.1346 1.08316L42.7391 8.08862L35.4307 8.24016C34.7515 8.25532 34.156 8.70416 33.9456 9.35939C33.7359 10.0153 33.957 10.7333 34.4981 11.1512L40.3227 15.6245L38.2055 22.7245C38.0094 23.3848 38.2463 24.0985 38.796 24.504C39.3464 24.9096 40.0893 24.9175 40.6475 24.5242L46.6475 20.2876L52.6474 24.5242H52.6467C53.2057 24.9175 53.9479 24.9096 54.4982 24.504C55.0479 24.0985 55.2855 23.3848 55.0894 22.7245L52.9722 15.6245L58.7968 11.1512C59.3372 10.7333 59.5583 10.0146 59.3486 9.35939C59.1382 8.70416 58.5427 8.25531 57.8635 8.24016L50.558 8.08862L48.1561 1.08316C47.9307 0.433706 47.3259 -0.000712406 46.6474 8.05494e-06H46.6476ZM46.6476 6.56027L47.903 10.216C48.122 10.856 48.7104 11.2904 49.3782 11.3056L53.2015 11.3842L50.1547 13.7237C49.6214 14.135 49.3982 14.8393 49.5935 15.4888L50.6986 19.1986L47.5579 16.9825L47.5586 16.9818C47.0104 16.5965 46.2839 16.5965 45.7357 16.9818L42.5987 19.1979L43.7037 15.4888C43.8991 14.8386 43.6744 14.1343 43.1405 13.7237L40.0965 11.3843L43.9172 11.3056C44.5856 11.2919 45.1754 10.8575 45.3951 10.216L46.6476 6.56027ZM15.9242 8.9437H15.9235C15.2457 8.94442 14.6423 9.38388 14.4205 10.0398L12.4072 15.9563L6.28556 16.0826V16.0819C5.60705 16.0948 5.01156 16.5466 4.80184 17.2069C4.59214 17.8664 4.81401 18.5902 5.35509 19.0087L10.2335 22.7943L8.46135 28.7931V28.7924C8.26667 29.4556 8.50358 30.1722 9.05112 30.5791C9.59937 30.9854 10.3387 30.9934 10.8948 30.5986L15.9234 27.0216L20.9521 30.5986C21.5082 30.9912 22.2461 30.9818 22.7929 30.5755C23.339 30.1693 23.5759 29.4549 23.382 28.7924L21.6098 22.7936L26.4882 19.0088C27.03 18.5902 27.2519 17.8664 27.0422 17.2069C26.8325 16.5466 26.237 16.0949 25.5585 16.0819L19.4396 15.9556L17.4234 10.0399C17.2015 9.38537 16.6003 8.94591 15.9232 8.94375L15.9242 8.9437ZM77.3381 8.94947L77.3374 8.9502C76.6603 8.9502 76.0569 9.38822 75.8344 10.0427L73.8211 15.9621L67.6995 16.0884C67.021 16.1014 66.4255 16.5531 66.2157 17.2127C66.006 17.873 66.2279 18.596 66.769 19.0146L71.6474 22.8001L69.8753 28.799V28.7983C69.6806 29.4614 69.9168 30.1787 70.465 30.585C71.0133 30.992 71.7526 30.9999 72.3087 30.6045L77.3373 27.0275L82.366 30.6045C82.9221 30.9999 83.6614 30.992 84.2096 30.585C84.7578 30.1787 84.994 29.4614 84.7994 28.7983L83.0236 22.7994L87.9021 19.0139V19.0146C88.4431 18.596 88.6657 17.873 88.456 17.2127C88.2463 16.5531 87.6508 16.1014 86.9723 16.0884L80.8534 15.9621L78.8402 10.0427C78.6176 9.38822 78.0142 8.9502 77.3371 8.9502L77.3381 8.94947ZM15.9242 15.5349L16.7917 18.0951L16.7909 18.0958C17.01 18.7388 17.5969 19.1746 18.2625 19.1883L20.915 19.2425L18.8015 20.8841V20.8834C18.2705 21.2962 18.0464 22.0026 18.2411 22.655L19.0084 25.2499L16.8289 23.7028H16.8282C16.2828 23.3153 15.5585 23.3153 15.0124 23.7028L12.8358 25.2499L13.6031 22.655C13.797 22.0026 13.5737 21.2962 13.0427 20.8841L10.9319 19.2425L13.5808 19.1883H13.5815C14.2471 19.1746 14.834 18.7388 15.053 18.0958L15.9242 15.5349ZM77.3381 15.5406L78.2084 18.1009L78.2077 18.1023C78.4267 18.7453 79.0136 19.1811 79.6792 19.1941L82.3282 19.2482L80.2174 20.8899H80.2181C79.6863 21.3012 79.4609 22.0084 79.6541 22.6607L80.4242 25.2557L78.2448 23.7057H78.2455C77.6986 23.3167 76.9729 23.3167 76.4261 23.7057L74.2495 25.2557L75.0168 22.6607C75.2108 22.0091 74.9874 21.3019 74.4564 20.8899L72.3456 19.2482L74.9945 19.1941C75.6601 19.1811 76.2477 18.7453 76.4668 18.1023L77.3381 15.5406ZM46.5011 29.6526C40.7716 29.6526 36.0865 34.3814 36.0865 40.1623C36.0865 43.5856 37.7305 46.6381 40.2605 48.5568C35.4866 50.324 31.6538 54.0591 29.7272 58.7886C27.9687 55.4483 25.0842 52.8101 21.5857 51.4072C23.6441 49.6934 24.9611 47.0905 24.9611 44.1961C24.9611 39.0792 20.8407 34.8765 15.7897 34.8765C10.7387 34.8765 6.63057 39.0792 6.63057 44.1961C6.63057 47.0898 7.94178 49.6927 9.99663 51.4072C4.13905 53.7576 0.00143146 59.5695 0.00143146 66.3562V70.3749L0 70.3771C0.0035786 71.2661 0.718596 71.9856 1.60037 71.987H29.8594C29.8988 71.9928 29.9389 71.9971 29.9782 72H91.3903C91.8176 72.0014 92.2277 71.8311 92.5305 71.5266C92.8325 71.2221 93.0014 70.8079 93 70.3771V66.3678C93 59.5788 88.853 53.7619 82.989 51.4094C85.0496 49.6955 86.3708 47.0942 86.3708 44.1983C86.3708 39.0813 82.2504 34.8916 77.1994 34.8916C72.1486 34.8916 68.0403 39.0813 68.0403 44.1983C68.0403 47.0934 69.3551 49.6948 71.4128 51.4094C67.9115 52.8143 65.0257 55.4561 63.2685 58.803C61.3454 54.0669 57.5169 50.3268 52.7409 48.5582C55.2667 46.6386 56.9021 43.5863 56.9021 40.1637C56.9021 34.3828 52.2291 29.654 46.4998 29.654L46.5011 29.6526ZM46.5011 32.8855C50.4956 32.8855 53.6969 36.1262 53.6969 40.1623C53.6969 44.1991 50.4954 47.4297 46.5011 47.4297C42.5065 47.4297 39.2929 44.1984 39.2929 40.1623C39.2929 36.1255 42.5073 32.8855 46.5011 32.8855ZM15.7886 38.1121C19.0896 38.1121 21.7535 40.8116 21.7535 44.1989C21.7535 47.5862 19.0889 50.2829 15.7886 50.2829C12.4876 50.2829 9.83594 47.5862 9.83594 44.1989C9.83594 40.8116 12.4878 38.1121 15.7886 38.1121ZM77.1988 38.1251C80.4999 38.1251 83.1638 40.8124 83.1638 44.199C83.1638 47.5862 80.4991 50.283 77.1988 50.283C73.8978 50.283 71.2462 47.5862 71.2462 44.199C71.2462 40.8117 73.898 38.1251 77.1988 38.1251ZM46.4992 50.6776C54.7902 50.6776 61.4108 57.3749 61.4108 65.7492V68.7678H31.587V66.3591C31.587 66.1555 31.5819 65.9513 31.5741 65.75C31.5741 57.3757 38.2067 50.6783 46.4977 50.6783L46.4992 50.6776ZM15.7868 53.5315C22.6156 53.5315 28.1152 58.9501 28.3686 65.8595V68.7547H3.2079V66.3581C3.2079 59.2126 8.79411 53.5306 15.786 53.5306L15.7868 53.5315ZM77.197 53.5315C84.189 53.5315 89.7909 59.2222 89.7909 66.3683V68.7676L64.6156 68.7669V66.3676C64.6156 59.2221 70.2055 53.5308 77.1974 53.5308L77.197 53.5315Z" fill="white"/>
</svg>
