<svg width="28" height="29" viewBox="0 0 28 29" fill="none" xmlns="http://www.w3.org/2000/svg">
<path d="M10.4999 1.66675V4.00008H17.4999V1.66675H19.8333V4.00008H24.4999C24.8093 4.00008 25.1061 4.123 25.3249 4.34179C25.5437 4.56058 25.6666 4.85733 25.6666 5.16675V23.8334C25.6666 24.1428 25.5437 24.4396 25.3249 24.6584C25.1061 24.8772 24.8093 25.0001 24.4999 25.0001H3.49992C3.1905 25.0001 2.89375 24.8772 2.67496 24.6584C2.45617 24.4396 2.33325 24.1428 2.33325 23.8334V5.16675C2.33325 4.85733 2.45617 4.56058 2.67496 4.34179C2.89375 4.123 3.1905 4.00008 3.49992 4.00008H8.16659V1.66675H10.4999ZM23.3333 13.3334H4.66659V22.6667H23.3333V13.3334ZM8.16659 6.33342H4.66659V11.0001H23.3333V6.33342H19.8333V8.66675H17.4999V6.33342H10.4999V8.66675H8.16659V6.33342Z" fill="#00A427"/>
</svg>
