<svg width="101" height="101" viewBox="0 0 101 101" fill="none" xmlns="http://www.w3.org/2000/svg">
<path d="M58.818 6.2666C59.4814 6.26662 60.1276 6.47718 60.6636 6.86796C61.1997 7.25873 61.5979 7.80956 61.8009 8.4411L65.2475 19.1507C66.6951 19.8588 68.08 20.6546 69.4022 21.5507L80.4063 19.182C81.0551 19.0435 81.7311 19.1145 82.337 19.3847C82.9429 19.655 83.4474 20.1106 83.7777 20.686L92.4632 35.7194C92.7948 36.2944 92.9353 36.9599 92.8644 37.6199C92.7934 38.2799 92.5147 38.9003 92.0684 39.3917L84.5172 47.7262C84.6271 49.3244 84.6271 50.9282 84.5172 52.5264L92.0684 60.8734C92.5147 61.3648 92.7934 61.9852 92.8644 62.6452C92.9353 63.3052 92.7948 63.9706 92.4632 64.5456L83.7777 79.5854C83.4464 80.1596 82.9416 80.6139 82.3358 80.883C81.73 81.1521 81.0544 81.2222 80.4063 81.0831L69.4022 78.7143C68.0862 79.6042 66.6951 80.4063 65.2537 81.1144L61.8009 91.824C61.5979 92.4555 61.1997 93.0064 60.6636 93.3971C60.1276 93.7879 59.4814 93.9985 58.818 93.9985H41.4471C40.7837 93.9985 40.1375 93.7879 39.6014 93.3971C39.0654 93.0064 38.6672 92.4555 38.4642 91.824L35.0238 81.1207C33.5802 80.4147 32.1877 79.6086 30.8566 78.7081L19.8588 81.0831C19.21 81.2216 18.5339 81.1506 17.928 80.8804C17.3222 80.6101 16.8177 80.1545 16.4874 79.5791L7.80189 64.5456C7.47023 63.9706 7.32975 63.3052 7.40071 62.6452C7.47166 61.9852 7.75038 61.3648 8.19669 60.8734L15.7479 52.5264C15.6385 50.9324 15.6385 49.3327 15.7479 47.7387L8.19669 39.3917C7.75038 38.9003 7.47166 38.2799 7.40071 37.6199C7.32975 36.9599 7.47023 36.2944 7.80189 35.7194L16.4874 20.6797C16.8186 20.1055 17.3235 19.6512 17.9293 19.3821C18.5351 19.113 19.2106 19.0429 19.8588 19.182L30.8566 21.557C32.1851 20.6609 33.5763 19.8525 35.0238 19.1444L38.4705 8.4411C38.6728 7.81159 39.0691 7.26222 39.6026 6.87164C40.1362 6.48105 40.7796 6.26927 41.4408 6.2666H58.8117H58.818ZM56.5244 12.5332H43.7406L40.1812 23.6062L37.7811 24.778C36.6012 25.3554 35.4623 26.0128 34.3721 26.7457L32.1538 28.2497L20.7737 25.7932L14.3818 36.8725L22.1837 45.5078L21.9957 48.1648C21.9056 49.4751 21.9056 50.79 21.9957 52.1002L22.1837 54.7573L14.3693 63.3926L20.7674 74.4719L32.1475 72.0217L34.3659 73.5194C35.456 74.2522 36.595 74.9097 37.7749 75.4871L40.175 76.6589L43.7406 87.7319H56.537L60.1089 76.6526L62.5027 75.4871C63.6813 74.911 64.8183 74.2535 65.9055 73.5194L68.1176 72.0217L79.5039 74.4719L85.8958 63.3926L78.0877 54.7573L78.2757 52.1002C78.366 50.7879 78.366 49.4709 78.2757 48.1586L78.0877 45.5016L85.9021 36.8725L79.5039 25.7932L68.1176 28.2372L65.9055 26.7457C64.8184 26.0114 63.6814 25.3539 62.5027 24.778L60.1089 23.6124L56.5307 12.5332H56.5244ZM50.1325 31.3329C55.1185 31.3329 59.9003 33.3135 63.4259 36.8392C66.9515 40.3648 68.9322 45.1466 68.9322 50.1325C68.9322 55.1185 66.9515 59.9003 63.4259 63.4259C59.9003 66.9516 55.1185 68.9322 50.1325 68.9322C45.1465 68.9322 40.3648 66.9516 36.8391 63.4259C33.3135 59.9003 31.3328 55.1185 31.3328 50.1325C31.3328 45.1466 33.3135 40.3648 36.8391 36.8392C40.3648 33.3135 45.1465 31.3329 50.1325 31.3329ZM50.1325 37.5994C46.8085 37.5994 43.6207 38.9199 41.2703 41.2703C38.9199 43.6207 37.5994 46.8086 37.5994 50.1325C37.5994 53.4565 38.9199 56.6444 41.2703 58.9948C43.6207 61.3452 46.8085 62.6657 50.1325 62.6657C53.4565 62.6657 56.6444 61.3452 58.9948 58.9948C61.3452 56.6444 62.6657 53.4565 62.6657 50.1325C62.6657 46.8086 61.3452 43.6207 58.9948 41.2703C56.6444 38.9199 53.4565 37.5994 50.1325 37.5994Z" fill="#D9D9D9"/>
</svg>
