<svg width="23" height="18" viewBox="0 0 23 18" fill="none" xmlns="http://www.w3.org/2000/svg">
<path d="M15.5242 15.7504L13.8003 15.7521V14.625H9.20033V15.7574L7.47604 15.7591C7.15908 15.7595 6.90212 16.0109 6.90176 16.3213L6.89997 17.4368C6.89961 17.7479 7.15764 18.0004 7.47569 18L15.5242 17.9909C15.8412 17.9905 16.0982 17.7391 16.0985 17.4291L16.1 16.3136C16.1003 16.0024 15.8423 15.75 15.5242 15.7504ZM21.0306 0.940078C20.9364 0.397617 20.448 0 19.8756 0H3.12401C2.55153 0 2.06314 0.397617 1.96898 0.940078C-0.119346 12.9783 0.00140414 12.2372 0.00104476 12.375C-3.33608e-05 12.9839 0.514592 13.5 1.17261 13.5H21.8273C22.4825 13.5 22.9957 12.9881 22.9985 12.3824C22.9992 12.2389 23.1189 12.9783 21.0306 0.940078ZM9.33761 2.25H13.662L14.0131 5.625H8.9865L9.33761 2.25ZM6.63619 11.25H2.55476L3.23794 7.3125H7.04623L6.63619 11.25ZM7.22161 5.625H3.53047L4.11589 2.25H7.57272L7.22161 5.625ZM8.40108 11.25L8.81076 7.3125H14.1888L14.5985 11.25H8.40108ZM15.4269 2.25H18.8837L19.4691 5.625H15.778L15.4269 2.25ZM16.3634 11.25L15.9537 7.3125H19.762L20.4452 11.25H16.3634Z" fill="white"/>
</svg>
