<svg width="24" height="25" viewBox="0 0 24 25" fill="none" xmlns="http://www.w3.org/2000/svg">
<path d="M19 15.9724C19 16.8917 18.8189 17.8019 18.4672 18.6512C18.1154 19.5005 17.5998 20.2721 16.9497 20.9222C16.2997 21.5722 15.5281 22.0878 14.6788 22.4396C13.8295 22.7914 12.9193 22.9724 12 22.9724C11.0807 22.9724 10.1705 22.7914 9.32122 22.4396C8.47194 22.0878 7.70026 21.5722 7.05025 20.9222C6.40024 20.2721 5.88463 19.5005 5.53284 18.6512C5.18106 17.8019 5 16.8917 5 15.9724V9.97241C5 8.1159 5.7375 6.33542 7.05025 5.02266C8.36301 3.70991 10.1435 2.97241 12 2.97241C13.8565 2.97241 15.637 3.70991 16.9497 5.02266C18.2625 6.33542 19 8.1159 19 9.97241V11.9724" stroke="white" stroke-width="1.5" stroke-linecap="round"/>
<path d="M10.5 9.47241C10.5 9.07459 10.658 8.69306 10.9393 8.41175C11.2206 8.13045 11.6022 7.97241 12 7.97241C12.3978 7.97241 12.7794 8.13045 13.0607 8.41175C13.342 8.69306 13.5 9.07459 13.5 9.47241V11.4724C13.5 11.8702 13.342 12.2518 13.0607 12.5331C12.7794 12.8144 12.3978 12.9724 12 12.9724C11.6022 12.9724 11.2206 12.8144 10.9393 12.5331C10.658 12.2518 10.5 11.8702 10.5 11.4724V9.47241Z" stroke="white" stroke-width="1.5"/>
<path d="M12 2.97241V7.97241" stroke="white" stroke-width="1.5" stroke-linecap="round"/>
</svg>
