<svg width="24" height="24" viewBox="0 0 24 24" fill="none" xmlns="http://www.w3.org/2000/svg">
<path d="M8.50016 0.666626V2.99996H15.5002V0.666626H17.8335V2.99996H22.5002C22.8096 2.99996 23.1063 3.12288 23.3251 3.34167C23.5439 3.56046 23.6668 3.85721 23.6668 4.16663V22.8333C23.6668 23.1427 23.5439 23.4395 23.3251 23.6583C23.1063 23.877 22.8096 24 22.5002 24H1.50016C1.19074 24 0.893997 23.877 0.675205 23.6583C0.456412 23.4395 0.333496 23.1427 0.333496 22.8333V4.16663C0.333496 3.85721 0.456412 3.56046 0.675205 3.34167C0.893997 3.12288 1.19074 2.99996 1.50016 2.99996H6.16683V0.666626H8.50016ZM21.3335 12.3333H2.66683V21.6666H21.3335V12.3333ZM6.16683 5.33329H2.66683V9.99996H21.3335V5.33329H17.8335V7.66663H15.5002V5.33329H8.50016V7.66663H6.16683V5.33329Z" fill="#00A427"/>
</svg>
